<svg width="65" height="45" viewBox="0 0 65 45" fill="none" xmlns="http://www.w3.org/2000/svg">
<path d="M58.9315 22.0954L51.3803 20.3425L50.0318 19.8031L15.377 20.0728V36.7934L58.9315 36.9283V22.0954Z" fill="white"/>
<path d="M44.7734 35.3101C45.213 34.1464 45.062 32.8371 44.3689 31.8042C43.6596 30.9533 42.6402 30.4194 41.5372 30.3209L18.0744 30.0512C17.9395 30.0512 17.8047 29.9164 17.6698 29.9164C17.6064 29.8692 17.5687 29.7937 17.5687 29.7141C17.5687 29.6346 17.6064 29.5591 17.6698 29.5119C17.8047 29.2422 17.9395 29.1073 18.2092 29.1073L41.8069 28.8376C44.853 28.4992 47.4892 26.5359 48.6839 23.7136L50.0323 20.2076C50.0323 20.0728 50.1672 19.9379 50.0323 19.8031C48.4628 12.8128 42.2033 7.802 35.0377 7.802C28.4883 7.802 22.6253 11.9889 20.5015 18.185C19.0924 17.179 17.3732 16.7017 15.6472 16.8365C12.3961 17.1993 9.80708 19.7883 9.44435 23.0394C9.354 23.8498 9.39985 24.671 9.57919 25.4665C4.28252 25.6135 0.00392953 30.0108 0.00527797 35.3101C-0.016297 35.8077 0.0281994 36.308 0.14012 36.7934C0.152256 37.0105 0.327557 37.1858 0.544655 37.198H43.8295C44.0992 37.198 44.3689 37.0631 44.3689 36.7934L44.7734 35.3101Z" fill="#F48120"/>
<path d="M52.1893 20.2076H51.5151C51.3802 20.2076 51.2454 20.3425 51.1106 20.4773L50.1667 23.7136C49.7271 24.8773 49.8781 26.1866 50.5712 27.2195C51.2805 28.0704 52.2999 28.6044 53.4029 28.7028L58.3921 28.9725C58.527 28.9725 58.6618 29.1073 58.7967 29.1073C58.86 29.1545 58.8978 29.23 58.8978 29.3096C58.8978 29.3892 58.86 29.4647 58.7967 29.5119C58.6618 29.7816 58.527 29.9164 58.2573 29.9164L53.1332 30.1861C50.0871 30.5245 47.4509 32.4879 46.2562 35.3102L45.9865 36.5237C45.8516 36.6586 45.9865 36.9283 46.2562 36.9283H64.0556C64.0718 36.931 64.0893 36.9323 64.1055 36.9323C64.3023 36.9323 64.4642 36.7705 64.4642 36.5736C64.4642 36.5575 64.4628 36.5399 64.4601 36.5237C64.781 35.3816 64.9617 34.2044 64.9995 33.0178C64.955 26.0073 59.1998 20.2521 52.1893 20.2076Z" fill="#FAAD3F"/>
</svg>
