<svg width="65" height="45" viewBox="0 0 65 45" fill="none" xmlns="http://www.w3.org/2000/svg">
<g clip-path="url(#clip0_3931_2790)">
<path d="M58.2977 36.1497C57.0599 36.0275 54.8713 35.7194 52.1249 37.1059C49.3837 38.4871 48.3053 38.5508 46.956 38.4021C47.3491 39.1246 48.1513 40.1179 50.6746 40.2986C53.1926 40.4739 54.3985 40.5536 53.0758 43.6931C53.1076 42.7422 52.8845 40.9095 50.3824 41.2335C47.8804 41.5576 47.296 43.81 49.9787 44.9309C49.1075 45.1062 47.2588 45.2124 45.9361 41.7541C45.0224 42.1525 43.6093 42.9494 41.0488 40.9732C41.9413 41.2973 43.0409 41.3185 43.0409 41.3185C40.7673 40.2348 38.5998 38.2162 37.208 36.3144C38.3077 37.1325 39.5242 37.9505 40.7566 38.1046C39.3064 36.3303 35.9437 32.787 31.832 29.1428C34.4775 30.8693 37.6649 33.5998 42.8868 32.9836C48.1088 32.3674 51.6149 31.1721 58.2924 36.1497" fill="#ED0000"/>
<path d="M35.9551 34.9174C32.6828 33.499 31.9816 33.2122 27.7689 32.1444C23.5616 31.0766 19.4181 28.8508 16.6504 25.3766C18.6 26.8056 22.5895 29.6848 26.6799 29.3714C26.0584 28.463 24.911 27.7512 23.5404 27.034C25.0916 27.4059 29.7717 28.6011 35.9551 34.9174Z" fill="#ED0000"/>
<path d="M28.8264 22.8001C27.9817 20.3777 26.4571 17.2807 19.2377 12.6696C15.721 10.3482 10.5575 7.43173 3.75781 -0.00012207C4.24123 2.0026 6.39269 7.21393 17.2191 13.9764C20.773 16.4041 25.3628 17.9022 28.8317 22.7948" fill="#ED0000"/>
<path d="M29.2735 26.3114C28.3863 24.2609 26.6014 21.6313 19.6052 17.8809C16.3806 16.0747 10.8665 13.2911 5.91016 8.00537C6.3617 9.91247 8.66191 14.1038 18.564 19.3417C21.3051 20.8504 25.9427 22.2688 29.2788 26.3114" fill="#ED0000"/>
<path d="M55.7437 31.7193C58.3307 32.1124 58.1979 32.6596 58.2245 33.6052C57.1249 32.4046 55.7437 31.7193 55.7437 31.7193ZM36.0618 15.7188C22.4252 11.8143 17.0014 6.88983 12.8047 1.73694C14.7224 7.67073 19.291 9.79563 24.1729 13.7798C29.0549 17.764 29.3311 19.9049 30.7707 22.2582C33.974 27.5014 34.484 28.3673 37.6607 30.6569C41.4059 33.143 45.9372 31.459 50.9095 32.2399C55.8818 33.0208 59.9882 36.8085 60.8806 38.264C61.9218 36.4047 59.4357 33.7274 58.761 33.0527C59.1223 30.6197 53.3638 29.5466 51.1804 28.7126C50.7501 28.5479 49.693 28.3035 50.612 26.1202C51.8498 23.1028 53.1407 20.4786 36.0618 15.7135" fill="#ED0000"/>
</g>
<defs>
<clipPath id="clip0_3931_2790">
<rect width="65" height="45" fill="white"/>
</clipPath>
</defs>
</svg>
