<svg width="65" height="45" viewBox="0 0 65 45" fill="none" xmlns="http://www.w3.org/2000/svg">
<g clip-path="url(#clip0_3931_2777)">
<path d="M15.5603 17.7076C15.1782 18.575 14.6263 19.4424 13.8197 20.1859C12.1215 21.838 9.99869 22.4989 7.79102 22.5815L16.0698 30.6357C16.1972 28.4879 16.8341 26.4228 18.5322 24.7707C19.2963 24.0272 20.188 23.4902 21.0795 23.0771C18.5322 22.1685 16.4943 20.1859 15.5603 17.7076Z" fill="#FF8300"/>
<path d="M13.7323 35.9263C16.8741 32.8699 16.8741 27.9133 13.7323 24.8569C10.5906 21.8005 5.496 21.8005 2.35432 24.8569C-0.787377 27.9133 -0.787377 32.8699 2.35432 35.9263C5.496 38.9829 10.5906 38.9829 13.7323 35.9263Z" fill="#FF8300"/>
<path d="M30.0331 9.03419C33.1748 12.0907 33.1748 17.0471 30.0331 20.1036C26.8914 23.1601 21.7968 23.1601 18.6551 20.1036C15.5134 17.0471 15.5134 12.0907 18.6551 9.03419C21.7968 5.9777 26.8914 5.9777 30.0331 9.03419Z" fill="#53565A"/>
<path d="M62.6369 9.03419C59.495 5.9777 54.4005 5.9777 51.2587 9.03419C49.7304 10.5211 48.9663 12.4211 48.9238 14.3211C48.7965 16.4689 48.1595 18.534 46.4614 20.1862C45.6971 20.9297 44.8056 21.5079 43.9141 21.8797C46.5038 22.7883 48.5416 24.771 49.4757 27.2905C49.8578 26.3818 50.4097 25.5558 51.2163 24.8123C52.9145 23.1601 55.0373 22.4992 57.245 22.4166C59.2403 22.3753 61.1933 21.5905 62.6793 20.1449C65.7785 17.0471 65.7785 12.0907 62.6369 9.03419ZM59.8348 17.3775C59.0705 18.121 58.0092 18.534 56.9477 18.534C55.8439 18.534 54.8251 18.121 54.0607 17.3775C52.4475 15.808 52.4475 13.2885 54.0607 11.7189C54.8251 10.9755 55.8864 10.5624 56.9477 10.5624C58.0516 10.5624 59.0705 10.9755 59.8348 11.7189C60.599 12.4624 61.0235 13.495 61.0235 14.5276C61.0659 15.6428 60.6414 16.6341 59.8348 17.3775Z" fill="#00A7CE"/>
<path d="M46.3417 24.8963C49.4835 27.9527 49.4835 32.9091 46.3417 35.9657C43.2 39.0221 38.1053 39.0221 34.9637 35.9657C31.822 32.9091 31.822 27.9527 34.9637 24.8963C38.1053 21.8397 43.2 21.8397 46.3417 24.8963Z" fill="#53565A"/>
<path d="M34.8754 20.184C33.1772 18.5318 32.4979 16.4666 32.413 14.3188L24.0918 22.3731C26.2995 22.497 28.4221 23.1165 30.1204 24.7687C31.8187 26.4209 32.4979 28.4861 32.5828 30.6339L40.8616 22.5796C38.6963 22.497 36.5735 21.8361 34.8754 20.184Z" fill="#53565A"/>
</g>
<defs>
<clipPath id="clip0_3931_2777">
<rect width="65" height="45" fill="white"/>
</clipPath>
</defs>
</svg>
