<svg width="65" height="45" viewBox="0 0 65 45" fill="none" xmlns="http://www.w3.org/2000/svg">
<g clip-path="url(#clip0_3931_2809)">
<path fill-rule="evenodd" clip-rule="evenodd" d="M34.754 0.130342L33.8311 11.5282C33.3944 11.4754 32.9519 11.447 32.5 11.447C31.9385 11.447 31.3864 11.4886 30.8474 11.5718L30.3218 6.04487C30.3047 5.87281 30.4427 5.72154 30.6167 5.72343H31.5602L31.1046 0.130342C31.0895 -0.0417238 31.2256 -0.189209 31.3977 -0.189209H34.4571C34.6291 -0.189209 34.7634 -0.0417238 34.7501 0.130342H34.754ZM27.0317 0.695702C26.9863 0.529308 26.8086 0.438548 26.6459 0.497164L23.77 1.54469C23.6074 1.6033 23.5317 1.7886 23.6036 1.94554L25.9425 7.04512L25.0539 7.36656C24.8912 7.42518 24.8119 7.61237 24.8875 7.77121L27.2699 12.7857C28.134 12.3092 29.07 11.9518 30.059 11.725L27.0317 0.695702ZM19.9713 3.87041L26.5892 13.1941C25.7497 13.7405 24.9914 14.3986 24.3335 15.1492L20.3759 11.2504C20.2511 11.1275 20.2606 10.9251 20.3929 10.8136L21.1171 10.2085L17.1766 6.21694C17.0556 6.09403 17.0651 5.89549 17.1974 5.78394L19.5402 3.81558C19.6725 3.70402 19.8711 3.73049 19.9713 3.87041ZM14.4198 9.26875C14.278 9.17231 14.0832 9.2158 13.9962 9.36328L12.4665 12.0142C12.3795 12.1636 12.44 12.3546 12.5951 12.4283L17.6645 14.8316L17.1899 15.6484C17.1029 15.7997 17.1634 15.9926 17.3222 16.0644L22.3726 18.3731C22.7395 17.4334 23.2273 16.5579 23.8249 15.7676L14.4198 9.26875ZM10.6853 16.4729C10.7156 16.3027 10.882 16.1949 11.0503 16.2383L22.1117 19.1275C21.8262 20.0616 21.6655 21.0506 21.6428 22.0735L16.1045 21.6291C15.9305 21.6159 15.8076 21.4551 15.8379 21.2831L16.0043 20.3547L10.4206 19.8309C10.2486 19.8139 10.1275 19.6551 10.1578 19.4849L10.6872 16.4709L10.6853 16.4729ZM10.2675 23.9436C10.0954 23.9605 9.97439 24.1193 10.0046 24.2895L10.536 27.3035C10.5662 27.4737 10.7345 27.5815 10.9009 27.538L16.3276 26.1198L16.4902 27.0482C16.5205 27.2204 16.6926 27.3281 16.859 27.2808L22.2119 25.8022C21.8962 24.8738 21.7014 23.8924 21.6504 22.8714L10.2675 23.9436ZM12.0373 31.8642C11.9503 31.7149 12.0108 31.5238 12.1659 31.4501L22.4937 26.5529C22.8869 27.4794 23.407 28.3397 24.0291 29.1112L19.5024 32.3312C19.3605 32.4334 19.162 32.3879 19.0769 32.2386L18.6061 31.4198L13.9924 34.6097C13.8506 34.708 13.6559 34.6645 13.5689 34.5151L12.0373 31.8642ZM24.551 29.7162L16.5167 37.8544C16.3957 37.9773 16.4051 38.1759 16.5375 38.2874L18.8822 40.2538C19.0145 40.3654 19.2131 40.3389 19.3133 40.199L22.558 35.6232L23.2802 36.2321C23.4127 36.3436 23.615 36.3172 23.7133 36.1734L26.8634 31.6032C26.0087 31.0815 25.2316 30.4442 24.551 29.7162ZM22.9645 42.7819C22.8019 42.7232 22.7262 42.538 22.7981 42.381L27.5631 31.9852C28.4404 32.4334 29.3858 32.768 30.3804 32.9646L28.983 38.3384C28.9395 38.5067 28.76 38.6013 28.5973 38.5408L27.7105 38.2155L26.2243 43.6252C26.1789 43.7916 26.0011 43.8823 25.8386 43.8238L22.9626 42.7782L22.9645 42.7819ZM31.1708 33.0913L30.2481 44.4912C30.2348 44.6633 30.369 44.8108 30.5411 44.8108H33.6005C33.7725 44.8108 33.9087 44.6633 33.8936 44.4912L33.4379 38.9H34.3814C34.5554 38.9019 34.6915 38.7525 34.6764 38.5786L34.1508 33.0517C33.6118 33.133 33.0597 33.1764 32.4982 33.1764C32.0481 33.1764 31.6057 33.1462 31.1689 33.0933L31.1708 33.0913ZM42.2038 2.23862C42.2757 2.08168 42.1981 1.89828 42.0374 1.83776L39.1615 0.792134C39.0008 0.733519 38.8211 0.824281 38.7758 0.990667L37.2895 6.40035L36.4028 6.07513C36.2401 6.01462 36.0605 6.10916 36.017 6.27745L34.6197 11.6512C35.6142 11.8478 36.5596 12.1825 37.437 12.6307L42.2038 2.23673V2.23862ZM48.4834 6.76906L40.4491 14.9072C39.7703 14.1773 38.9932 13.5401 38.1367 13.0183L41.2868 8.44812C41.3851 8.30631 41.5874 8.27795 41.7197 8.3914L42.4421 9.00024L45.6868 4.42443C45.787 4.28451 45.9855 4.25803 46.1179 4.3696L48.4626 6.33606C48.5949 6.44761 48.6043 6.64805 48.4834 6.76906ZM52.8342 13.1733C52.9911 13.0996 53.0497 12.9087 52.9628 12.7592L51.4312 10.1083C51.3442 9.9589 51.1494 9.91542 51.0076 10.0137L46.394 13.2036L45.9232 12.3848C45.8362 12.2335 45.6376 12.1901 45.4977 12.2922L40.971 15.5123C41.5931 16.2856 42.1131 17.1441 42.5064 18.0706L52.8342 13.1733ZM54.4641 17.3218L54.9954 20.3358C55.0257 20.5078 54.9027 20.6667 54.7326 20.6818L43.3497 21.7502C43.2986 20.7291 43.1039 19.7477 42.7881 18.8194L48.1411 17.3426C48.3075 17.2953 48.4796 17.405 48.5098 17.5752L48.6705 18.5036L54.0972 17.0855C54.2636 17.0419 54.4319 17.1497 54.4621 17.3199L54.4641 17.3218ZM53.9498 28.3851C54.1162 28.4285 54.2845 28.3208 54.3147 28.1507L54.8441 25.1367C54.8744 24.9665 54.7515 24.8077 54.5813 24.7906L48.9976 24.2669L49.164 23.3384C49.1942 23.1664 49.0714 23.0076 48.8975 22.9924L43.3591 22.5481C43.3364 23.5729 43.1757 24.5599 42.8902 25.4959L53.9517 28.3832L53.9498 28.3851ZM51.0038 35.262C50.9169 35.4096 50.7221 35.4531 50.5802 35.3566L41.1714 28.8578C41.7689 28.0674 42.2587 27.192 42.6236 26.2522L47.6741 28.5628C47.8329 28.6347 47.8952 28.8294 47.8064 28.9788L47.3318 29.7956L52.4011 32.1989C52.5562 32.2727 52.6167 32.4636 52.5297 32.6129L51 35.264L51.0038 35.262ZM38.4109 31.4293L45.0287 40.7549C45.1289 40.8949 45.3256 40.9213 45.4599 40.8098L47.8027 38.8414C47.935 38.7299 47.9444 38.5294 47.8235 38.4084L43.883 34.4168L44.6071 33.8118C44.7395 33.7002 44.7489 33.4979 44.6242 33.3769L40.6665 29.478C40.0086 30.2268 39.2503 30.8847 38.4109 31.4312V31.4293ZM38.3541 44.1263C38.1934 44.1849 38.0138 44.0941 37.9684 43.9278L34.9392 32.9004C35.9281 32.6734 36.8641 32.3142 37.7282 31.8396L40.1107 36.8541C40.1863 37.0111 40.1087 37.2002 39.9443 37.2588L39.0555 37.5803L41.3946 42.6798C41.4665 42.8367 41.3889 43.0201 41.2282 43.0806L38.3521 44.1282L38.3541 44.1263Z" fill="#007DC1"/>
</g>
<defs>
<clipPath id="clip0_3931_2809">
<rect width="65" height="45" fill="white"/>
</clipPath>
</defs>
</svg>
