<svg width="65" height="45" viewBox="0 0 65 45" fill="none" xmlns="http://www.w3.org/2000/svg">
<path fill-rule="evenodd" clip-rule="evenodd" d="M32.895 0C45.2014 0 51.3889 6.58452 51.3889 6.58452C51.3889 6.58452 52.0966 11.4581 51.645 21.2717C50.9627 36.0964 32.8994 44.9992 32.8978 45C32.8962 45.0008 14.8329 36.0964 14.1507 21.2717C13.699 11.4581 14.4067 6.58452 14.4067 6.58452C14.4067 6.58452 20.5886 0 32.895 0Z" fill="#ED2E26"/>
<path fill-rule="evenodd" clip-rule="evenodd" d="M23.6612 19.4867C23.6612 14.2451 27.8051 9.98091 32.8985 9.98091C37.9963 9.98091 42.1435 14.128 42.1435 19.2254C42.1435 23.2953 38.6451 26.6431 35.9488 28.364C36.9951 28.9606 39.3034 29.5871 41.5134 29.7898C44.741 27.2919 46.7092 23.4311 46.7092 19.2254C46.7092 11.6102 40.5138 5.41479 32.8985 5.41479C25.2833 5.41479 19.0879 11.6102 19.0879 19.2254C19.0879 23.825 21.0031 27.9108 24.6258 31.0416C28.013 33.9688 32.9678 35.9223 38.6093 36.8475C39.8315 36.172 41.9216 34.1779 42.7058 33.0106C37.9939 32.4048 33.535 31.2558 30.546 29.6879C25.9779 27.2915 23.6612 23.8593 23.6612 19.4867Z" fill="white"/>
</svg>
