<svg width="65" height="45" viewBox="0 0 65 45" fill="none" xmlns="http://www.w3.org/2000/svg">
<path d="M19.5341 24.946C19.5847 25.0471 19.7363 25.0471 19.7363 24.946L23.2755 15.7441C23.4272 15.2891 23.8822 15.0363 24.3373 15.0363H27.6237C28.2304 15.0363 28.7865 15.5419 28.7865 16.1486C28.7865 16.3003 28.7865 16.4014 28.736 16.5531L20.7475 38.041C20.7475 38.0916 20.4947 38.2938 20.2925 38.4455C20.2419 38.496 20.1408 38.496 20.0397 38.496C19.7363 38.3949 19.433 38.1421 19.3319 37.8388L15.0848 27.5751C14.9332 27.2718 14.5792 27.1201 14.2759 27.2718C14.1748 27.3223 14.0231 27.4234 13.9725 27.5751L8.61317 38.2432C8.56261 38.2938 8.51205 38.3444 8.46149 38.2938C8.41093 38.2938 8.41094 38.2432 8.41094 38.2432L0.068566 16.5025C-0.133673 15.8958 0.119126 15.2385 0.725844 15.0363C0.877523 14.9857 0.978643 14.9352 1.13032 14.9352H4.72007C5.17511 14.9352 5.63015 15.2385 5.78182 15.643L9.32101 24.8955C9.37157 24.9966 9.52325 24.9966 9.52325 24.8955L13.9725 15.2385C14.1242 14.9352 14.4781 14.7835 14.7815 14.9352C14.9332 14.9857 15.0343 15.0868 15.0848 15.2385L19.5341 24.946ZM60.1336 6.23888C60.0831 6.0872 59.8303 6.0872 59.7797 6.23888C59.5775 7.25008 59.1224 8.76687 58.3135 9.57583C57.5045 10.3848 55.9877 10.8398 54.9765 11.0421C54.8248 11.0926 54.8248 11.3454 54.9765 11.396C55.9877 11.5982 57.5045 12.0533 58.3135 12.8622C59.3752 13.924 59.7291 15.3902 59.8808 16.2497C59.8808 16.3003 60.0831 16.3003 60.0831 16.2497C60.2853 15.3396 60.6898 13.7217 61.5493 12.8622C62.3583 12.0533 63.875 11.5982 64.8862 11.396C65.0379 11.3454 65.0379 11.0926 64.8862 11.0421C63.875 10.8398 62.3583 10.3848 61.5493 9.57583C60.7909 8.76687 60.3359 7.25008 60.1336 6.23888ZM30.0505 16.2497C30.0505 15.643 30.5561 15.0868 31.2134 15.0868H34.6515C35.2582 15.0868 35.8144 15.5924 35.8144 16.2497V37.3332C35.8144 37.9399 35.3088 38.496 34.6515 38.496H31.2134C30.6067 38.496 30.0505 37.9904 30.0505 37.3332V16.2497ZM45.7241 21.1035C45.7746 20.9518 45.7241 20.7495 45.5724 20.699C45.5218 20.699 45.4713 20.6484 45.4207 20.6484H38.6457C38.039 20.6484 37.4828 20.1428 37.4828 19.4856V16.2497C37.4828 15.643 37.9884 15.0868 38.6457 15.0868H54.3698C54.8754 15.0868 55.5327 15.4913 55.2799 15.8958L46.1791 32.8839C46.078 33.0356 46.1791 33.2378 46.3308 33.2884C46.3814 33.2884 46.4319 33.3389 46.4825 33.3389H54.7743C55.381 33.3389 55.9372 33.8445 55.9372 34.5018V37.3332C55.9372 37.9399 55.4316 38.496 54.7743 38.496H38.0895C37.5334 38.496 37.4323 37.6871 37.6851 37.1815L45.7241 21.1035Z" fill="#0254EC"/>
</svg>
