<svg width="65" height="45" viewBox="0 0 65 45" fill="none" xmlns="http://www.w3.org/2000/svg">
<g clip-path="url(#clip0_3931_2775)">
<path d="M64.8687 22.8526C65.9254 29.2513 60.3265 32.856 54.6559 33.2716C51.0455 40.6373 38.3322 45.6082 27.2962 40.2526C22.5758 40.9603 19.9914 39.7896 17.9947 37.5573C22.029 32.4054 34.2385 23.1345 49.1553 27.9201C57.1175 30.4735 59.1817 24.4718 57.1851 22.221C49.6714 13.7504 32.7128 21.3753 32.0985 22.0111C38.7623 11.8925 62.5956 9.05319 64.8687 22.8547M42.0266 11.2259C42.0676 11.2115 36.61 9.30009 28.9754 12.5715C28.6683 12.4562 28.3693 12.3287 28.0744 12.1847C35.416 7.3455 41.8525 5.29215 47.3552 6.08839C44.0213 2.28414 28.0109 -0.51401 18.8384 8.60673C7.49723 6.39084 -0.434228 15.9292 0.0163068 24.6385C0.466841 33.3477 10.0407 38.7712 15.4983 37.3022C15.6294 37.2837 15.7604 37.2837 15.8915 37.3022C17.0998 31.5454 22.0352 18.1534 42.0266 11.2259Z" fill="#256CF7"/>
</g>
<defs>
<clipPath id="clip0_3931_2775">
<rect width="65" height="45" fill="white"/>
</clipPath>
</defs>
</svg>
