<svg width="262" height="262" viewBox="0 0 262 262" fill="none" xmlns="http://www.w3.org/2000/svg">
<path d="M244.645 25.6596H214.633C214.068 11.4154 202.304 0 187.916 0H74.7795C60.3997 0 48.6419 11.4154 48.0775 25.6596H18.0514C10.8551 25.6596 5 31.5142 5 38.711V199.124C5 206.32 10.8546 212.175 18.0514 212.175H84.3988V231.081H59.8537C51.3295 231.081 44.3947 238.017 44.3947 246.541V256.883C44.3947 259.709 46.6856 262 49.5119 262H213.198C216.024 262 218.315 259.709 218.315 256.883V246.541C218.315 238.017 211.38 231.081 202.856 231.081H178.297V212.175H244.645C251.849 212.175 257.71 206.32 257.71 199.124V38.711C257.71 31.5142 251.849 25.6596 244.645 25.6596ZM58.2848 26.7296C58.2848 17.6343 65.6842 10.2344 74.7795 10.2344H187.916C197.02 10.2344 204.426 17.6343 204.426 26.7296V139.87C204.426 148.973 197.02 156.38 187.916 156.38H74.7795C65.6842 156.38 58.2848 148.973 58.2848 139.87V26.7296ZM208.081 246.541V251.766H54.629V246.541C54.629 243.66 56.9727 241.316 59.8537 241.316H202.856C205.737 241.316 208.081 243.659 208.081 246.541ZM168.062 231.081H94.6332V212.175H168.062V231.081ZM244.645 201.941H18.0514C16.5244 201.941 15.2344 200.651 15.2344 199.124V189.402H108.372C111.199 189.402 113.489 187.111 113.489 184.285C113.489 181.459 111.199 179.168 108.372 179.168H15.2344V38.711C15.2344 37.184 16.5244 35.894 18.0514 35.894H48.0504V139.87C48.0504 154.616 60.041 166.614 74.7795 166.614H187.916C202.663 166.614 214.66 154.617 214.66 139.87V35.894H244.645C246.18 35.894 247.476 37.184 247.476 38.711V179.168H154.324C151.497 179.168 149.206 181.459 149.206 184.285C149.206 187.111 151.497 189.402 154.324 189.402H247.476V199.124C247.476 200.651 246.179 201.941 244.645 201.941Z" fill="#8E0000"/>
<path d="M87.3591 55.1396C86.0962 56.094 85.3281 57.6389 85.3281 59.2211V107.393C85.3281 109.187 86.2682 110.851 87.8054 111.777L128.709 136.406C130.31 137.371 132.387 137.371 133.988 136.406L174.891 111.777C176.428 110.851 177.368 109.187 177.368 107.393V59.2211C177.368 57.4516 176.406 55.7496 174.891 54.8372L133.988 30.2072C132.364 29.2293 130.332 29.2293 128.709 30.2072L87.8054 54.8372C87.6498 54.9314 87.5014 55.0327 87.3591 55.1396ZM95.5625 68.2785L126.231 86.7567V122.968L95.5625 104.501V68.2785ZM167.135 104.501L136.466 122.968V86.7567L167.135 68.2785V104.501ZM131.349 40.5644L162.334 59.2227L131.349 77.8912L100.363 59.2227L131.349 40.5644Z" fill="#8E0000"/>
<path d="M75.375 49.007C78.2012 49.007 80.4922 46.716 80.4922 43.8898V32.4417H91.9393C94.7656 32.4417 97.0565 30.1507 97.0565 27.3245C97.0565 24.4982 94.7656 22.2073 91.9393 22.2073H75.375C72.5488 22.2073 70.2578 24.4982 70.2578 27.3245V43.8893C70.2578 46.716 72.5488 49.007 75.375 49.007Z" fill="#8E0000"/>
<path d="M170.758 32.4417H182.205V43.8893C182.205 46.7155 184.496 49.0065 187.322 49.0065C190.148 49.0065 192.439 46.7155 192.439 43.8893V27.3245C192.439 24.4982 190.148 22.2073 187.322 22.2073H170.758C167.932 22.2073 165.641 24.4982 165.641 27.3245C165.641 30.1507 167.932 32.4417 170.758 32.4417Z" fill="#8E0000"/>
<path d="M187.322 117.593C184.496 117.593 182.205 119.884 182.205 122.71V134.158H170.758C167.932 134.158 165.641 136.449 165.641 139.275C165.641 142.101 167.932 144.392 170.758 144.392H187.322C190.148 144.392 192.439 142.101 192.439 139.275V122.71C192.439 119.884 190.148 117.593 187.322 117.593Z" fill="#8E0000"/>
<path d="M75.375 144.392H91.9393C94.7656 144.392 97.0565 142.101 97.0565 139.275C97.0565 136.449 94.7656 134.158 91.9393 134.158H80.4922V122.71C80.4922 119.884 78.2012 117.593 75.375 117.593C72.5488 117.593 70.2578 119.884 70.2578 122.71V139.275C70.2578 142.101 72.5488 144.392 75.375 144.392Z" fill="#8E0000"/>
<path d="M131.348 179.167C128.521 179.167 126.23 181.458 126.23 184.285C126.23 187.111 128.521 189.402 131.348 189.402H131.377C134.203 189.402 136.48 187.111 136.48 184.285C136.48 181.458 134.174 179.167 131.348 179.167Z" fill="#8E0000"/>
</svg>
