<svg width="281" height="262" viewBox="0 0 281 262" fill="none" xmlns="http://www.w3.org/2000/svg">
<g opacity="0.9">
<path d="M273.685 220.375L238.858 185.548C236.715 183.407 233.243 183.407 231.1 185.548L230.229 186.419L218.43 174.621C227.841 155.015 224.444 130.753 208.217 114.524C202.11 108.417 194.861 104.141 187.154 101.665V84.6818C187.154 81.6529 184.698 79.1966 181.669 79.1966C178.64 79.1966 176.184 81.6529 176.184 84.6818V99.3432C160.555 97.7564 144.806 103.425 133.705 114.521C113.16 135.066 113.16 168.494 133.705 189.039C144.81 200.144 160.549 205.807 176.184 204.22V227.231C176.184 230.528 173.502 233.209 170.206 233.209H16.9493C13.6527 233.209 10.9715 230.527 10.9715 227.231V16.9488C10.9715 13.6521 13.6532 10.9704 16.9493 10.9704H170.206C173.503 10.9704 176.184 13.6527 176.184 16.9488V36.3873C176.184 39.4162 178.64 41.8725 181.669 41.8725C184.698 41.8725 187.154 39.4162 187.154 36.3873V16.9488C187.154 7.60305 179.551 2.96757e-08 170.206 2.96757e-08H16.9493C7.60305 -0.000548492 0 7.60305 0 16.9488V227.231C0 236.576 7.60305 244.179 16.9482 244.179H170.205C179.55 244.179 187.153 236.576 187.153 227.231V201.896C189.264 201.217 191.343 200.413 193.371 199.462L205.278 211.369L204.296 212.352C202.19 214.458 202.19 218.003 204.296 220.11L239.123 254.936C248.541 264.354 264.265 264.355 273.684 254.936C283.213 245.408 283.213 229.904 273.685 220.375ZM205.872 174.62C202.414 179.897 197.739 184.386 192.319 187.617C176.139 197.285 154.777 194.596 141.463 181.279C125.197 165.013 125.197 138.547 141.463 122.281C157.52 106.223 184.407 106.228 200.46 122.281C214.657 136.479 216.46 158.446 205.872 174.62ZM203.018 193.594C206.551 190.879 209.748 187.708 212.495 184.2L222.471 194.177L213.036 203.612L203.018 193.594ZM265.928 247.178C260.74 252.367 252.07 252.368 246.882 247.178L215.933 216.23L234.979 197.184L265.928 228.132C271.179 233.384 271.179 241.928 265.928 247.178Z" fill="#8E0000"/>
<path d="M71.271 44.6727C71.271 41.6438 68.8148 39.1875 65.7858 39.1875H35.0204C31.9914 39.1875 29.5352 41.6438 29.5352 44.6727V75.4387C29.5352 78.4676 31.9914 80.9239 35.0204 80.9239H65.7858C68.8148 80.9239 71.271 78.4676 71.271 75.4387V44.6727ZM60.3006 69.9535H40.5056V50.1579H60.3006V69.9535Z" fill="#8E0000"/>
<path d="M71.271 106.706C71.271 103.677 68.8148 101.221 65.7858 101.221H35.0204C31.9914 101.221 29.5352 103.677 29.5352 106.706V137.471C29.5352 140.5 31.9914 142.957 35.0204 142.957H65.7858C68.8148 142.957 71.271 140.5 71.271 137.471V106.706ZM60.3006 131.986H40.5056V112.191H60.3006V131.986Z" fill="#8E0000"/>
<path d="M65.7858 163.252H35.0204C31.9914 163.252 29.5352 165.708 29.5352 168.737V199.503C29.5352 202.532 31.9914 204.988 35.0204 204.988H65.7858C68.8148 204.988 71.271 202.532 71.271 199.503V168.737C71.271 165.708 68.8148 163.252 65.7858 163.252ZM60.3006 194.018H40.5056V174.222H60.3006V194.018Z" fill="#8E0000"/>
<path d="M157.137 44.6727C157.137 41.6438 154.681 39.1875 151.652 39.1875H96.7235C93.6946 39.1875 91.2383 41.6438 91.2383 44.6727C91.2383 47.7016 93.6946 50.1579 96.7235 50.1579H151.652C154.681 50.1579 157.137 47.7022 157.137 44.6727Z" fill="#8E0000"/>
<path d="M140.279 68.0672C140.279 65.0383 137.823 62.582 134.794 62.582H96.7235C93.6946 62.582 91.2383 65.0383 91.2383 68.0672C91.2383 71.0962 93.6946 73.5525 96.7235 73.5525H134.794C137.823 73.5525 140.279 71.0962 140.279 68.0672Z" fill="#8E0000"/>
<path d="M125.087 106.927C125.087 103.898 122.631 101.441 119.602 101.441H96.7235C93.6946 101.441 91.2383 103.898 91.2383 106.927C91.2383 109.956 93.6946 112.412 96.7235 112.412H119.602C122.631 112.412 125.087 109.956 125.087 106.927Z" fill="#8E0000"/>
<path d="M101.992 124.825H96.7235C93.6946 124.825 91.2383 127.281 91.2383 130.31C91.2383 133.339 93.6946 135.796 96.7235 135.796H101.992C105.021 135.796 107.477 133.339 107.477 130.31C107.477 127.281 105.022 124.825 101.992 124.825Z" fill="#8E0000"/>
<path d="M96.7235 174.222H101.992C105.021 174.222 107.477 171.766 107.477 168.737C107.477 165.708 105.021 163.252 101.992 163.252H96.7235C93.6946 163.252 91.2383 165.708 91.2383 168.737C91.2383 171.766 93.694 174.222 96.7235 174.222Z" fill="#8E0000"/>
<path d="M96.7235 197.618H119.602C122.631 197.618 125.087 195.162 125.087 192.133C125.087 189.104 122.631 186.647 119.602 186.647H96.7235C93.6946 186.647 91.2383 189.104 91.2383 192.133C91.2383 195.162 93.694 197.618 96.7235 197.618Z" fill="#8E0000"/>
<path d="M153.642 149.918C151.499 147.776 148.027 147.776 145.884 149.918C143.742 152.06 143.742 155.533 145.884 157.675L158.968 170.76C160.04 171.831 161.443 172.366 162.847 172.366C164.251 172.366 165.654 171.831 166.725 170.76L193.464 144.021C195.606 141.879 195.606 138.406 193.464 136.263C191.322 134.122 187.85 134.122 185.706 136.263L162.846 159.124L153.642 149.918Z" fill="#8E0000"/>
<path d="M186.73 58.5117C185.599 55.7495 182.32 54.3985 179.567 55.5443C176.808 56.6929 175.458 59.9384 176.6 62.7022C177.742 65.4672 181.002 66.811 183.763 65.6696C186.519 64.5298 187.881 61.2707 186.73 58.5117Z" fill="#8E0000"/>
</g>
</svg>
