<svg width="262" height="262" viewBox="0 0 262 262" fill="none" xmlns="http://www.w3.org/2000/svg">
<g opacity="0.9">
<path d="M255.333 214.598L222.842 182.106C220.843 180.109 217.603 180.109 215.604 182.106L214.791 182.919L203.784 171.912C212.563 153.621 209.395 130.985 194.255 115.845C188.558 110.148 181.795 106.158 174.605 103.848V88.0035C174.605 85.1777 172.313 82.8861 169.487 82.8861C166.662 82.8861 164.37 85.1777 164.37 88.0035V101.682C149.79 100.201 135.096 105.49 124.739 115.842C105.573 135.009 105.573 166.196 124.739 185.363C135.1 195.724 149.784 201.007 164.37 199.527V220.994C164.37 224.07 161.868 226.571 158.793 226.571H15.8128C12.7372 226.571 10.2358 224.069 10.2358 220.994V24.8123C10.2358 21.7367 12.7377 19.2348 15.8128 19.2348H158.793C161.869 19.2348 164.37 21.7372 164.37 24.8123V42.9473C164.37 45.7732 166.662 48.0647 169.487 48.0647C172.313 48.0647 174.605 45.7732 174.605 42.9473V24.8123C174.605 16.0932 167.512 9 158.793 9H15.8128C7.09324 8.99949 0 16.0932 0 24.8123V220.994C0 229.713 7.09324 236.806 15.8118 236.806H158.792C167.511 236.806 174.604 229.713 174.604 220.994V197.358C176.574 196.725 178.513 195.975 180.404 195.087L191.513 206.196L190.597 207.113C188.633 209.078 188.632 212.385 190.597 214.35L223.089 246.842C231.875 255.628 246.545 255.629 255.332 246.842C264.222 237.952 264.222 223.488 255.333 214.598ZM192.067 171.911C188.841 176.834 184.479 181.022 179.423 184.036C164.328 193.056 144.399 190.547 131.977 178.123C116.802 162.948 116.802 138.257 131.977 123.082C146.958 108.101 172.042 108.105 187.018 123.082C200.264 136.328 201.945 156.822 192.067 171.911ZM189.405 189.613C192.701 187.08 195.683 184.121 198.246 180.849L207.554 190.156L198.751 198.959L189.405 189.613ZM248.096 239.604C243.256 244.445 235.168 244.446 230.327 239.604L201.454 210.731L219.223 192.962L248.096 221.835C252.995 226.734 252.995 234.706 248.096 239.604Z" fill="#8E0000"/>
<path d="M66.492 50.677C66.492 47.8511 64.2004 45.5596 61.3746 45.5596H32.6721C29.8463 45.5596 27.5547 47.8511 27.5547 50.677V79.38C27.5547 82.2058 29.8463 84.4974 32.6721 84.4974H61.3746C64.2004 84.4974 66.492 82.2058 66.492 79.38V50.677ZM56.2572 74.2626H37.7895V55.7944H56.2572V74.2626Z" fill="#8E0000"/>
<path d="M66.492 108.551C66.492 105.725 64.2004 103.433 61.3746 103.433H32.6721C29.8463 103.433 27.5547 105.725 27.5547 108.551V137.253C27.5547 140.079 29.8463 142.37 32.6721 142.37H61.3746C64.2004 142.37 66.492 140.079 66.492 137.253V108.551ZM56.2572 132.136H37.7895V113.668H56.2572V132.136Z" fill="#8E0000"/>
<path d="M61.3746 161.306H32.6721C29.8463 161.306 27.5547 163.597 27.5547 166.423V195.126C27.5547 197.952 29.8463 200.243 32.6721 200.243H61.3746C64.2004 200.243 66.492 197.952 66.492 195.126V166.423C66.492 163.597 64.2004 161.306 61.3746 161.306ZM56.2572 190.009H37.7895V171.54H56.2572V190.009Z" fill="#8E0000"/>
<path d="M146.601 50.677C146.601 47.8511 144.31 45.5596 141.484 45.5596H90.2385C87.4127 45.5596 85.1211 47.8511 85.1211 50.677C85.1211 53.5028 87.4127 55.7944 90.2385 55.7944H141.484C144.31 55.7944 146.601 53.5033 146.601 50.677Z" fill="#8E0000"/>
<path d="M130.873 72.5027C130.873 69.6768 128.582 67.3853 125.756 67.3853H90.2385C87.4127 67.3853 85.1211 69.6768 85.1211 72.5027C85.1211 75.3285 87.4127 77.6201 90.2385 77.6201H125.756C128.582 77.6201 130.873 75.3285 130.873 72.5027Z" fill="#8E0000"/>
<path d="M116.7 108.757C116.7 105.931 114.409 103.64 111.583 103.64H90.2385C87.4127 103.64 85.1211 105.931 85.1211 108.757C85.1211 111.583 87.4127 113.875 90.2385 113.875H111.583C114.409 113.875 116.7 111.583 116.7 108.757Z" fill="#8E0000"/>
<path d="M95.1538 125.455H90.2385C87.4127 125.455 85.1211 127.746 85.1211 130.572C85.1211 133.398 87.4127 135.69 90.2385 135.69H95.1538C97.9796 135.69 100.271 133.398 100.271 130.572C100.271 127.746 97.9801 125.455 95.1538 125.455Z" fill="#8E0000"/>
<path d="M90.2385 171.54H95.1538C97.9796 171.54 100.271 169.249 100.271 166.423C100.271 163.597 97.9796 161.306 95.1538 161.306H90.2385C87.4127 161.306 85.1211 163.597 85.1211 166.423C85.1211 169.249 87.4122 171.54 90.2385 171.54Z" fill="#8E0000"/>
<path d="M90.2385 193.367H111.583C114.409 193.367 116.7 191.076 116.7 188.25C116.7 185.424 114.409 183.132 111.583 183.132H90.2385C87.4127 183.132 85.1211 185.424 85.1211 188.25C85.1211 191.076 87.4122 193.367 90.2385 193.367Z" fill="#8E0000"/>
<path d="M143.34 148.865C141.341 146.867 138.102 146.867 136.102 148.865C134.104 150.863 134.104 154.103 136.102 156.102L148.309 168.309C149.309 169.308 150.618 169.808 151.928 169.808C153.237 169.808 154.547 169.308 155.546 168.309L180.492 143.363C182.491 141.365 182.491 138.125 180.492 136.126C178.493 134.128 175.254 134.128 173.255 136.126L151.927 157.454L143.34 148.865Z" fill="#8E0000"/>
<path d="M174.209 63.5881C173.154 61.011 170.095 59.7507 167.526 60.8197C164.952 61.8912 163.693 64.919 164.758 67.4976C165.823 70.0772 168.866 71.3309 171.441 70.266C174.012 69.2026 175.283 66.162 174.209 63.5881Z" fill="#8E0000"/>
</g>
</svg>
