<svg width="424" height="382" viewBox="0 0 424 382" fill="none" xmlns="http://www.w3.org/2000/svg">
<path d="M246.786 68.3737C249.762 69.2908 256.375 70.8837 259.046 71.8812C266.174 74.536 276.455 87.9226 281.797 87.633C289.166 87.1342 292.577 69.0494 293.253 62.0826C293.993 54.6009 294.089 40.0559 295.167 32.6225C295.57 29.8229 297.34 24.9155 299.045 20.2495C301.523 13.4758 303.518 6.54114 306.285 7.02383C312.464 7.66741 309.97 20.3461 318.288 36.0174C320.042 39.5088 317.516 46.3308 319.801 48.503C321.522 50.1441 327.089 48.1329 329.31 49.0017C334.185 51.1256 336.598 55.8881 337.306 59.0095C338.931 63.2572 334.812 69.3873 336.309 74.005C337.033 76.5633 342.021 79.6847 343.308 82.0016C345.641 86.2171 344.016 96.788 346.3 101.003C350.403 108.566 366.638 113.763 372.559 120.005C374.634 122.194 377.707 129.016 378.061 132.008C378.383 134.743 376.597 140.858 378.319 143.014C380.668 145.958 390.434 142.209 393.073 144.896C394.151 146.022 392.735 151.155 392.993 153.198C400.571 164.027 413.33 169.787 419.669 186.536C422.71 193.068 422.871 208.338 422.34 215.369C421.664 224.17 420.168 242.544 415.84 250.042C411.174 258.28 399.042 272.986 394.087 281.047C390.837 286.051 385.672 300.628 386.09 307.434C386.171 311.971 386.83 319.404 378.769 320.563C375.053 321.094 367.217 320.499 363.79 322.059C359.526 323.99 355.809 331.327 351.562 333.306C349.068 334.48 342.568 334.85 340.058 333.048C337.628 331.311 333.413 327.16 326.43 328.045C322.632 328.881 322.552 331.665 319.302 333.048C317.918 333.628 314.652 333.708 313.3 333.048C309.165 331.021 303.003 328.157 295.296 329.042C292.207 329.396 290.501 325.712 286.881 325.293C284.291 324.988 278.965 321.046 278.965 316.54C278.965 316.54 278.064 309.413 277.791 307.031C276.536 299.035 268.04 297.024 262.538 296.284C260.655 296.155 260.398 293.983 260.543 293.033C260.961 290.186 262.924 282.093 260.8 281.529C257.469 281.497 256.617 290.717 252.305 291.779C250.615 292.084 247.124 291.344 247.8 289.285C250.116 283.83 258.113 268.465 256.552 267.274C255.088 266.614 246.561 274.804 240.865 281.159C237.824 284.554 236.167 287.965 235.555 288.03C233.496 288.223 231.05 280.29 226.304 273.839C223.971 270.669 219.964 268.835 218.307 266.518C216.811 264.523 218.468 260.516 217.31 258.441C216.344 256.558 211.147 256.092 205.049 256.027C202.909 255.995 198.517 255.85 196.554 255.03C194.607 254.225 191.437 250.686 189.362 249.849C184.953 248.031 175.493 247.805 171.1 249.656C169.121 250.444 166.032 251.619 162.09 251.844C157.15 252.504 149.83 257.717 144.021 259.036C142.026 259.261 138.149 257.121 137.521 256.784C136.202 256.059 132.807 256.253 131.52 257.041C127.883 259.245 126.387 261.482 116.508 265.037C112.952 266.614 109.461 273.613 106.001 276.542C103.749 278.537 93.5963 278.408 91.3115 277.04C90.6519 276.654 87.4822 275.399 86.7421 275.158C72.8567 271.216 62.9294 283.814 50.2347 289.043C45.8422 290.845 35.6574 290.765 31.2328 289.043C27.0173 287.402 18.4898 282.591 16.4786 278.537C15.9476 277.475 15.4488 274.675 16.2211 273.79C17.1865 272.68 21.6272 272.326 22.48 271.119C25.0383 267.467 24.99 261.208 24.8934 256.864C24.7004 248.336 20.1148 244.571 18.0553 241.949C17.3313 241.032 18.3611 238.264 17.7175 237.283C17.2831 236.623 16.3016 236.478 15.8028 235.867C14.3869 234.194 16.0763 225.618 15.0466 222.191C13.4215 216.769 8.659 208.032 4.79749 198.684C3.49423 195.546 2.30359 192.972 4.13781 189.77C4.91011 188.402 6.63171 188.258 7.38792 187.019C8.3533 185.442 8.6429 181.693 7.72579 180.261C5.93984 177.51 0.726811 172.345 0.228031 169.513C-0.1903 167.18 0.0188492 162.772 0.43718 161.179C0.855511 159.57 1.85307 158.363 2.31967 157.591C3.84818 155 1.61174 151.139 2.23924 142C2.25533 140.246 4.25043 133.537 9.81745 141.919C13.9847 143.995 16.8165 125.251 44.7481 122.998C49.2693 122.274 55.5282 117.705 59.8724 116.24C62.7363 115.275 70.6846 115.323 73.2429 113.746C74.4335 113.006 74.7553 110.802 75.9942 110.126C77.0883 109.515 81.7221 109.724 82.7519 109C87.08 107.005 84.5861 99.1693 91.2472 95.002C95.2535 91.4945 93.9342 85.7344 94.4169 82.9992C94.8352 80.634 95.9132 76.4989 98.745 76.4989C101.577 76.4989 102.671 79.6364 103.25 81.5028C103.556 82.4521 104.376 84.6242 105.084 85.3322C105.712 85.9597 107.643 85.7988 108.174 85.0747C110.088 82.4521 107.095 76.2898 109.091 73.9085C110.265 72.5087 114.03 73.9568 115.253 72.9914C116.975 71.6399 115.591 64.8179 117.168 62.7423C118.294 61.2781 122.928 62.694 124.167 61.3264C125.615 59.7174 124.247 54.3757 125.663 52.7345C126.902 51.3186 130.297 52.9276 131.745 52.4771C135.156 51.7209 137.907 46.6365 138.744 45.5585C140.079 43.8852 140.578 42.228 145.743 43.306C149.508 44.915 152.79 52.5575 156.072 54.4722C158.985 55.9686 161.189 54.2148 163.908 55.1319C167.448 56.3386 170.907 56.5478 170.408 52.638C169.105 49.1787 169.829 43.4669 176.361 39.0905C177.987 37.4655 176.876 33.7487 177.327 32.0432C178.035 29.2758 181.88 25.2695 184.615 24.465C187.994 23.4514 195.299 24.9155 198.742 24.1271C200.48 23.7249 201.735 23.9019 196.747 17.289C195.637 15.8088 195.219 9.05113 203.408 14.1194C218.5 23.2905 221.831 20.9575 234.252 23.4514C236.086 24.1593 235.7 27.6508 242.088 23.1135C246.593 20.3622 251.999 26.3636 245.917 32.2846C245.917 32.2846 239.288 37.0471 238.242 39.4445C237.39 41.3913 238.87 45.9125 238.242 47.9398C237.502 50.3372 233.238 52.1875 233.11 54.6975C232.917 58.8325 240.994 67.4566 246.738 68.3254L246.786 68.3737Z" fill="#5C0003"/>
<path d="M247.466 61.3737C250.442 62.2908 257.055 63.8837 259.726 64.8812C266.854 67.536 277.135 80.9226 282.477 80.633C289.846 80.1342 293.257 62.0494 293.932 55.0826C294.673 47.6009 294.769 33.0559 295.847 25.6225C296.249 22.8229 298.019 17.9155 299.725 13.2495C302.203 6.47578 304.198 -0.458863 306.965 0.0238264C313.144 0.667413 310.65 13.3461 318.968 29.0174C320.722 32.5088 318.196 39.3308 320.48 41.503C322.202 43.1441 327.769 41.1329 329.989 42.0017C334.865 44.1256 337.278 48.8881 337.986 52.0095C339.611 56.2572 335.492 62.3873 336.988 67.005C337.712 69.5633 342.7 72.6847 343.987 75.0016C346.32 79.2171 344.695 89.788 346.98 94.0035C351.083 101.566 367.317 106.763 373.238 113.005C375.314 115.194 378.387 122.016 378.741 125.008C379.063 127.743 377.277 133.858 378.998 136.014C381.348 138.958 391.114 135.209 393.753 137.896C394.831 139.022 393.415 144.155 393.672 146.198C401.25 157.027 414.01 162.787 420.349 179.536C423.39 186.068 423.551 201.338 423.02 208.369C422.344 217.17 420.848 235.544 416.52 243.042C411.854 251.28 399.722 265.986 394.766 274.047C391.516 279.051 386.351 293.628 386.77 300.434C386.85 304.971 387.51 312.404 379.449 313.563C375.732 314.094 367.897 313.499 364.47 315.059C360.206 316.99 356.489 324.327 352.241 326.306C349.747 327.48 343.247 327.85 340.737 326.048C338.308 324.311 334.092 320.16 327.109 321.045C323.312 321.881 323.232 324.665 319.982 326.048C318.598 326.628 315.332 326.708 313.98 326.048C309.845 324.021 303.683 321.157 295.976 322.042C292.887 322.396 291.181 318.712 287.561 318.293C284.971 317.988 279.645 314.046 279.645 309.54C279.645 309.54 278.744 302.413 278.47 300.031C277.215 292.035 268.72 290.024 263.217 289.284C261.335 289.155 261.077 286.983 261.222 286.033C261.641 283.186 263.603 275.093 261.48 274.529C258.149 274.497 257.296 283.717 252.984 284.779C251.295 285.084 247.803 284.344 248.479 282.285C250.796 276.83 258.793 261.465 257.232 260.274C255.768 259.614 247.24 267.804 241.545 274.159C238.504 277.554 236.846 280.965 236.235 281.03C234.175 281.223 231.73 273.29 226.983 266.839C224.65 263.669 220.644 261.835 218.987 259.518C217.491 257.523 219.148 253.516 217.989 251.441C217.024 249.558 211.827 249.092 205.729 249.027C203.589 248.995 199.197 248.85 197.234 248.03C195.287 247.225 192.117 243.686 190.042 242.849C185.633 241.031 176.172 240.805 171.78 242.656C169.801 243.444 166.712 244.619 162.77 244.844C157.83 245.504 150.509 250.717 144.701 252.036C142.706 252.261 138.828 250.121 138.201 249.784C136.881 249.059 133.486 249.253 132.199 250.041C128.563 252.245 127.067 254.482 117.188 258.037C113.632 259.614 110.14 266.613 106.681 269.542C104.429 271.537 94.276 271.408 91.9912 270.04C91.3315 269.654 88.1619 268.399 87.4218 268.158C73.5364 264.216 63.6091 276.814 50.9143 282.043C46.5219 283.845 36.3371 283.765 31.9125 282.043C27.697 280.402 19.1695 275.591 17.1583 271.537C16.6273 270.475 16.1285 267.675 16.9008 266.79C17.8662 265.68 22.3069 265.326 23.1597 264.119C25.7179 260.467 25.6697 254.208 25.5731 249.864C25.3801 241.336 20.7945 237.571 18.735 234.949C18.011 234.032 19.0408 231.264 18.3972 230.283C17.9627 229.623 16.9813 229.478 16.4825 228.867C15.0666 227.194 16.756 218.618 15.7263 215.191C14.1012 209.769 9.33869 201.032 5.47717 191.684C4.17391 188.546 2.98327 185.972 4.81749 182.77C5.5898 181.402 7.3114 181.258 8.06761 180.019C9.03299 178.442 9.32259 174.693 8.40548 173.261C6.61953 170.51 1.4065 165.345 0.907719 162.513C0.489388 160.18 0.698537 155.772 1.11687 154.179C1.5352 152.57 2.53275 151.363 2.99935 150.591C4.52787 148 2.29143 144.139 2.91893 135C2.93502 133.246 4.93012 126.537 10.4971 134.919C14.6644 136.995 17.4961 118.251 45.4278 115.998C49.949 115.274 56.2078 110.705 60.5521 109.24C63.416 108.275 71.3643 108.323 73.9225 106.746C75.1132 106.006 75.435 103.802 76.6739 103.126C77.768 102.515 82.4018 102.724 83.4315 102C87.7597 100.005 85.2658 92.1693 91.9269 88.002C95.9332 84.4945 94.6138 78.7344 95.0965 75.9992C95.5149 73.634 96.5929 69.4989 99.4247 69.4989C102.256 69.4989 103.351 72.6364 103.93 74.5028C104.235 75.4521 105.056 77.6242 105.764 78.3322C106.391 78.9597 108.322 78.7988 108.853 78.0747C110.768 75.4521 107.775 69.2898 109.77 66.9085C110.945 65.5087 114.71 66.9568 115.933 65.9914C117.654 64.6399 116.271 57.8179 117.847 55.7423C118.974 54.2781 123.607 55.694 124.846 54.3264C126.294 52.7174 124.927 47.3757 126.343 45.7345C127.582 44.3186 130.976 45.9276 132.425 45.4771C135.836 44.7209 138.587 39.6365 139.424 38.5585C140.759 36.8852 141.258 35.228 146.423 36.306C150.188 37.915 153.47 45.5575 156.752 47.4722C159.664 48.9686 161.869 47.2148 164.588 48.1319C168.127 49.3386 171.587 49.5478 171.088 45.638C169.785 42.1787 170.509 36.4669 177.041 32.0905C178.666 30.4655 177.556 26.7487 178.007 25.0432C178.714 22.2758 182.56 18.2695 185.295 17.465C188.674 16.4514 195.979 17.9155 199.422 17.1271C201.16 16.7249 202.415 16.9019 197.427 10.289C196.317 8.80878 195.898 2.05113 204.088 7.11937C219.18 16.2905 222.51 13.9575 234.932 16.4514C236.766 17.1593 236.38 20.6508 242.767 16.1135C247.273 13.3622 252.679 19.3636 246.597 25.2846C246.597 25.2846 239.968 30.0471 238.922 32.4445C238.069 34.3913 239.549 38.9125 238.922 40.9398C238.182 43.3372 233.918 45.1875 233.789 47.6975C233.596 51.8325 241.673 60.4566 247.417 61.3254L247.466 61.3737Z" fill="url(#paint0_linear_699_1620)"/>
<path d="M191.458 10.225C191.458 12.7189 187.87 14.7301 183.461 14.7301C179.052 14.7301 175.464 12.7189 175.464 10.225C175.464 7.73106 179.052 6.63696 183.461 6.63696C187.87 6.63696 191.458 7.73106 191.458 10.225Z" fill="#E41F26"/>
<g style="mix-blend-mode:overlay" opacity="0.4">
<path d="M164.619 48.1636L164.442 178.522L258.936 178.152L259.725 64.8646" stroke="white" stroke-width="0.6" stroke-linecap="round" stroke-linejoin="round"/>
<path d="M165.005 244.602L164.442 178.522L289.475 178.023L290.971 319.677" stroke="white" stroke-width="0.6" stroke-linecap="round" stroke-linejoin="round"/>
<path d="M289.475 211.49L372.739 212.101C372.739 212.101 373.769 212.343 378.242 208.787C380.896 206.679 388.668 206.293 391.499 208.159C392.915 209.125 395.811 208.932 396.712 209.8C399.239 213.05 407.75 216.043 405.739 206.035L422.987 206.164" stroke="white" stroke-width="0.6" stroke-linecap="round" stroke-linejoin="round"/>
<path d="M291.308 272.051C291.308 272.051 302.185 270.989 304.663 273.306C305.515 274.094 305.419 276.492 306.143 277.393C307.543 279.147 312.193 277.57 314.027 278.873C315.33 279.79 315.121 283.684 315.974 284.939C318.307 288.35 323.198 287.384 328.862 293.836C329.988 295.124 360.607 292.388 363.487 294.898C365.273 296.604 364.629 301.077 365.98 302.573C366.672 303.329 369.231 302.75 369.987 303.442C370.469 303.892 369.794 305.582 370.244 306.065C370.872 306.756 379.11 305.727 380.252 307.384C381.121 308.945 381.185 313.192 381.185 313.192" stroke="white" stroke-width="0.6" stroke-linecap="round" stroke-linejoin="round"/>
</g>
<path d="M332.162 347.062C336.763 345.115 341.333 353.723 347.833 353.9C354.333 354.061 359.498 345.34 365.001 349.073C376.006 356.329 356.087 381.252 351.662 381.413C347.238 381.574 334.656 371.084 334.656 364.406C334.656 357.729 325.147 350.569 332.162 347.062Z" fill="#560003"/>
<defs>
<linearGradient id="paint0_linear_699_1620" x1="30.1827" y1="26.9215" x2="555.773" y2="519.696" gradientUnits="userSpaceOnUse">
<stop stop-color="#E41F26"/>
<stop offset="1" stop-color="#560003"/>
</linearGradient>
</defs>
</svg>
