<svg width="24" height="30" viewBox="0 0 24 30" fill="none" xmlns="http://www.w3.org/2000/svg">
<path d="M18.8235 13.1245C15.9694 13.1245 13.6471 15.4377 13.6471 18.2806C13.6471 21.1234 15.9694 23.4366 18.8235 23.4366C21.6776 23.4366 24 21.1234 24 18.2806C24 15.4377 21.6776 13.1245 18.8235 13.1245ZM21.0182 17.4532C19.5135 19.7018 19.9402 19.0643 19.1359 20.2656C18.847 20.6972 18.2621 20.8117 17.8306 20.5252L16.4188 19.5877C15.9865 19.3006 15.87 18.7188 16.1582 18.2876C16.4465 17.8569 17.0306 17.7409 17.4635 18.028L18.0918 18.4452C19.5928 16.2028 19.5121 16.2649 19.7647 16.1215C20.6219 15.6275 21.5691 16.6291 21.0182 17.4532ZM14.5882 23.9018V29.0614C14.5882 29.7797 15.3693 30.2324 15.9965 29.8752L18.8235 28.2663L21.6506 29.8752C22.2752 30.2318 23.0588 29.7817 23.0588 29.0614V23.9018C20.5513 25.781 17.0994 25.7837 14.5882 23.9018ZM20.7059 11.5039V2.03606C20.7059 0.913442 19.7888 0 18.6618 0H2.04412C0.917059 0 0 0.913442 0 2.03606V23.7442C0 24.8668 0.917059 25.7803 2.04412 25.7803H12.7059C12.7059 21.7461 12.6996 21.9958 12.7206 21.8101C9.56988 16.4298 14.5869 9.81127 20.7059 11.5039ZM5.64706 4.68732H13.6471C14.1671 4.68732 14.5882 5.10684 14.5882 5.62479C14.5882 6.14274 14.1671 6.56225 13.6471 6.56225H5.64706C5.12706 6.56225 4.70588 6.14274 4.70588 5.62479C4.70588 5.10684 5.12706 4.68732 5.64706 4.68732ZM10.3529 14.062H5.64706C5.12706 14.062 4.70588 13.6425 4.70588 13.1245C4.70588 12.6066 5.12706 12.187 5.64706 12.187H10.3529C10.8729 12.187 11.2941 12.6066 11.2941 13.1245C11.2941 13.6425 10.8729 14.062 10.3529 14.062ZM5.64706 10.3121C5.12706 10.3121 4.70588 9.8926 4.70588 9.37465C4.70588 8.8567 5.12706 8.43718 5.64706 8.43718H13.6471C14.1671 8.43718 14.5882 8.8567 14.5882 9.37465C14.5882 9.8926 14.1671 10.3121 13.6471 10.3121H5.64706Z" fill="white"/>
</svg>
