<svg width="29" height="30" viewBox="0 0 29 30" fill="none" xmlns="http://www.w3.org/2000/svg">
<path d="M9.16403 20.1004C7.49979 21.4075 6.42839 23.436 6.42839 25.7145V27.8573H2.1428C0.957117 27.8573 0 26.9002 0 25.7145V24.286C0 21.5218 2.23565 19.2861 4.99986 19.2861H6.42839C7.44265 19.2861 8.37834 19.5861 9.16403 20.1004Z" fill="white"/>
<path d="M22.8568 19.2858C24.6319 19.2858 26.071 17.8468 26.071 16.0716C26.071 14.2965 24.6319 12.8574 22.8568 12.8574C21.0816 12.8574 19.6426 14.2965 19.6426 16.0716C19.6426 17.8468 21.0816 19.2858 22.8568 19.2858Z" fill="white"/>
<path d="M5.7142 19.2858C7.48935 19.2858 8.92839 17.8468 8.92839 16.0716C8.92839 14.2965 7.48935 12.8574 5.7142 12.8574C3.93905 12.8574 2.5 14.2965 2.5 16.0716C2.5 17.8468 3.93905 19.2858 5.7142 19.2858Z" fill="white"/>
<path d="M28.5703 24.286V25.7145C28.5703 26.9002 27.6132 27.8573 26.4275 27.8573H22.1419V25.7145C22.1419 23.436 21.0705 21.4075 19.4062 20.1004C20.1919 19.5861 21.1276 19.2861 22.1419 19.2861H23.5704C26.3346 19.2861 28.5703 21.5218 28.5703 24.286Z" fill="white"/>
<path d="M14.2859 20.0005C16.4555 20.0005 18.2143 18.2416 18.2143 16.072C18.2143 13.9024 16.4555 12.1436 14.2859 12.1436C12.1163 12.1436 10.3574 13.9024 10.3574 16.072C10.3574 18.2416 12.1163 20.0005 14.2859 20.0005Z" fill="white"/>
<path d="M15.0001 20H13.5716C10.4209 20 7.85742 22.5635 7.85742 25.7141V27.8569C7.85742 29.0383 8.81882 29.9997 10.0002 29.9997H18.5714C19.7528 29.9997 20.7142 29.0383 20.7142 27.8569V25.7141C20.7142 22.5635 18.1507 20 15.0001 20Z" fill="white"/>
<path d="M24.6434 9.77528L22.9199 10.3881C22.4306 10.5617 21.9199 10.191 21.9342 9.67171L21.9842 7.84319L20.8685 6.39323C20.5521 5.98181 20.7471 5.38111 21.2449 5.23398L22.9999 4.71685L24.0341 3.2076C24.3277 2.77976 24.9591 2.77976 25.2527 3.2076L26.2869 4.71685L28.0419 5.23398C28.5397 5.3804 28.7347 5.98181 28.4183 6.39323L27.3026 7.84319L27.3526 9.67171C27.3669 10.1903 26.8555 10.5617 26.3669 10.3881L24.6434 9.77528Z" fill="white"/>
<path d="M3.92857 9.77528L2.20505 10.3881C1.71578 10.5617 1.20508 10.191 1.21936 9.67171L1.26936 7.84319L0.153676 6.39323C-0.162744 5.98181 0.0322508 5.38111 0.530094 5.23398L2.28505 4.71685L3.3193 3.2076C3.61287 2.77976 4.24428 2.77976 4.53784 3.2076L5.5721 4.71685L7.32705 5.23398C7.82489 5.3804 8.01989 5.98181 7.70347 6.39323L6.58779 7.84319L6.63778 9.67171C6.65207 10.1903 6.14065 10.5617 5.6521 10.3881L3.92857 9.77528Z" fill="white"/>
<path d="M14.2865 8.16781L12.243 8.89422C11.663 9.10064 11.0573 8.65994 11.0745 8.04496L11.1338 5.87716L9.81094 4.15792C9.43595 3.67008 9.66738 2.95795 10.2574 2.78367L12.338 2.17012L13.5644 0.380882C13.9123 -0.126961 14.6615 -0.126961 15.0094 0.380882L16.2358 2.17012L18.3164 2.78367C18.9064 2.95795 19.1378 3.67008 18.7628 4.15792L17.44 5.87716L17.4993 8.04496C17.5164 8.65994 16.91 9.10064 16.3308 8.89422L14.2865 8.16781Z" fill="white"/>
</svg>
