<svg width="31" height="30" viewBox="0 0 31 30" fill="none" xmlns="http://www.w3.org/2000/svg">
<path fill-rule="evenodd" clip-rule="evenodd" d="M30.6338 17.3594V18.9792C30.6338 19.2254 30.483 19.4327 30.2503 19.5088L29.1901 19.8532C29.0219 19.9077 28.9017 20.0246 28.8406 20.1893C28.7862 20.3337 28.7288 20.4762 28.6641 20.614C28.5894 20.7752 28.5929 20.9435 28.6743 21.1017L29.1799 22.0949C29.29 22.3141 29.2511 22.5687 29.0782 22.7419L27.9336 23.8879C27.7607 24.061 27.5064 24.0999 27.2874 23.9897L26.2954 23.4835C26.1375 23.402 25.9699 23.3984 25.8084 23.4733C25.6708 23.538 25.5284 23.5955 25.3842 23.65C25.2196 23.7111 25.1024 23.8315 25.0485 23.9999L24.7045 25.0614C24.6381 25.2651 24.4705 25.4077 24.2635 25.4382L23.3696 20.8992C24.8738 20.8974 26.0932 19.6765 26.0932 18.1687C26.0932 16.6609 24.872 15.44 23.3661 15.44C22.1957 15.44 21.1966 16.1786 20.81 17.2162C20.7741 17.206 20.7371 17.194 20.7 17.1856L17.7114 16.3979C17.7927 16.3368 17.8538 16.2517 17.8927 16.1481C17.9453 16.0037 18.0045 15.8629 18.0674 15.7234C18.1422 15.564 18.1386 15.3939 18.059 15.2375L17.5534 14.2425C17.4415 14.0232 17.4822 13.7686 17.6551 13.5955L18.7985 12.4507C18.9732 12.2776 19.2257 12.2369 19.4447 12.3489L20.4385 12.8551C20.5947 12.9348 20.764 12.9384 20.9237 12.8635C21.0625 12.8006 21.2037 12.7413 21.3479 12.6886C21.5143 12.6274 21.6297 12.5052 21.6836 12.3369L22.0276 11.2772C22.1042 11.043 22.3124 10.892 22.5565 10.892H24.1744C24.4203 10.892 24.6273 11.043 24.7033 11.2772L25.0473 12.3369C25.1018 12.5052 25.2184 12.6274 25.383 12.6886C25.5272 12.7413 25.6696 12.8006 25.8072 12.8635C25.9681 12.9384 26.1363 12.9348 26.2942 12.8551L27.2862 12.3489C27.5052 12.2369 27.7595 12.2776 27.9324 12.4507L29.0782 13.5961C29.2511 13.7692 29.29 14.0238 29.1799 14.2431L28.6743 15.2381C28.5929 15.3945 28.5894 15.564 28.6641 15.724C28.7288 15.8629 28.7862 16.0043 28.8406 16.1487C28.9017 16.3152 29.0219 16.4308 29.1901 16.4848L30.2503 16.8292C30.4824 16.9059 30.6338 17.115 30.6338 17.3594ZM23.6054 27.1281C23.6359 27.2875 23.6514 27.4474 23.6514 27.602C23.6514 28.1711 23.4498 28.7042 23.1052 29.1218C22.7624 29.5411 22.2795 29.8436 21.7195 29.9539C21.5651 29.9844 21.4072 30 21.2462 30H19.1515C19.1635 29.9509 19.1719 29.9 19.1784 29.8472L20.189 21.418C20.2416 20.9729 20.104 20.5332 19.8073 20.1989C19.5069 19.861 19.0935 19.6741 18.6423 19.6741H5.0103C4.55917 19.6741 4.14334 19.861 3.84538 20.1989C3.54861 20.5332 3.411 20.9735 3.46365 21.418L4.49276 30H2.40703C2.24608 30 2.08633 29.9844 1.93376 29.9539C1.37433 29.8436 0.890893 29.5411 0.548058 29.1218C0.203428 28.7042 0 28.1711 0 27.602C0 27.4474 0.0155562 27.2881 0.047267 27.1281L1.45391 19.9898C1.54366 19.5297 1.75426 19.1236 2.05582 18.8013C2.35617 18.4802 2.74627 18.2478 3.20039 18.1274L7.19117 17.076C7.32878 17.0401 7.44904 16.991 7.55554 16.9281C7.66264 16.8652 7.76435 16.7837 7.86068 16.68L8.79705 15.7018V15.0818C8.79705 15.0752 8.79884 15.0668 8.79884 15.0578C8.48532 14.8559 8.19335 14.6217 7.9271 14.3617C7.00808 13.4649 6.39241 12.2542 6.25839 10.9076C5.89222 10.8141 5.56494 10.6188 5.30886 10.3558C4.95466 9.98922 4.73567 9.4914 4.73567 8.94327C4.73567 8.43707 4.91876 7.9752 5.2239 7.62056V4.44018C5.2239 3.77763 5.49374 3.17498 5.92752 2.73887C6.29908 2.36866 6.7891 2.11765 7.33536 2.05116C7.41314 1.52998 7.65785 1.06272 8.01385 0.706284C8.45002 0.269574 9.05013 0 9.71307 0H12.8865C14.4128 0 15.7985 0.623016 16.8025 1.62823C17.8065 2.63344 18.4287 4.02085 18.4287 5.54903V7.62056C18.7339 7.9752 18.917 8.43707 18.917 8.94327C18.917 9.492 18.698 9.98922 18.3438 10.3558C18.0877 10.6188 17.7604 10.8141 17.3943 10.9076C17.2584 12.2542 16.6446 13.4649 15.7256 14.3617C15.4593 14.6217 15.1673 14.8559 14.8538 15.0578V15.0818V15.7018L15.7902 16.68C15.8883 16.7837 15.9888 16.8652 16.0953 16.9281C16.2036 16.991 16.3245 17.0401 16.4615 17.076L20.4523 18.1274C20.9052 18.2478 21.2953 18.4808 21.5968 18.8013C21.899 19.1242 22.1072 19.5297 22.1987 19.9898L23.6054 27.1281ZM11.8263 14.9817C13.0762 14.9817 14.2142 14.4791 15.0489 13.6656C15.8865 12.8491 16.4178 11.7211 16.4495 10.4768C16.4543 10.2187 16.6613 10.0084 16.921 10.0012C17.2058 9.99281 17.4619 9.8706 17.6485 9.67831C17.8316 9.48961 17.9453 9.23022 17.9453 8.94327C17.9453 8.65093 17.8268 8.38615 17.6348 8.19445C17.4451 8.00455 17.1801 7.88534 16.8887 7.88534C16.8241 7.88534 16.763 7.89013 16.7092 7.89912C16.6583 7.90751 16.6111 7.91949 16.5614 7.93626C16.5052 7.96022 16.4429 7.9722 16.3765 7.9722C16.1085 7.9722 15.8895 7.75475 15.8895 7.48637V6.67645C15.8895 6.5219 15.8638 6.38291 15.8117 6.25711C15.7591 6.12952 15.6777 6.0127 15.5706 5.90547C15.4623 5.79824 15.345 5.71856 15.2176 5.66765C15.0871 5.61493 14.9477 5.58977 14.797 5.58977C13.7134 5.59995 12.6801 5.55742 11.7067 5.45558C10.738 5.35374 9.82555 5.19379 8.97594 4.96795C8.30403 4.96436 8.05992 6.33859 7.88342 7.32822L7.83735 7.57803C7.83256 7.62056 7.82179 7.66309 7.80504 7.70383C7.70153 7.95184 7.41673 8.06865 7.17082 7.96681C7.108 7.93986 7.04218 7.91949 6.97099 7.90571C6.90338 7.89193 6.83337 7.88534 6.76217 7.88534C6.47019 7.88534 6.20574 8.00395 6.01428 8.19445C5.82461 8.38615 5.70555 8.65153 5.70555 8.94327C5.70555 9.23022 5.81923 9.49021 6.00231 9.67831C6.18899 9.87001 6.44506 9.99221 6.72807 10.0012C6.98415 10.0078 7.19476 10.2151 7.19954 10.475C7.23185 11.7199 7.76435 12.8491 8.6002 13.6656C9.43665 14.4791 10.5746 14.9817 11.8263 14.9817ZM13.8821 15.5628C13.2443 15.8156 12.5509 15.957 11.8263 15.957C11.1018 15.957 10.4083 15.8162 9.77051 15.5628V16.1217C9.77051 16.6908 10.0015 17.2048 10.3724 17.5768C10.744 17.9488 11.2579 18.1795 11.8257 18.1795C12.3935 18.1795 12.9075 17.9488 13.279 17.5768C13.6506 17.2048 13.8809 16.6902 13.8809 16.1217V15.5628H13.8821ZM19.2227 21.3023L18.2122 29.7316C18.1954 29.8862 18.0662 30 17.91 30H5.4716L4.42874 21.3023C4.4084 21.131 4.45746 20.9747 4.57293 20.8441C4.68841 20.7153 4.83739 20.647 5.0103 20.647H18.6429C18.8159 20.647 18.9654 20.7147 19.0803 20.8441C19.1958 20.9747 19.2431 21.1304 19.2227 21.3023ZM12.9051 25.3232C12.9051 24.7289 12.4199 24.2431 11.8263 24.2431C11.231 24.2431 10.7458 24.7289 10.7458 25.3232C10.7458 25.9192 11.231 26.4033 11.8263 26.4033C12.4199 26.4033 12.9051 25.9192 12.9051 25.3232Z" fill="white"/>
</svg>
