<svg width="248" height="262" viewBox="0 0 248 262" fill="none" xmlns="http://www.w3.org/2000/svg">
<path opacity="0.9" fill-rule="evenodd" clip-rule="evenodd" d="M225.14 145.373H240.196C244.499 145.373 248 148.875 248 153.181V254.193C248 258.498 244.499 262 240.196 262H163.618C159.329 262 155.814 258.498 155.814 254.193V153.181C155.814 148.875 159.315 145.373 163.618 145.373H178.682V144.098C178.682 142.048 180.343 140.386 182.393 140.386H190.02C191.597 135.314 196.323 131.637 201.907 131.637C207.49 131.637 212.221 135.315 213.801 140.386H221.429C223.478 140.386 225.14 142.048 225.14 144.098V145.373ZM178.682 152.799H163.618C163.407 152.799 163.236 152.97 163.236 153.181V254.193C163.236 254.404 163.408 254.575 163.618 254.575H240.196C240.407 254.575 240.578 254.404 240.578 254.193V153.181C240.578 152.97 240.407 152.799 240.196 152.799H225.14V157.275C225.14 159.326 223.478 160.988 221.429 160.988H182.393C180.343 160.988 178.682 159.326 178.682 157.275V152.799ZM206.913 186.719C204.865 186.719 203.202 185.055 203.202 183.006C203.202 180.957 204.865 179.294 206.913 179.294H230.43C232.478 179.294 234.141 180.957 234.141 183.006C234.141 185.055 232.478 186.719 230.43 186.719H206.913ZM206.913 210.575C204.865 210.575 203.202 208.912 203.202 206.863C203.202 204.814 204.865 203.15 206.913 203.15H230.43C232.478 203.15 234.141 204.814 234.141 206.863C234.141 208.912 232.478 210.575 230.43 210.575H206.913ZM206.913 234.432C204.865 234.432 203.202 232.768 203.202 230.719C203.202 228.67 204.865 227.007 206.913 227.007H230.43C232.478 227.007 234.141 228.67 234.141 230.719C234.141 232.768 232.478 234.432 230.43 234.432H206.913ZM170.76 208.743C169.311 207.295 169.311 204.942 170.76 203.493C172.208 202.044 174.56 202.044 176.008 203.493L179.188 206.675L186.684 199.176C188.132 197.727 190.483 197.727 191.931 199.176C193.38 200.625 193.38 202.977 191.931 204.426L181.812 214.55C180.363 216 178.013 216 176.564 214.55L170.76 208.743ZM170.76 184.887C169.311 183.438 169.311 181.086 170.76 179.637C172.208 178.188 174.56 178.188 176.008 179.637L179.188 182.818L186.684 175.319C188.132 173.87 190.483 173.87 191.931 175.319C193.38 176.768 193.38 179.121 191.931 180.569L181.812 190.694C180.363 192.143 178.013 192.143 176.564 190.694L170.76 184.887ZM170.76 232.6C169.311 231.151 169.311 228.799 170.76 227.35C172.208 225.901 174.56 225.901 176.008 227.35L179.188 230.531L186.684 223.032C188.132 221.584 190.483 221.584 191.931 223.032C193.38 224.481 193.38 226.834 191.931 228.283L181.812 238.406C180.363 239.856 178.013 239.856 176.564 238.406L170.76 232.6ZM217.718 153.563V147.811H210.652C208.602 147.811 206.941 146.149 206.941 144.098C206.941 141.315 204.685 139.062 201.907 139.062C199.13 139.062 196.88 141.316 196.88 144.098C196.88 146.149 195.219 147.811 193.169 147.811H186.104V153.563H217.718ZM145.413 229.93C147.156 228.852 149.445 229.393 150.521 231.135C151.598 232.878 151.058 235.168 149.316 236.246C136.537 244.148 123.469 249.949 111.448 253.174C110.818 253.343 110.155 253.343 109.525 253.174C86.1502 246.901 58.7966 230.846 37.309 208.617C15.655 186.216 0 157.577 0 126.505V33.1727C0 31.2363 1.4881 29.6251 3.4178 29.4718C32.5272 27.1631 57.8832 14.3883 77.0536 0.691595C77.6828 0.241846 78.4367 0 79.2102 0H141.763C142.537 0 143.291 0.241846 143.92 0.691595C163.09 14.3883 188.446 27.1631 217.556 29.4718C219.485 29.6251 220.974 31.2363 220.974 33.1727V126.505C220.974 128.072 220.934 129.633 220.855 131.187C220.752 133.233 219.008 134.811 216.962 134.708C214.917 134.605 213.34 132.86 213.443 130.813C213.515 129.383 213.552 127.947 213.552 126.505V36.5559C184.897 33.501 159.833 21.0056 140.581 7.4251H80.3929C61.1404 21.0056 36.0759 33.501 7.42194 36.5559V126.505C7.42194 155.661 22.3252 182.436 42.6444 203.456C62.8352 224.344 88.4176 239.579 110.487 245.739C121.616 242.633 133.638 237.212 145.413 229.93ZM205.618 124.005C205.618 126.054 203.955 127.718 201.907 127.718C199.859 127.718 198.196 126.054 198.196 124.005V49.6967C175.859 45.1409 154.8 35.5212 135.825 22.8014H85.162C66.1735 35.5212 45.1143 45.1409 22.7774 49.6967V126.505C22.7774 144.715 30.2508 162.701 41.7887 178.595C59.0824 202.417 85.5305 221.563 110.487 229.69C122.222 225.868 134.287 219.601 145.576 211.565C147.244 210.378 149.563 210.768 150.751 212.438C151.938 214.108 151.547 216.427 149.878 217.615C137.566 226.379 124.371 233.131 111.595 237.131C110.873 237.357 110.1 237.357 109.378 237.131C82.7393 228.79 54.2777 208.434 35.7833 182.958C23.2916 165.751 15.3555 146.221 15.3555 126.505V46.6328C15.3555 44.8391 16.6373 43.3016 18.4011 42.9802C41.2326 38.8184 62.708 29.0555 81.9473 16.0154C82.5617 15.5991 83.2864 15.3763 84.0286 15.3763H136.959C137.702 15.3763 138.427 15.5991 139.042 16.0159C158.267 29.056 179.741 38.8184 202.572 42.9802C204.336 43.3016 205.618 44.8391 205.618 46.6328V124.005ZM86.8882 133.337H60.3086C58.2591 133.337 56.5976 131.675 56.5976 129.624V89.8321C56.5976 87.7817 58.2591 86.1195 60.3086 86.1195H86.8882V59.5286C86.8882 57.4782 88.5496 55.8161 90.5991 55.8161H130.374C132.424 55.8161 134.085 57.4782 134.085 59.5286V86.1195H160.664C162.714 86.1195 164.375 87.7817 164.375 89.8321V129.624C164.375 131.675 162.714 133.337 160.664 133.337H134.085V159.927C134.085 161.978 132.424 163.64 130.374 163.64H90.5991C88.5496 163.64 86.8882 161.978 86.8882 159.927V133.337ZM94.3101 129.624V156.215H126.663V129.624C126.663 127.574 128.325 125.912 130.374 125.912H156.953V93.5446H130.374C128.325 93.5446 126.663 91.8825 126.663 89.8321V63.2412H94.3101V89.8321C94.3101 91.8825 92.6486 93.5446 90.5991 93.5446H64.0196V125.912H90.5991C92.6486 125.912 94.3101 127.574 94.3101 129.624Z" fill="#8E0000"/>
</svg>
