<svg width="333" height="262" viewBox="0 0 333 262" fill="none" xmlns="http://www.w3.org/2000/svg">
<path fill-rule="evenodd" clip-rule="evenodd" d="M263.58 223.042C247.412 223.042 234.166 209.99 234.166 193.432C234.166 177.069 247.412 163.823 263.58 163.823C279.748 163.823 293.383 177.069 293.383 193.432C293.383 209.99 280.137 223.042 263.58 223.042ZM263.58 173.563C252.671 173.563 243.711 182.329 243.711 193.627C243.711 205.12 252.671 213.886 263.58 213.886C274.683 213.886 283.838 205.12 283.838 193.627C283.838 182.329 274.683 173.563 263.58 173.563Z" fill="#8E0000"/>
<path fill-rule="evenodd" clip-rule="evenodd" d="M275.274 262H252.094C249.366 262 247.224 259.857 247.224 257.13V245.831C243.912 244.663 240.99 243.299 238.068 241.936L230.277 249.922C228.329 251.675 225.407 251.675 223.459 249.922L206.901 233.754C206.122 232.78 205.538 231.416 205.538 230.442C205.538 229.274 206.122 227.91 206.901 227.131L214.888 219.339C213.135 216.417 212.161 213.106 210.992 210.184H199.694C196.967 210.184 194.824 208.041 194.824 205.314V182.133C194.824 179.406 196.967 177.263 199.694 177.263H211.382C212.161 174.341 213.524 171.029 215.083 168.107L206.901 159.926C206.122 159.147 205.538 157.783 205.538 156.809C205.538 155.64 206.122 154.277 206.901 153.498L223.459 137.329C225.407 135.381 228.329 135.381 230.277 137.329L238.263 144.926C241.185 143.173 244.302 141.81 247.419 141.031V129.927C247.419 127.395 249.561 125.252 252.288 125.252H275.469C278.196 125.252 280.339 127.395 280.339 129.927V141.42C283.65 142.394 286.572 143.758 289.494 145.121L297.48 137.329C299.234 135.381 302.156 135.381 304.103 137.329L320.271 153.498C321.051 154.277 321.635 155.64 321.635 156.809C321.635 157.783 321.051 159.147 320.271 159.926L312.48 167.718C314.038 170.835 315.402 173.951 316.57 177.068H327.674C330.401 177.068 332.543 179.211 332.543 181.938V205.119C332.543 207.846 330.401 209.989 327.674 209.989H316.57C315.402 213.106 314.038 216.417 312.869 219.144L320.661 226.936C321.44 227.715 322.025 229.079 322.025 230.248C322.025 231.222 321.44 232.585 320.661 233.364L304.493 249.533C302.545 251.481 299.623 251.481 297.675 249.533L289.884 241.741C287.156 243.299 283.845 244.468 280.728 245.442V256.935C280.144 259.857 278.001 262 275.274 262ZM256.963 252.649H270.599V242.52C270.599 240.377 271.963 238.429 274.105 238.04C279.559 236.676 283.845 234.728 287.741 232.39C289.494 231.027 292.026 231.222 293.585 232.78L300.987 239.793L310.532 230.248L303.324 223.04C301.766 221.482 301.376 219.144 302.74 217.196C305.467 213.106 307.415 208.625 308.389 203.95C308.973 201.807 310.921 200.249 313.064 200.249H322.998V186.418H313.064C310.921 186.418 308.973 184.86 308.389 182.717C307.415 178.042 305.467 173.756 302.74 169.471C301.766 167.523 301.961 165.185 303.324 163.432L310.532 156.225L300.987 146.485L293.585 153.498C292.026 155.056 289.494 155.446 287.936 154.277C283.845 151.939 279.365 149.991 274.495 148.628C272.352 148.043 270.989 146.29 270.989 144.147V134.018H257.158V144.147C257.158 146.29 255.795 148.043 253.652 148.628C248.782 149.796 244.497 151.55 240.211 154.277C238.263 155.446 235.926 155.056 234.562 153.498L227.16 146.29L217.42 155.835L224.433 163.043C226.186 164.601 226.381 166.744 225.407 168.692C222.68 173.172 220.732 177.847 219.953 182.133C219.368 184.276 217.42 185.834 215.278 185.834H205.148V199.665H215.278C217.42 199.665 219.368 201.223 219.953 203.366C220.927 208.041 222.875 212.521 225.407 216.612C226.381 218.56 226.186 220.897 224.433 222.261L217.42 229.274L227.16 239.014L234.562 231.806C236.12 230.248 238.458 229.858 240.211 231.027C244.497 233.754 248.782 235.507 253.652 236.676C255.795 237.26 257.158 239.014 257.158 241.156V252.649H256.963Z" fill="#8E0000"/>
<path fill-rule="evenodd" clip-rule="evenodd" d="M129.184 211.354C126.457 211.354 124.314 209.016 124.314 206.484C124.314 170.057 133.274 158.174 141.066 147.655C147.105 139.668 151.585 133.435 151.585 117.267C151.585 88.242 127.82 64.4767 98.7958 64.4767C69.5768 64.4767 45.812 88.242 45.812 117.267C45.812 133.435 50.487 139.668 56.3308 147.655C64.1226 158.174 73.0831 170.057 73.0831 206.484C73.0831 209.016 70.9403 211.354 68.2132 211.354C65.4861 211.354 63.3434 209.016 63.3434 206.484C63.3434 173.174 55.7464 163.044 48.5391 153.304C42.6953 145.123 36.0723 136.746 36.0723 117.267C36.0723 82.9824 63.9278 54.9316 98.4063 54.9316C133.08 54.9316 160.74 82.7877 160.74 117.267C160.74 136.746 154.702 145.123 148.468 153.304C141.066 163.044 133.664 173.174 133.664 206.484C134.054 209.016 131.911 211.354 129.184 211.354Z" fill="#8E0000"/>
<path fill-rule="evenodd" clip-rule="evenodd" d="M62.3503 130.9C59.6232 130.9 57.4805 128.757 57.4805 126.03C57.4805 98.7586 79.4922 76.5518 106.763 76.5518C109.49 76.5518 111.633 78.6945 111.633 81.4217C111.633 84.1489 109.49 86.2916 106.763 86.2916C84.7516 86.2916 66.8306 104.018 66.8306 126.225C66.8306 128.757 64.6878 130.9 62.3503 130.9Z" fill="#8E0000"/>
<path fill-rule="evenodd" clip-rule="evenodd" d="M144.946 58.0534C144.166 58.0534 143.192 57.6638 142.413 57.469C140.27 56.1054 139.491 53.3783 140.66 51.0407L148.647 36.8205C150.01 34.6777 152.737 33.8985 155.075 35.0673C157.218 36.4309 158.192 39.1581 157.023 41.4956L148.841 55.521C148.062 57.0794 146.504 58.0534 144.946 58.0534Z" fill="#8E0000"/>
<path fill-rule="evenodd" clip-rule="evenodd" d="M178.852 91.9414C177.294 91.9414 175.735 91.1622 174.956 89.6038C173.593 87.461 174.372 84.3443 176.709 82.9807L190.734 74.994C192.877 73.6304 195.994 74.4096 197.357 76.942C198.526 79.0847 197.747 82.0067 195.409 83.3703L181.384 91.357C180.605 91.7466 179.631 91.9414 178.852 91.9414Z" fill="#8E0000"/>
<path fill-rule="evenodd" clip-rule="evenodd" d="M52.6173 58.0555C51.059 58.0555 49.3058 57.0815 48.5266 55.5231L40.5401 41.4977C39.1765 39.3549 39.9557 36.433 42.2932 35.0694C44.436 33.7058 47.5527 34.485 48.7214 36.8226L56.9028 51.0428C58.2663 53.1856 57.4871 56.1075 54.9548 57.4711C54.1757 58.0555 53.3965 58.0555 52.6173 58.0555Z" fill="#8E0000"/>
<path fill-rule="evenodd" clip-rule="evenodd" d="M18.92 91.9384C18.1408 91.9384 17.1668 91.7436 16.3877 91.354L2.36252 83.3674C0.219789 82.0038 -0.559386 79.2766 0.414583 76.939C1.77814 74.6015 4.50525 73.8223 7.03757 74.9911L21.0627 82.9778C23.2054 84.3413 23.9846 87.0685 22.8159 89.6009C22.0367 90.9645 20.4783 91.9384 18.92 91.9384Z" fill="#8E0000"/>
<path fill-rule="evenodd" clip-rule="evenodd" d="M138.706 228.304C135.979 228.304 133.836 226.162 133.836 223.435C133.836 220.707 135.979 218.565 138.706 218.565C140.654 218.565 142.212 217.006 142.212 214.863C142.212 212.526 140.654 211.357 138.706 211.357H58.8402C56.6975 211.357 55.334 212.915 55.334 214.863C55.334 217.006 56.8923 218.565 58.8402 218.565C61.5674 218.565 63.7101 220.707 63.7101 223.435C63.7101 226.162 61.5674 228.304 58.8402 228.304C51.4381 228.304 45.7891 222.266 45.7891 215.058C45.7891 207.851 51.8277 202.007 58.8402 202.007H138.706C145.913 202.007 151.562 208.046 151.562 215.058C151.952 222.266 145.913 228.304 138.706 228.304Z" fill="#8E0000"/>
<path fill-rule="evenodd" clip-rule="evenodd" d="M138.706 245.247H58.8402C51.4381 245.247 45.7891 239.403 45.7891 232.001C45.7891 224.794 51.8277 219.145 58.8402 219.145H138.706C145.913 219.145 151.562 224.988 151.562 232.001C151.952 239.014 145.913 245.247 138.706 245.247ZM58.8402 228.3C56.6975 228.3 55.334 229.858 55.334 231.806C55.334 233.949 56.8923 235.508 58.8402 235.508H138.706C140.654 235.508 142.212 233.949 142.212 231.806C142.212 229.664 140.654 228.3 138.706 228.3H58.8402Z" fill="#8E0000"/>
<path fill-rule="evenodd" clip-rule="evenodd" d="M105.013 261.998H92.7412C80.8588 261.998 71.1191 252.258 71.1191 240.376C71.1191 237.649 73.4567 235.506 75.989 235.506C78.7161 235.506 80.8588 237.649 80.8588 240.376C80.8588 247.194 86.3131 252.648 93.1308 252.648H105.208C112.026 252.648 117.285 247.194 117.285 240.376C117.285 237.649 119.428 235.506 122.155 235.506C124.882 235.506 127.025 237.649 127.025 240.376C126.441 252.258 116.896 261.998 105.013 261.998Z" fill="#8E0000"/>
<path fill-rule="evenodd" clip-rule="evenodd" d="M98.7976 211.357C96.0705 211.357 93.9277 209.02 93.9277 206.488V158.373C93.9277 156.814 94.7069 155.061 96.2653 154.282L115.16 143.568C117.303 142.204 120.42 142.984 121.783 145.126C122.952 147.269 122.173 150.191 120.03 151.555L103.667 161.1V206.682C103.667 209.02 101.525 211.357 98.7976 211.357Z" fill="#8E0000"/>
<path fill-rule="evenodd" clip-rule="evenodd" d="M98.7873 163.047C98.0082 163.047 97.0342 162.657 96.255 162.462L77.7496 151.554C75.6069 150.19 74.6329 147.268 75.9965 145.125C77.36 142.983 80.4767 142.203 82.6195 143.567L101.125 154.281C103.268 155.644 104.047 158.566 102.878 160.709C101.904 162.073 100.346 163.047 98.7873 163.047Z" fill="#8E0000"/>
<path fill-rule="evenodd" clip-rule="evenodd" d="M263.582 100.515C260.855 100.515 258.712 98.3726 258.712 95.8403V23.7653C258.712 15.7786 252.284 9.35027 244.492 9.35027H117.877C109.89 9.35027 103.267 15.7786 103.267 23.7653V60.1924C103.267 62.7247 101.124 65.0623 98.3972 65.0623C95.8649 65.0623 93.5273 62.7247 93.5273 60.1924V23.7653C93.5273 10.5191 104.436 0 117.682 0H244.298C257.349 0 268.063 10.5191 268.063 23.7653V96.0351C268.452 98.3726 266.309 100.515 263.582 100.515Z" fill="#8E0000"/>
<path fill-rule="evenodd" clip-rule="evenodd" d="M263.575 100.513C262.601 100.513 261.237 100.124 260.458 99.3445L237.277 75.9689C235.329 74.2157 235.329 71.0989 237.277 69.3457C239.031 67.3978 242.147 67.3978 243.9 69.3457L263.575 89.0203L283.249 69.3457C285.197 67.3978 288.119 67.3978 290.066 69.3457C292.014 71.0989 292.014 74.2157 290.066 75.9689L266.886 99.3445C266.107 100.124 264.938 100.513 263.575 100.513Z" fill="#8E0000"/>
</svg>
