<svg width="72" height="69" viewBox="0 0 72 69" fill="none" xmlns="http://www.w3.org/2000/svg">
<path d="M70.3321 37.6436L67.8865 36.8556C67.8289 36.8374 67.805 36.8178 67.7783 36.7492C67.6461 36.3965 67.4984 36.0438 67.3395 35.6953C67.3142 35.6393 67.3142 35.6127 67.3451 35.5525L68.5124 33.2697C68.9877 32.3445 68.8119 31.2262 68.0708 30.4816L65.4199 27.8433C64.6759 27.1098 63.5509 26.9349 62.6227 27.408L60.3347 28.5697C60.2686 28.6033 60.2404 28.6005 60.18 28.5725C59.834 28.4157 59.4796 28.2688 59.1266 28.1372C59.0563 28.1106 59.0366 28.0854 59.0198 28.035L58.2266 25.5954C57.9045 24.6031 56.982 23.9368 55.9329 23.9368H52.1893C51.1233 23.9368 50.2233 24.5877 49.897 25.594L49.101 28.0294C49.0828 28.0854 49.0631 28.112 49.0026 28.1358C48.6496 28.266 48.2924 28.4115 47.9352 28.5739C47.8804 28.5991 47.8522 28.6019 47.7946 28.5725L45.4995 27.4066C44.5699 26.9335 43.4463 27.1084 42.6981 27.8461L40.0472 30.4844C39.3103 31.2248 39.1345 32.3445 39.6099 33.2683L40.7799 35.5497C40.8094 35.6071 40.8094 35.6365 40.7799 35.6995C40.6224 36.0438 40.4747 36.3965 40.3397 36.7576C40.3214 36.808 40.3018 36.8332 40.2413 36.8542L37.7873 37.645C37.3148 37.799 36.9168 38.0873 36.6271 38.4582C36.5961 38.4288 36.5652 38.3994 36.5342 38.3672L34.3629 36.1124V34.64C35.0843 34.1753 35.765 33.6364 36.3936 33.0248C38.5973 30.8833 39.9431 28.0966 40.2427 25.0943C42.2847 24.5807 43.7669 22.7569 43.7669 20.5665C43.7669 19.4076 43.3394 18.348 42.6348 17.532V12.7634C42.6348 5.72597 36.8816 0 29.8107 0H22.4711C19.681 0 17.3648 2.05189 16.9668 4.71822C14.2189 5.05134 12.0827 7.38876 12.0827 10.2119V17.5306C11.3782 18.348 10.9506 19.409 10.9506 20.5679C10.9506 22.7583 12.4329 24.5821 14.4749 25.0957C14.7744 28.0966 16.1202 30.8847 18.3239 33.0262C18.9526 33.6378 19.6332 34.1767 20.3546 34.6414V36.1124L18.1819 38.3686C17.7375 38.8319 17.2608 39.1105 16.6364 39.2728L7.39971 41.6928C5.29306 42.2443 3.78127 43.8441 3.35797 45.9743L0.106583 62.3922C-0.216869 64.0312 0.203618 65.7052 1.26257 66.9859C2.32012 68.2652 3.88956 69 5.56729 69H42.0611H42.0639H42.0667H49.1545C50.8322 69 52.4017 68.2666 53.4592 66.9859C54.5167 65.7052 54.9386 64.0312 54.6152 62.3908L54.0709 59.6433H55.9357C56.982 59.6433 57.9046 58.9771 58.2294 57.9847L59.0212 55.5508C59.0437 55.4836 59.069 55.464 59.128 55.443C59.4824 55.3114 59.8368 55.1645 60.187 55.0063C60.2446 54.9797 60.2742 54.9797 60.3276 55.0077L62.6227 56.1736C63.5523 56.6467 64.6759 56.4717 65.4241 55.7341L68.075 53.0958C68.8119 52.3553 68.9877 51.2356 68.5124 50.3119L67.3451 48.0346C67.3114 47.9688 67.3142 47.9409 67.3423 47.8807C67.504 47.5294 67.6503 47.1738 67.7783 46.8323C67.805 46.7623 67.8331 46.7427 67.8837 46.726L70.3335 45.9324C71.3461 45.6062 72 44.7105 72 43.6495V39.9236C72 38.8809 71.3292 37.9641 70.3321 37.6436ZM17.6461 6.91568H18.0328C18.653 6.91568 19.1565 6.4146 19.1565 5.79735V5.53562C19.1565 3.71747 20.6443 2.23804 22.4725 2.23804H29.8121C35.6441 2.23804 40.3875 6.96046 40.3875 12.7634V16.0862C39.9516 15.9588 39.4903 15.893 39.0122 15.8986V15.3584C39.0122 14.0637 38.5256 12.9006 37.6059 11.9964C36.6791 11.0838 35.5076 10.608 34.2138 10.6262C29.1356 10.6695 24.8886 10.2147 21.2308 9.2321C21.1633 9.2139 21.0944 9.20271 21.024 9.19711C19.8709 9.10753 18.2733 9.51203 17.2045 11.9376C16.6673 13.1553 16.3635 14.6362 16.1273 15.9238C15.967 15.907 15.8052 15.8986 15.6435 15.8986C15.1879 15.8986 14.7491 15.9644 14.3314 16.0862V10.2133C14.3328 8.39511 15.8193 6.91568 17.6461 6.91568ZM16.6645 24.0908C16.649 23.4973 16.1695 23.0187 15.5732 23.0005C14.2428 22.9627 13.2007 21.8933 13.2007 20.5679C13.2007 19.227 14.2963 18.1353 15.6449 18.1353C15.9684 18.1353 16.289 18.1997 16.597 18.3242C16.9106 18.453 17.265 18.4334 17.5631 18.2724C17.8613 18.1115 18.0694 17.8246 18.1299 17.4928C18.1678 17.2899 18.2058 17.0785 18.2438 16.8602C18.736 14.1057 19.3365 11.4226 20.7625 11.4226H20.7653C24.5961 12.4373 29.0049 12.909 34.2392 12.8614C34.9367 12.853 35.5231 13.0895 36.0266 13.585C36.523 14.0735 36.7649 14.6529 36.7649 15.357V17.2171C36.7649 17.581 36.9421 17.9211 37.2402 18.1311C37.5384 18.341 37.9209 18.3928 38.264 18.271C38.5228 18.1801 38.797 18.1325 39.0755 18.1325C40.4227 18.1325 41.5196 19.2228 41.5196 20.5651C41.5196 21.8905 40.4775 22.9585 39.1472 22.9977C38.5509 23.0145 38.0713 23.4931 38.0559 24.088C37.9082 29.807 33.1099 34.4594 27.3595 34.4594C21.6091 34.4594 16.8121 29.8098 16.6645 24.0908ZM27.3609 36.7003C29.0119 36.7003 30.6193 36.3881 32.117 35.7961V37.081C32.117 39.6913 29.9837 41.8146 27.3609 41.8146C24.7381 41.8146 22.6047 39.6913 22.6047 37.081V35.7961C24.1025 36.3881 25.7099 36.7003 27.3609 36.7003ZM13.6564 66.762L11.3641 47.7435C11.3529 47.6553 11.3725 47.6161 11.4175 47.5671C11.4724 47.5056 11.5118 47.4888 11.5919 47.4888H43.1299C43.21 47.4888 43.2494 47.507 43.3042 47.5671C43.3492 47.6161 43.3675 47.6553 43.3577 47.7435L41.0654 66.762H13.6564ZM51.7224 65.5639C51.0938 66.3253 50.1572 66.762 49.1545 66.762H43.3295L45.5909 48.0094C45.6767 47.2956 45.4601 46.6084 44.982 46.0751C44.4968 45.5349 43.8569 45.2493 43.1313 45.2493H11.5905C10.8649 45.2493 10.225 45.5349 9.73981 46.0751C9.26167 46.6084 9.04509 47.2956 9.13088 48.0094L11.3908 66.762H5.56729C4.56459 66.762 3.62798 66.3253 2.99936 65.5639C2.36934 64.8024 2.12042 63.8031 2.31308 62.8233L5.56588 46.4068C5.82183 45.1192 6.69937 44.1884 7.97489 43.8553L17.2087 41.4353C18.2297 41.1693 19.0819 40.6711 19.809 39.9125L20.6429 39.0461C21.498 41.9349 24.1854 44.0498 27.3609 44.0498C30.5363 44.0498 33.2238 41.9349 34.0788 39.0461L34.9114 39.9097C35.6412 40.6697 36.4921 41.1679 37.5116 41.4325L46.7483 43.8525C48.0224 44.1856 48.8999 45.1164 49.1559 46.4026L49.2881 47.0703C49.2909 47.0857 49.2937 47.0997 49.2965 47.1151L51.5987 58.735C51.6001 58.742 51.6015 58.749 51.6029 58.756L52.4087 62.8205C52.6014 63.8031 52.351 64.8024 51.7224 65.5639ZM48.8788 41.7908C48.8788 38.9453 51.2035 36.6289 54.0611 36.6289C56.9201 36.6289 59.2476 38.9439 59.2476 41.7908C59.2476 44.6349 56.9215 46.9485 54.0611 46.9485C53.1132 46.9485 52.2062 46.6994 51.4102 46.2249L51.361 45.9729C51.0544 44.4305 50.1741 43.168 48.9112 42.3786C48.8901 42.1841 48.8788 41.9881 48.8788 41.7908ZM69.7513 43.6509C69.7513 43.7335 69.7176 43.7797 69.6388 43.8049L67.1834 44.5999C66.476 44.8322 65.9402 45.3431 65.6716 46.0485C65.5591 46.3508 65.4367 46.6462 65.2989 46.9457C64.9853 47.6217 64.9966 48.3635 65.3383 49.0424L66.5112 51.328C66.5337 51.3728 66.5562 51.4414 66.4816 51.5156L63.8392 54.1455C63.7604 54.2225 63.6915 54.2015 63.6465 54.1777L61.3458 53.009C60.6736 52.6703 59.9268 52.6577 59.2476 52.9698C58.9494 53.1056 58.6443 53.2315 58.3489 53.3407C57.6416 53.5968 57.1226 54.1315 56.8836 54.8523L56.0904 57.2905C56.0651 57.3661 56.0145 57.4025 55.9357 57.4025H53.6266L51.9376 48.8758C52.6196 49.0774 53.3326 49.1823 54.0625 49.1823C58.1619 49.1823 61.4977 45.8652 61.4977 41.7866C61.4977 37.7066 58.1619 34.3866 54.0625 34.3866C50.0587 34.3866 46.7863 37.5568 46.6386 41.5095L39.1598 39.5499L40.9402 38.9761C41.6588 38.7409 42.1961 38.2231 42.4506 37.5274C42.5645 37.2251 42.6911 36.9214 42.8247 36.6289C43.1411 35.9486 43.127 35.2054 42.7853 34.5322L41.6124 32.2466C41.5899 32.2018 41.5674 32.1332 41.642 32.059L44.2844 29.4291C44.3632 29.3521 44.4321 29.3731 44.4771 29.3969L46.782 30.567C47.4557 30.9015 48.201 30.9141 48.876 30.6034C49.1812 30.4648 49.4779 30.343 49.7915 30.2269C50.4905 29.9623 51.0052 29.4305 51.24 28.7208L52.0374 26.2799C52.0627 26.2029 52.1091 26.1693 52.1921 26.1693H55.9357C56.0159 26.1693 56.0651 26.2043 56.0904 26.2799L56.8864 28.7264C57.1198 29.4333 57.6373 29.9665 58.3419 30.2297C58.6457 30.343 58.9508 30.469 59.2448 30.602C59.924 30.9155 60.6694 30.9029 61.3514 30.5628L63.6479 29.3955C63.6929 29.3731 63.7618 29.3507 63.8364 29.4249L66.4788 32.0548C66.5562 32.1332 66.5351 32.2018 66.5112 32.248L65.3467 34.5266C64.9994 35.197 64.9825 35.943 65.2989 36.6233C65.4353 36.9186 65.5619 37.2223 65.6758 37.5274C65.9402 38.2273 66.476 38.7423 67.1918 38.9761L69.643 39.7655C69.719 39.7893 69.7541 39.8383 69.7541 39.9194V43.6509H69.7513ZM27.3609 53.5185C25.3653 53.5185 23.741 55.1365 23.741 57.1254C23.741 59.1115 25.3653 60.7281 27.3609 60.7281C29.3564 60.7281 30.9807 59.1115 30.9807 57.1254C30.9793 55.1365 29.3564 53.5185 27.3609 53.5185ZM27.3609 58.49C26.6043 58.49 25.9897 57.8784 25.9897 57.1254C25.9897 56.3709 26.6043 55.7565 27.3609 55.7565C28.1175 55.7565 28.732 56.3709 28.732 57.1254C28.732 57.877 28.1161 58.49 27.3609 58.49Z" fill="white"/>
</svg>
