<svg width="72" height="67" viewBox="0 0 72 67" fill="none" xmlns="http://www.w3.org/2000/svg">
<path d="M36 63.3287L4.79918 49.0307C4.90718 49.0955 2.03847 47.8073 0 46.6488C0 48.3777 0.436471 51.5468 2.05882 52.4011L32.6048 66.0506C35.3048 67.3165 36.468 67.3165 39.3931 66.0506L69.9391 52.4011C71.4487 51.7033 72 48.4178 72 46.6488C70.0358 47.6261 67.2547 49.0194 67.2007 49.0307L36 63.3287ZM36 3.75446C36.2249 4.01618 36.1665 3.80813 36 3.75446ZM2.05882 38.103L32.6048 51.7525C35.3048 53.0183 36.468 53.0183 39.3931 51.7525L69.9391 38.103C71.4487 37.4052 72 34.1198 72 32.3506C70.0358 33.328 67.2547 34.7214 67.2007 34.7326L36 49.0307L4.79918 34.7326C4.90718 34.7975 2.03847 33.5091 0 32.3506C0 34.0795 0.436471 37.2487 2.05882 38.103ZM2.05882 23.8049L32.6048 37.4544C35.3048 38.7203 36.468 38.7203 39.3931 37.4544L69.9391 23.8049C72.1891 22.7627 72.2633 18.3299 69.9391 17.064L39.3931 1.03263C36.9945 -0.380857 35.3048 -0.307066 32.6047 1.03263L2.05882 17.064C-0.265529 18.5535 -0.339765 22.539 2.05882 23.8049ZM36 3.75446L67.2007 20.4344L36 33.5047L4.79918 20.4344L36 3.75446Z" fill="white"/>
</svg>
