<svg width="72" height="72" viewBox="0 0 72 72" fill="none" xmlns="http://www.w3.org/2000/svg">
<path d="M12.6628 55.6814C11.6548 55.6814 10.6859 55.933 9.82626 56.4054C5.29791 50.6001 2.81237 43.3886 2.81237 36.0007C2.81237 17.7004 17.6992 2.81255 35.9983 2.81255C38.2229 2.81255 40.4464 3.03393 42.6074 3.47064C43.3676 3.62446 44.1102 3.13226 44.264 2.37089C44.4178 1.60953 43.9257 0.867936 43.1643 0.713575C40.8205 0.240056 38.4097 0 35.9983 0C26.383 0 17.3427 3.74476 10.5436 10.5443C3.74451 17.3439 0 26.3847 0 36.0007C0 44.0895 2.74645 51.9833 7.74664 58.3116C7.10287 59.2734 6.75682 60.4039 6.75682 61.5877C6.75682 63.1654 7.37148 64.6486 8.48709 65.7637C9.60215 66.8794 11.0852 67.4941 12.6628 67.4941C14.2404 67.4941 15.7234 66.8794 16.839 65.7637C17.9547 64.6486 18.5688 63.1649 18.5688 61.5872C18.5688 60.0101 17.9547 58.5263 16.839 57.4112C15.7234 56.2955 14.2404 55.6814 12.6628 55.6814ZM14.8501 63.7752C14.2662 64.3596 13.4889 64.6815 12.6628 64.6815C11.8367 64.6815 11.06 64.3596 10.4755 63.7752C9.89107 63.1907 9.56919 62.4139 9.56919 61.5877C9.56919 60.761 9.89107 59.9843 10.4755 59.3998C11.0594 58.8153 11.8367 58.4939 12.6628 58.4939C13.4889 58.4939 14.2656 58.8158 14.8501 59.3998C15.4345 59.9843 15.7564 60.761 15.7564 61.5877C15.7564 62.4139 15.4345 63.1907 14.8501 63.7752Z" fill="white"/>
<path d="M64.2524 13.6868C65.7811 11.3933 65.5356 8.25776 63.5136 6.23569C62.398 5.12056 60.9149 4.50586 59.3374 4.50586C57.7598 4.50586 56.2767 5.12056 55.1611 6.23569C54.0455 7.35137 53.4314 8.83455 53.4314 10.4122C53.4314 11.9899 54.0455 13.4731 55.1611 14.5887C56.2767 15.7044 57.7598 16.3186 59.3374 16.3186C60.3453 16.3186 61.3143 16.067 62.1739 15.5946C66.7023 21.4004 69.1878 28.6114 69.1878 35.9993C69.1878 54.2996 54.3009 69.1874 36.0019 69.1874C33.7992 69.1874 31.5966 68.9704 29.456 68.5419C28.6947 68.3898 27.9537 68.8836 27.801 69.645C27.6488 70.4069 28.1426 71.1474 28.9039 71.3001C31.2258 71.7643 33.6141 72 36.0019 72C45.6172 72 54.6574 68.2552 61.4565 61.4556C68.2557 54.6561 72.0002 45.6153 72.0002 35.9993C72.0002 27.9099 69.2532 20.0155 64.2524 13.6868ZM57.1501 12.6002C56.5657 12.0157 56.2438 11.239 56.2438 10.4122C56.2438 9.58603 56.5657 8.80928 57.1501 8.2248C57.734 7.64032 58.5112 7.31841 59.3374 7.31841C60.1635 7.31841 60.9408 7.64032 61.5252 8.2248C62.7309 9.43112 62.7309 11.3939 61.5252 12.6002C60.9408 13.1841 60.1635 13.506 59.3374 13.506C58.5107 13.506 57.734 13.1841 57.1501 12.6002Z" fill="white"/>
<path d="M30.1984 60.1876C30.1984 60.9643 30.8284 61.5938 31.6046 61.5938H40.3971C41.1739 61.5938 41.8033 60.9643 41.8033 60.1876V57.4613C43.6523 56.9636 45.4199 56.2308 47.081 55.2739L49.0057 57.1987C49.2693 57.4624 49.6269 57.6107 50.0005 57.6107C50.3729 57.6107 50.731 57.4624 50.9947 57.1982L57.2094 50.9788C57.7581 50.4295 57.7581 49.539 57.2094 48.9903L55.2869 47.0677C56.2437 45.4065 56.9765 43.6388 57.4741 41.7898H60.1899C60.9666 41.7898 61.596 41.1603 61.596 40.3836V31.5907C61.596 30.8139 60.9666 30.1844 60.1899 30.1844H57.4736C56.9759 28.336 56.2437 26.5683 55.2869 24.9071L57.1989 22.9949C57.4626 22.7313 57.6109 22.3731 57.6109 22.0001C57.6104 21.6271 57.4621 21.269 57.1984 21.0053L50.9787 14.7903C50.43 14.2416 49.5396 14.2416 48.9903 14.7909L47.081 16.7009C45.4199 15.744 43.6523 15.0112 41.8033 14.5135V11.8125C41.8033 11.0358 41.1739 10.4062 40.3971 10.4062H31.6046C30.8284 10.4062 30.1984 11.0358 30.1984 11.8125V14.514C28.35 15.0112 26.5824 15.744 24.9213 16.7009L23.0114 14.7909C22.4627 14.2421 21.5723 14.2416 21.023 14.7903L14.8039 21.0059C14.5397 21.2695 14.3914 21.6271 14.3914 22.0001C14.3914 22.3731 14.5397 22.7313 14.8033 22.9949L16.7154 24.9071C15.7586 26.5683 15.0258 28.3354 14.5282 30.1844H11.8174C11.0407 30.1844 10.4112 30.8139 10.4112 31.5901L10.4063 40.383C10.4057 40.756 10.554 41.1142 10.8177 41.3778C11.0813 41.6415 11.4389 41.7898 11.8124 41.7898H14.5282C15.0258 43.6388 15.7586 45.4065 16.7154 47.0677L14.7929 48.9903C14.2442 49.539 14.2436 50.4295 14.7929 50.9788L21.0076 57.1982C21.2713 57.4618 21.6289 57.6107 22.0018 57.6107H22.0024C22.3754 57.6107 22.733 57.4624 22.9966 57.1987L24.9208 55.2739C26.5824 56.2308 28.35 56.9636 30.1984 57.4613V60.1876ZM25.4723 52.3164C24.9158 51.9566 24.1836 52.0346 23.7145 52.5032L22.0024 54.2154L17.7756 49.9851L19.4861 48.274C19.9546 47.8054 20.0326 47.0732 19.6728 46.5167C18.3979 44.5436 17.5015 42.3809 17.0093 40.088C16.8698 39.4404 16.2974 38.9773 15.6344 38.9773H13.2192L13.2225 32.9969H15.6344C16.2974 32.9969 16.8698 32.5344 17.0093 31.8862C17.5015 29.5939 18.3979 27.4312 19.6728 25.4581C20.0326 24.9016 19.9546 24.1694 19.4861 23.7008L17.7866 22.0007L22.0167 17.7737L23.7145 19.4722C24.1836 19.9407 24.9153 20.0182 25.4723 19.6589C27.4448 18.384 29.6074 17.4875 31.9001 16.9953C32.5477 16.8558 33.0108 16.2828 33.0108 15.6204V13.2188H38.991V15.6198C38.991 16.2828 39.4535 16.8558 40.1016 16.9948C42.3938 17.4875 44.5569 18.3834 46.5295 19.6584C47.0859 20.0182 47.8181 19.9407 48.2867 19.4716L49.9851 17.7737L54.2152 22.0007L52.5157 23.7003C52.0466 24.1694 51.9691 24.9016 52.3289 25.4581C53.6038 27.4312 54.4997 29.5939 54.9924 31.8862C55.1314 32.5344 55.7043 32.9969 56.3673 32.9969H58.7837V38.9773H56.3673C55.7043 38.9773 55.132 39.4404 54.9924 40.088C54.5003 42.3803 53.6038 44.5436 52.3289 46.5162C51.9691 47.0732 52.0471 47.8054 52.5157 48.274L54.2262 49.9845L49.9994 54.2148L48.2872 52.5032C47.8181 52.034 47.0859 51.9566 46.5295 52.3164C44.5564 53.5914 42.3938 54.4873 40.1016 54.98C39.4535 55.1196 38.991 55.6919 38.991 56.355V58.7813H33.0108V56.355C33.0108 55.6925 32.5477 55.1196 31.9001 54.98C29.6079 54.4878 27.4453 53.5914 25.4723 52.3164Z" fill="white"/>
<path d="M47.6173 35.9986C47.6173 29.5914 42.4051 24.3789 35.9981 24.3789C29.5912 24.3789 24.3789 29.5914 24.3789 35.9986C24.3789 42.4058 29.5912 47.6183 35.9981 47.6183C42.4051 47.6183 47.6173 42.4058 47.6173 35.9986ZM27.1913 35.9986C27.1913 31.1421 31.1418 27.1914 35.9981 27.1914C40.8544 27.1914 44.8049 31.1426 44.8049 35.9986C44.8049 40.8546 40.8544 44.8058 35.9981 44.8058C31.1418 44.8058 27.1913 40.8551 27.1913 35.9986Z" fill="white"/>
<path d="M48.9492 5.32001C49.3194 5.32001 49.6819 5.1695 49.9434 4.90802C50.2048 4.6449 50.3554 4.28235 50.3554 3.91211C50.3554 3.54407 50.2054 3.18097 49.9434 2.91785C49.6819 2.65637 49.3194 2.50586 48.9492 2.50586C48.5778 2.50586 48.217 2.65637 47.9555 2.91785C47.6935 3.18097 47.543 3.54242 47.543 3.91211C47.543 4.28345 47.6935 4.6449 47.9555 4.90802C48.217 5.1695 48.5778 5.32001 48.9492 5.32001Z" fill="white"/>
<path d="M23.1132 66.708C22.7435 66.708 22.3805 66.8585 22.119 67.12C21.8575 67.3815 21.707 67.7446 21.707 68.1143C21.707 68.4856 21.8575 68.847 22.119 69.1085C22.3805 69.37 22.7435 69.5205 23.1132 69.5205C23.4829 69.5205 23.846 69.37 24.1074 69.1085C24.3689 68.847 24.5194 68.4839 24.5194 68.1143C24.5194 67.7446 24.3689 67.3815 24.1074 67.12C23.846 66.8585 23.4829 66.708 23.1132 66.708Z" fill="white"/>
</svg>
