<svg width="72" height="70" viewBox="0 0 72 70" fill="none" xmlns="http://www.w3.org/2000/svg">
<path d="M14.804 69.9996H2.53953C2.30363 69.9989 2.07757 69.9049 1.91076 69.7381C1.74395 69.5713 1.64996 69.3453 1.64934 69.1094V58.6449C1.65183 57.7106 2.02408 56.8153 2.68474 56.1546C3.3454 55.4939 4.24073 55.1216 5.17506 55.1191H12.1685C12.781 55.1195 13.3828 55.2803 13.9138 55.5856V51.6594C13.9151 50.7247 14.2869 49.8286 14.9479 49.1677C15.6089 48.5067 16.505 48.1348 17.4397 48.1336H24.433C25.0441 48.1322 25.6448 48.2917 26.1746 48.5963V44.6707C26.1772 43.7364 26.5494 42.8411 27.2101 42.1804C27.8707 41.5197 28.766 41.1474 29.7003 41.1449H36.6938C37.306 41.144 37.9077 41.3035 38.4391 41.6075V37.6808C38.441 36.7462 38.8131 35.8505 39.4739 35.1897C40.1347 34.5289 41.0304 34.1569 41.965 34.155H48.9583C49.8926 34.1575 50.7879 34.5298 51.4486 35.1904C52.1093 35.8511 52.4816 36.7464 52.4841 37.6808V69.1098C52.4835 69.3457 52.3895 69.5718 52.2227 69.7386C52.0559 69.9054 51.8298 69.9994 51.5939 70L14.804 69.9996ZM53.65 13.3426C53.5671 13.2599 53.5012 13.1616 53.4562 13.0535C53.4112 12.9453 53.388 12.8294 53.3878 12.7123C53.3876 12.5951 53.4105 12.4791 53.4552 12.3708C53.4999 12.2625 53.5654 12.1641 53.6481 12.0811C53.8151 11.9136 54.0419 11.8193 54.2784 11.8189C54.3956 11.8188 54.5116 11.8416 54.6199 11.8863C54.7282 11.931 54.8266 11.9965 54.9096 12.0792L57.1603 14.3299L62.563 14.3649C62.7986 14.3658 63.0242 14.4602 63.1901 14.6275C63.3561 14.7947 63.4489 15.021 63.448 15.2566C63.4471 15.4922 63.3527 15.7178 63.1855 15.8838C63.0182 16.0497 62.7919 16.1425 62.5563 16.1416L56.8535 16.1027C56.7253 16.1129 56.5964 16.0952 56.4756 16.0509C56.3549 16.0067 56.2451 15.9369 56.1538 15.8463L53.65 13.3426ZM50.4897 7.66326L50.6257 7.79574C50.7096 7.87823 50.7764 7.9765 50.8221 8.0849C50.8679 8.1933 50.8917 8.30968 50.8923 8.42733C50.8929 8.54499 50.8702 8.6616 50.8255 8.77044C50.7809 8.87929 50.7151 8.97822 50.632 9.06154C50.5489 9.14485 50.4502 9.21091 50.3415 9.25591C50.2328 9.3009 50.1162 9.32394 49.9985 9.3237C49.8809 9.32346 49.7644 9.29994 49.6559 9.2545C49.5474 9.20906 49.4489 9.1426 49.3662 9.05894L49.2302 8.92292C47.9512 10.4523 47.1712 12.3366 46.9949 14.3224H47.1854C47.42 14.3254 47.644 14.4207 47.8089 14.5877C47.9737 14.7547 48.0662 14.9799 48.0662 15.2146C48.0662 15.4492 47.9737 15.6744 47.8089 15.8414C47.644 16.0084 47.42 16.1037 47.1854 16.1067H46.9949C47.1712 18.0925 47.9512 19.9768 49.2302 21.5062L49.3662 21.37C49.4489 21.2873 49.5471 21.2217 49.6551 21.177C49.7632 21.1322 49.879 21.1092 49.9959 21.1092C50.1129 21.1092 50.2287 21.1322 50.3368 21.177C50.4448 21.2217 50.543 21.2873 50.6257 21.37C50.7084 21.4527 50.774 21.5509 50.8188 21.6589C50.8635 21.767 50.8866 21.8828 50.8866 21.9998C50.8866 22.1167 50.8635 22.2325 50.8188 22.3406C50.774 22.4487 50.7084 22.5468 50.6257 22.6295L50.4897 22.7656C52.0213 24.0433 53.9058 24.8243 55.8924 25.0046V24.8103C55.8924 24.5742 55.9861 24.3478 56.1531 24.1808C56.32 24.0139 56.5464 23.9201 56.7825 23.9201C57.0186 23.9201 57.2451 24.0139 57.412 24.1808C57.5789 24.3478 57.6727 24.5742 57.6727 24.8103V25.0046C59.6594 24.8251 61.5441 24.044 63.0754 22.7656L62.9394 22.6295C62.7723 22.4625 62.6785 22.236 62.6785 21.9998C62.6785 21.7636 62.7723 21.537 62.9394 21.37C63.1064 21.203 63.3329 21.1092 63.5691 21.1092C63.8053 21.1092 64.0319 21.203 64.1989 21.37L64.3349 21.5062C65.6139 19.9768 66.3939 18.0925 66.5702 16.1067H66.3797C66.1451 16.1037 65.9211 16.0084 65.7562 15.8414C65.5913 15.6744 65.4989 15.4492 65.4989 15.2146C65.4989 14.9799 65.5913 14.7547 65.7562 14.5877C65.9211 14.4207 66.1451 14.3254 66.3797 14.3224H66.5702C66.3939 12.3366 65.6139 10.4523 64.3349 8.92292L64.1989 9.05894C64.031 9.22403 63.8046 9.31602 63.5691 9.31485C63.3337 9.31368 63.1082 9.21945 62.9419 9.0527C62.7757 8.88595 62.6821 8.66022 62.6816 8.42475C62.6811 8.18928 62.7738 7.96317 62.9394 7.79574L63.0754 7.66326C61.5441 6.38482 59.6594 5.60369 57.6727 5.42406V5.61455C57.6727 5.85064 57.5789 6.07706 57.412 6.244C57.2451 6.41094 57.0186 6.50472 56.7825 6.50472C56.5464 6.50472 56.32 6.41094 56.1531 6.244C55.9861 6.07706 55.8924 5.85064 55.8924 5.61455V5.4248C53.9058 5.60511 52.0213 6.38616 50.4897 7.66399V7.66326ZM48.5731 7.00244C50.1972 5.37873 52.2663 4.27305 54.5188 3.82521C56.7713 3.37737 59.106 3.60748 61.2277 4.48644C63.3494 5.3654 65.1628 6.85373 66.4387 8.76326C67.7145 10.6728 68.3955 12.9177 68.3955 15.2143C68.3955 17.5108 67.7145 19.7557 66.4387 21.6653C65.1628 23.5748 63.3494 25.0631 61.2277 25.9421C59.106 26.821 56.7713 27.0511 54.5188 26.6033C52.2663 26.1555 50.1972 25.0498 48.5731 23.4261C46.3952 21.2481 45.1717 18.2943 45.1717 15.2143C45.1717 12.1342 46.3952 9.18037 48.5731 7.00244ZM56.7833 1.78182C54.1264 1.78144 51.529 2.56898 49.3197 4.04482C47.1104 5.52066 45.3884 7.61852 44.3715 10.0731C43.3545 12.5276 43.0884 15.2286 43.6066 17.8345C44.1249 20.4403 45.4043 22.8339 47.283 24.7126C49.1618 26.5913 51.5554 27.8706 54.1613 28.3888C56.7672 28.9071 59.4683 28.6409 61.9228 27.6239C64.3774 26.607 66.4753 24.885 67.9512 22.6757C69.427 20.4665 70.2145 17.8691 70.2141 15.2123C70.2139 11.6503 68.7988 8.23437 66.28 5.71572C63.7613 3.19707 60.3453 1.78202 56.7833 1.78182ZM46.0273 4.45616C48.155 2.32842 50.866 0.879398 53.8173 0.292349C56.7686 -0.2947 59.8278 0.00658678 62.6078 1.15811C65.3879 2.30963 67.7641 4.25967 69.4359 6.76163C71.1077 9.26359 72 12.2051 72 15.2142C72 18.2233 71.1077 21.1648 69.4359 23.6667C67.7641 26.1687 65.3879 28.1187 62.6078 29.2703C59.8278 30.4218 56.7686 30.7231 53.8173 30.136C50.866 29.549 48.155 28.1 46.0273 25.9722C44.614 24.5597 43.4929 22.8826 42.7281 21.0367C41.9632 19.1908 41.5695 17.2123 41.5695 15.2142C41.5695 13.2161 41.9632 11.2376 42.7281 9.39169C43.4929 7.54579 44.614 5.86867 46.0273 4.45616ZM30.5595 23.6905L28.1922 21.945C28.0609 21.8467 27.9594 21.7141 27.8987 21.5617C27.8381 21.4094 27.8206 21.2433 27.8484 21.0817C27.8761 20.9201 27.9479 20.7693 28.0559 20.6459C28.1639 20.5225 28.3039 20.4313 28.4604 20.3824L39.4226 17.0122C39.5607 16.9698 39.707 16.9617 39.8489 16.9886C39.9907 17.0155 40.1239 17.0765 40.2369 17.1665C40.3499 17.2565 40.4392 17.3726 40.4971 17.5049C40.555 17.6372 40.5799 17.7816 40.5694 17.9256L39.7143 29.3196C39.7005 29.4943 39.6356 29.6611 39.5277 29.7992C39.4198 29.9373 39.2736 30.0406 39.1073 30.0962C38.9411 30.1517 38.7621 30.1571 38.5929 30.1116C38.4236 30.0661 38.2715 29.9718 38.1554 29.8404C37.6617 29.3118 36.6392 28.6432 36.0095 28.1262C30.3341 34.789 24.7284 39.6208 19.1345 43.4459C13.3502 47.3993 7.59698 50.2642 1.79302 52.9619C0.436321 53.5917 -0.702655 51.7064 0.52185 50.8274C9.37721 44.4484 15.0877 39.8924 19.562 35.7292C23.7914 31.784 26.9169 28.18 30.5587 23.6903L30.5595 23.6905ZM30.6684 21.5602L32.3398 22.7968C32.4404 22.8664 32.5256 22.9559 32.5901 23.0598C32.6546 23.1637 32.6971 23.2798 32.715 23.4007C32.7328 23.5217 32.7257 23.6451 32.6939 23.7632C32.6621 23.8813 32.6065 23.9916 32.5303 24.0873C28.5808 28.9814 25.3077 32.8065 20.7751 37.032C17.0937 40.4605 12.5844 44.1453 6.20524 48.8761C17.4203 43.2869 26.3185 36.95 35.2437 26.2755V26.2794C35.3234 26.184 35.4222 26.1064 35.5338 26.0515C35.6454 25.9967 35.7672 25.9659 35.8914 25.9611C36.0157 25.9564 36.1395 25.9778 36.2549 26.0239C36.3704 26.07 36.4748 26.1399 36.5616 26.2289C37.0275 26.6789 37.5307 27.0885 38.0659 27.4533L38.6957 19.0956L30.6684 21.5602ZM3.43428 68.2154H13.9146V58.6449C13.9118 58.1831 13.7268 57.7411 13.3998 57.4151C13.0728 57.089 12.6303 56.9052 12.1685 56.9037H5.17506C4.71374 56.9056 4.27186 57.0897 3.94567 57.4159C3.61948 57.7421 3.43541 58.184 3.43355 58.6453L3.43428 68.2154ZM27.9597 68.2154H38.44V44.6707C38.4373 44.209 38.2524 43.767 37.9256 43.4409C37.5987 43.1148 37.1564 42.9309 36.6947 42.9292H29.7003C29.239 42.931 28.7972 43.1151 28.471 43.4413C28.1448 43.7675 27.9607 44.2094 27.9588 44.6707L27.9597 68.2154ZM26.1755 68.2154V51.6594C26.1738 51.1977 25.9899 50.7553 25.6637 50.4285C25.3376 50.1016 24.8956 49.9168 24.4339 49.9141H17.4413C16.9792 49.9167 16.5368 50.1014 16.21 50.4281C15.8833 50.7549 15.6986 51.1973 15.696 51.6594V68.2154H26.1755ZM48.9583 35.9393H41.9657C41.504 35.941 41.0616 36.1249 40.7348 36.451C40.408 36.7771 40.2231 37.2191 40.2204 37.6808V68.2154H50.6999V37.6808C50.698 37.2194 50.5139 36.7776 50.1877 36.4514C49.8615 36.1252 49.4196 35.9411 48.9583 35.9393Z" fill="white"/>
</svg>
