<svg width="296" height="262" viewBox="0 0 296 262" fill="none" xmlns="http://www.w3.org/2000/svg">
<path opacity="0.9" fill-rule="evenodd" clip-rule="evenodd" d="M292.941 77.3437L281.015 72.881C279.28 66.6906 276.749 60.755 273.466 55.1773L278.657 43.8159C279.458 42.0614 279.066 40.0077 277.669 38.6501L261.234 22.6735C259.838 21.3159 257.727 20.9341 255.921 21.7133L244.231 26.7607C238.494 23.5704 232.389 21.1105 226.026 19.4234L221.435 7.82644C220.726 6.03431 218.955 4.85251 216.979 4.85251H193.738C191.763 4.85251 189.992 6.03489 189.282 7.82644L184.69 19.424C178.327 21.1105 172.223 23.571 166.486 26.7613L154.795 21.7139C152.99 20.9341 150.879 21.3159 149.482 22.674L133.047 38.6512C131.651 40.0088 131.259 42.062 132.06 43.817L137.252 55.1802C133.97 60.7573 131.44 66.6912 129.704 72.8799L117.776 77.3437C115.934 78.0335 114.717 79.7548 114.717 81.6752V104.27C114.717 106.19 115.934 107.911 117.776 108.601L129.702 113.064C131.438 119.254 133.969 125.191 137.251 130.767L132.06 142.128C131.259 143.883 131.651 145.936 133.047 147.294L149.482 163.271C150.879 164.628 152.99 165.01 154.795 164.231L166.486 159.183C172.224 162.374 178.328 164.834 184.691 166.52L189.282 178.117C189.991 179.909 191.763 181.091 193.738 181.091H216.979C218.955 181.091 220.725 179.909 221.435 178.117L226.025 166.523C232.392 164.836 238.498 162.376 244.236 159.185L255.922 164.23C257.726 165.01 259.838 164.628 261.236 163.271L277.669 147.294C279.066 145.936 279.458 143.883 278.657 142.128L273.465 130.762C276.746 125.185 279.277 119.251 281.011 113.065L292.941 108.601C294.784 107.912 296 106.19 296 104.27V81.6752C296 79.7548 294.784 78.0329 292.941 77.3437ZM286.452 101.083L275.281 105.263C273.811 105.812 272.716 107.031 272.352 108.52C270.665 115.411 267.866 121.973 264.034 128.023C263.209 129.327 263.098 130.941 263.737 132.34L268.599 142.984L256.8 154.454L245.856 149.729C244.418 149.107 242.756 149.215 241.415 150.018C235.192 153.743 228.442 156.464 221.349 158.105C219.818 158.46 218.564 159.525 217.999 160.953L213.7 171.809H197.015L192.715 160.95C192.15 159.521 190.896 158.456 189.365 158.102C182.278 156.462 175.527 153.742 169.304 150.016C167.963 149.213 166.301 149.106 164.864 149.726L153.915 154.453L142.116 142.983L146.977 132.344C147.616 130.945 147.505 129.329 146.679 128.026C142.847 121.978 140.049 115.415 138.36 108.518C137.996 107.029 136.9 105.811 135.431 105.261L124.264 101.082V84.8609L135.434 80.6808C136.903 80.1308 137.999 78.9124 138.363 77.4237C140.05 70.5302 142.849 63.9685 146.681 57.9203C147.506 56.6166 147.617 55.0015 146.979 53.6021L142.117 42.9601L153.916 31.4897L164.864 36.2163C166.302 36.8365 167.963 36.7291 169.305 35.9262C175.529 32.2015 182.278 29.4811 189.366 27.841C190.897 27.4865 192.151 26.4213 192.716 24.993L197.016 14.1334H213.701L218.001 24.993C218.566 26.4213 219.82 27.4865 221.351 27.841C228.439 29.4811 235.189 32.2015 241.412 35.9262C242.753 36.7291 244.415 36.8365 245.852 36.2163L256.801 31.4891L268.6 42.9595L263.739 53.5992C263.1 54.998 263.211 56.6137 264.037 57.9168C267.869 63.965 270.668 70.5284 272.355 77.4243C272.719 78.913 273.815 80.1319 275.284 80.6813L286.452 84.8614V101.083ZM205.358 45.1903C178.256 45.1903 156.208 66.6251 156.208 92.9722C156.208 119.319 178.256 140.754 205.358 140.754C232.458 140.754 254.507 119.319 254.507 92.9722C254.507 66.6251 232.458 45.1903 205.358 45.1903ZM205.358 131.471C183.521 131.471 165.756 114.2 165.756 92.9722C165.756 71.7439 183.522 54.4729 205.358 54.4729C227.194 54.4729 244.958 71.7439 244.958 92.9722C244.958 114.2 227.194 131.471 205.358 131.471ZM14.2438 82.4694L11.2653 88.9893C10.4638 90.7437 10.8559 92.7975 12.2524 94.1551L22.7872 104.397C24.1843 105.754 26.2951 106.136 28.1009 105.357L34.8104 102.46C38.1363 104.238 41.6405 105.651 45.2785 106.679L47.9138 113.334C48.6228 115.126 50.394 116.308 52.3693 116.308H67.2684C69.2437 116.308 71.0143 115.126 71.7239 113.334L74.3581 106.681C77.9984 105.652 81.505 104.24 84.8302 102.461L91.5362 105.356C93.3397 106.136 95.4528 105.755 96.8499 104.397L107.385 94.1545C108.781 92.7969 109.173 90.7437 108.372 88.9887L105.392 82.4659C107.221 79.2333 108.674 75.8259 109.732 72.2887L116.579 69.7266C118.421 69.0374 119.638 67.3155 119.638 65.3951V50.9113C119.638 48.9909 118.421 47.2696 116.579 46.5798L109.734 44.0183C108.677 40.4805 107.222 37.072 105.393 33.8382L108.372 27.3183C109.173 25.5638 108.781 23.5101 107.385 22.1525L96.8505 11.912C95.4534 10.5544 93.3426 10.1732 91.5368 10.9518L84.8273 13.8486C81.502 12.0709 77.9972 10.6576 74.3593 9.62959L71.7245 2.97393C71.0155 1.18238 69.2443 0 67.269 0H52.3699C50.3946 0 48.624 1.18238 47.9144 2.97393L45.279 9.62959C41.6417 10.6582 38.1363 12.0709 34.811 13.8491L28.1015 10.9518C26.2957 10.1732 24.1849 10.5544 22.7878 11.912L12.2524 22.1542C10.8559 23.5118 10.4638 25.565 11.2653 27.32L14.245 33.8411C12.4159 37.0738 10.9627 40.4811 9.90406 44.0189L3.05906 46.5809C1.21623 47.2708 0 48.9927 0 50.9125V65.3963C0 67.3166 1.21623 69.038 3.05906 69.7278L9.90287 72.2887C10.9615 75.8277 12.4153 79.2367 14.2438 82.4694ZM9.54839 54.0993L15.6098 51.8309C17.0791 51.2809 18.1748 50.0631 18.5388 48.5744C19.5784 44.3276 21.303 40.285 23.6633 36.5597C24.4892 35.2561 24.6008 33.6403 23.9617 32.2416L21.3221 26.4648L27.2213 20.7299L33.1645 23.296C34.6028 23.9162 36.2636 23.8088 37.6051 23.0065C41.44 20.7108 45.5977 19.0352 49.9637 18.0252C51.4944 17.6707 52.7483 16.6055 53.3134 15.1771L55.6474 9.28323H63.9897L66.3231 15.1771C66.8882 16.6055 68.1421 17.6707 69.6728 18.0252C74.0394 19.0352 78.1971 20.7113 82.0314 23.0059C83.3729 23.8088 85.0344 23.9162 86.472 23.296L92.4153 20.7299L98.3144 26.4648L95.676 32.2398C95.0375 33.6386 95.1485 35.2538 95.9744 36.5574C98.3359 40.2856 100.06 44.3287 101.098 48.5744C101.462 50.0631 102.559 51.282 104.028 51.832L110.089 54.0999V62.2106L104.026 64.479C102.557 65.0285 101.461 66.2468 101.097 67.7355C100.058 71.9806 98.3335 76.0232 95.9732 79.7496C95.1473 81.0532 95.0363 82.6684 95.6748 84.0672L98.3144 89.8445L92.4153 95.58L86.475 93.0151C85.0367 92.3937 83.3753 92.5016 82.0338 93.3052C78.2013 95.6003 74.0424 97.2764 69.6728 98.2871C68.1415 98.6415 66.8876 99.7067 66.3225 101.135L63.9897 107.027H55.6474L53.3134 101.133C52.7483 99.705 51.4944 98.6392 49.9637 98.2847C45.5971 97.2747 41.4394 95.5992 37.6057 93.304C36.2654 92.5011 34.6028 92.3937 33.1651 93.0139L27.2213 95.58L21.3221 89.8445L23.9605 84.0695C24.599 82.6707 24.488 81.0555 23.6621 79.7519C21.3019 76.0255 19.5778 71.9823 18.5376 67.7344C18.1736 66.2457 17.0779 65.0267 15.6086 64.4773L9.54839 62.21V54.0993ZM59.8189 88.0558C76.7786 88.0558 90.5766 74.6424 90.5766 58.1547C90.5766 41.6669 76.7786 28.2523 59.8189 28.2523C42.8591 28.2523 29.0611 41.6663 29.0611 58.1547C29.0611 74.6424 42.8591 88.0558 59.8189 88.0558ZM59.8189 37.5356C71.5138 37.5356 81.0282 46.7852 81.0282 58.1552C81.0282 69.5242 71.5138 78.7738 59.8189 78.7738C48.1239 78.7738 38.6095 69.5242 38.6095 58.1552C38.6095 46.7852 48.1245 37.5356 59.8189 37.5356ZM238.035 195.3L182.548 209.975C180.106 210.621 177.718 210.945 175.335 210.945C175.33 210.945 175.324 210.945 175.32 210.945C176.442 209.821 177.45 208.519 178.326 207.044C183.331 198.617 180.399 187.696 171.651 182.18C171.47 182.066 171.282 181.964 171.087 181.876C157.986 175.876 145.704 167.553 135.834 160.866C132.4 158.539 129.157 156.341 126.365 154.581C115.025 147.429 102.499 149.343 91.7409 152.16L50.8493 162.864L49.1688 156.551C48.362 153.519 46.3825 150.971 43.5944 149.375C40.8062 147.779 37.555 147.333 34.4351 148.117L18.9261 152.019C12.4732 153.642 8.58102 160.068 10.2502 166.342L31.0979 244.662C31.9047 247.694 33.8842 250.242 36.6724 251.838C38.5624 252.92 40.6654 253.474 42.7965 253.474C43.8086 253.474 44.8267 253.349 45.8311 253.097L61.34 249.196C64.4588 248.411 67.0798 246.487 68.7215 243.776C70.3633 241.066 70.8228 237.904 70.0159 234.873L67.9571 227.138L76.8609 224.818L133.79 256.772C139.977 260.245 146.571 262 153.265 262C156.958 262 160.682 261.466 164.385 260.392L265.858 230.94C275.288 228.204 281.226 216.674 278.315 206.75C276.903 201.938 269.824 186.893 238.035 195.3ZM60.4938 239.066C60.2927 239.398 59.8242 239.988 58.9482 240.209L43.4386 244.111C42.5625 244.329 41.8595 244.036 41.517 243.84C41.1756 243.645 40.5687 243.189 40.3419 242.338L19.4948 164.015C19.1499 162.719 19.9854 161.339 21.3192 161.004L36.8281 157.103C37.0483 157.047 37.2578 157.024 37.4535 157.024C38.0354 157.024 38.4943 157.227 38.7503 157.373C39.0917 157.568 39.6986 158.024 39.9254 158.875L60.7725 237.197C60.9987 238.05 60.6949 238.734 60.4938 239.066ZM263.126 222.045L161.653 251.496C153.706 253.802 145.938 252.871 138.564 248.732L79.9224 215.818C78.8255 215.202 77.521 215.036 76.3 215.354L65.5652 218.15L53.2418 171.85L94.2241 161.123C103.389 158.724 112.997 157.215 121.169 162.369C123.828 164.045 126.862 166.101 130.375 168.481C140.46 175.316 152.993 183.808 166.699 190.127C171.067 193.035 172.516 198.264 170.058 202.403C166.825 207.847 161.577 207.268 157.675 205.774C151.011 202.527 144.816 198.919 138.261 195.099C135.147 193.284 131.926 191.407 128.598 189.539C126.315 188.257 123.395 189.017 122.076 191.238C120.758 193.458 121.541 196.296 123.824 197.578C127.085 199.408 130.271 201.264 133.352 203.06C140.124 207.006 146.519 210.734 153.575 214.161C153.6 214.173 153.626 214.182 153.652 214.193C153.685 214.209 153.716 214.227 153.749 214.242L159.459 216.741C168.083 220.489 176.457 221.206 185.055 218.933L240.542 204.258C256.297 200.092 266.985 201.975 269.133 209.297C270.605 214.32 267.575 220.754 263.126 222.045ZM37.0233 170.912C36.7034 173.566 34.231 175.466 31.5001 175.155C28.7699 174.844 26.816 172.44 27.1359 169.786C27.4558 167.131 29.9282 165.231 32.6585 165.542C35.3893 165.853 37.3431 168.257 37.0233 170.912Z" fill="#8E0000"/>
</svg>
