<svg width="262" height="262" viewBox="0 0 262 262" fill="none" xmlns="http://www.w3.org/2000/svg">
<path opacity="0.9" fill-rule="evenodd" clip-rule="evenodd" d="M259.292 83.4875L248.736 79.5359C247.2 74.0543 244.96 68.7983 242.055 63.8593L246.649 53.7988C247.358 52.2452 247.011 50.4266 245.774 49.2245L231.228 35.0773C229.992 33.8751 228.123 33.5371 226.525 34.227L216.177 38.6965C211.1 35.8715 205.696 33.6933 200.064 32.1993L196 21.9303C195.372 20.3434 193.804 19.2969 192.056 19.2969H171.484C169.736 19.2969 168.169 20.3439 167.541 21.9303L163.476 32.1998C157.844 33.6933 152.441 35.872 147.362 38.697L137.015 34.2275C135.416 33.5371 133.548 33.8751 132.312 35.0778L117.765 49.2255C116.529 50.4277 116.182 52.2458 116.891 53.7998L121.487 63.8618C118.581 68.8004 116.342 74.0548 114.806 79.5348L104.248 83.4875C102.617 84.0983 101.54 85.6226 101.54 87.323V107.33C101.54 109.031 102.617 110.555 104.248 111.166L114.804 115.118C116.34 120.599 118.581 125.856 121.486 130.794L116.891 140.854C116.182 142.408 116.529 144.226 117.765 145.428L132.312 159.576C133.548 160.778 135.417 161.116 137.015 160.426L147.363 155.956C152.441 158.781 157.844 160.96 163.476 162.453L167.541 172.722C168.168 174.309 169.736 175.356 171.484 175.356H192.056C193.804 175.356 195.372 174.309 196 172.722L200.063 162.456C205.699 160.962 211.103 158.783 216.182 155.957L226.525 160.425C228.122 161.116 229.992 160.778 231.229 159.576L245.775 145.428C247.011 144.226 247.358 142.408 246.649 140.854L242.053 130.79C244.958 125.851 247.198 120.596 248.733 115.119L259.292 111.166C260.923 110.556 262 109.031 262 107.33V87.323C262 85.6226 260.923 84.0978 259.292 83.4875ZM253.548 104.509L243.661 108.21C242.36 108.696 241.39 109.775 241.068 111.094C239.575 117.196 237.098 123.007 233.706 128.364C232.976 129.518 232.877 130.948 233.443 132.186L237.746 141.611L227.303 151.768L217.616 147.584C216.343 147.034 214.872 147.129 213.685 147.84C208.177 151.139 202.202 153.549 195.924 155.001C194.568 155.315 193.458 156.259 192.958 157.523L189.153 167.136H174.385L170.579 157.52C170.079 156.255 168.969 155.312 167.613 154.998C161.34 153.547 155.365 151.138 149.857 147.839C148.67 147.128 147.199 147.033 145.927 147.582L136.235 151.768L125.792 141.611L130.095 132.19C130.66 130.951 130.562 129.521 129.831 128.366C126.439 123.011 123.962 117.199 122.468 111.092C122.145 109.774 121.175 108.695 119.875 108.208L109.991 104.508V90.144L119.877 86.4425C121.178 85.9555 122.147 84.8766 122.47 83.5584C123.963 77.4542 126.44 71.6439 129.832 66.2882C130.563 65.1338 130.661 63.7036 130.096 62.4645L125.793 53.041L136.236 42.884L145.927 47.0694C147.2 47.6186 148.67 47.5235 149.858 46.8125C155.367 43.5143 161.34 41.1054 167.614 39.6531C168.969 39.3392 170.079 38.396 170.579 37.1312L174.386 27.5151H189.154L192.96 37.1312C193.461 38.396 194.57 39.3392 195.925 39.6531C202.2 41.1054 208.174 43.5143 213.682 46.8125C214.87 47.5235 216.34 47.6186 217.613 47.0694L227.303 42.8835L237.747 53.0405L233.445 62.4619C232.879 63.7005 232.978 65.1313 233.709 66.2851C237.1 71.6408 239.577 77.4527 241.071 83.5589C241.393 84.8772 242.363 85.9565 243.664 86.443L253.548 90.1445V104.509ZM181.769 55.0158C157.781 55.0158 138.265 73.9963 138.265 97.3265C138.265 120.657 157.781 139.637 181.769 139.637C205.757 139.637 225.273 120.657 225.273 97.3265C225.273 73.9963 205.757 55.0158 181.769 55.0158ZM181.769 131.417C162.441 131.417 146.717 116.124 146.717 97.3265C146.717 78.5289 162.442 63.2356 181.769 63.2356C201.097 63.2356 216.821 78.5289 216.821 97.3265C216.821 116.124 201.097 131.417 181.769 131.417ZM12.6077 88.0263L9.97132 93.7997C9.26191 95.3532 9.60896 97.1718 10.845 98.374L20.1698 107.443C21.4063 108.645 23.2747 108.983 24.8731 108.293L30.8119 105.728C33.7557 107.302 36.8575 108.553 40.0775 109.463L42.4102 115.357C43.0377 116.943 44.6055 117.99 46.3539 117.99H59.5416C61.29 117.99 62.8573 116.943 63.4853 115.357L65.8169 109.466C69.0391 108.555 72.143 107.304 75.0862 105.729L81.0219 108.293C82.6182 108.983 84.4887 108.646 85.7252 107.443L95.05 98.3735C96.2861 97.1713 96.6331 95.3532 95.9237 93.7992L93.2863 88.0233C94.9047 85.1607 96.1915 82.1436 97.1275 79.0113L103.188 76.7427C104.819 76.1324 105.896 74.6076 105.896 72.9071V60.0818C105.896 58.3813 104.819 56.857 103.188 56.2462L97.1296 53.9781C96.1936 50.8453 94.9063 47.8271 93.2873 44.9636L95.9237 39.1902C96.6331 37.6367 96.2861 35.8181 95.05 34.6159L85.7258 25.548C84.4892 24.3459 82.6209 24.0083 81.0224 24.6978L75.0836 27.2628C72.1403 25.6888 69.0381 24.4373 65.818 23.527L63.4859 17.6334C62.8583 16.047 61.2906 15 59.5421 15H46.3545C44.606 15 43.0388 16.047 42.4107 17.6334L40.0781 23.527C36.8585 24.4378 33.7557 25.6888 30.8125 27.2634L24.8736 24.6978C23.2752 24.0083 21.4069 24.3459 20.1703 25.548L10.845 34.6175C9.60896 35.8196 9.26191 37.6377 9.97132 39.1918L12.6087 44.9661C10.9897 47.8287 9.70351 50.8458 8.76643 53.9786L2.70769 56.2472C1.07652 56.8581 0 58.3828 0 60.0828V72.9082C0 74.6086 1.07652 76.1329 2.70769 76.7437L8.76538 79.0113C9.70245 82.1451 10.9892 85.1638 12.6077 88.0263ZM8.45161 62.9047L13.8168 60.896C15.1173 60.409 16.0871 59.3307 16.4093 58.0124C17.3295 54.2519 18.8561 50.6722 20.9452 47.3735C21.6763 46.2191 21.7751 44.7884 21.2093 43.5498L18.873 38.4345L24.0945 33.3563L29.3551 35.6285C30.6281 36.1777 32.0982 36.0826 33.2856 35.3721C36.68 33.3393 40.3601 31.8556 44.2246 30.9612C45.5795 30.6473 46.6893 29.7041 47.1896 28.4393L49.2555 23.2203H56.6395L58.7049 28.4393C59.2051 29.7041 60.3149 30.6473 61.6698 30.9612C65.5349 31.8556 69.215 33.3398 72.6089 35.3716C73.7963 36.0826 75.2669 36.1777 76.5394 35.6285L81.8 33.3563L87.0215 38.4345L84.6862 43.5482C84.121 44.7869 84.2193 46.2171 84.9503 47.3714C87.0405 50.6727 88.5666 54.2529 89.4857 58.0124C89.8079 59.3307 90.7782 60.41 92.0787 60.8971L97.4434 62.9052V70.0873L92.0771 72.096C90.7772 72.5825 89.8068 73.6613 89.4846 74.9795C88.5645 78.7385 87.0384 82.3182 84.9493 85.618C84.2182 86.7723 84.12 88.2026 84.6852 89.4412L87.0215 94.5569L81.8 99.6357L76.542 97.3645C75.269 96.8143 73.7984 96.9099 72.611 97.6214C69.2187 99.6537 65.5375 101.138 61.6698 102.033C60.3144 102.347 59.2046 103.29 58.7044 104.555L56.6395 109.772H49.2555L47.1896 104.553C46.6893 103.288 45.5795 102.345 44.2246 102.031C40.3596 101.136 36.6795 99.6527 33.2861 97.6204C32.0998 96.9093 30.6281 96.8143 29.3556 97.3635L24.0945 99.6357L18.873 94.5569L21.2083 89.4432C21.7735 88.2046 21.6752 86.7744 20.9442 85.62C18.855 82.3203 17.329 78.7401 16.4083 74.9785C16.0861 73.6603 15.1162 72.5809 13.8157 72.0944L8.45161 70.0867V62.9047ZM52.9478 92.9731C67.9594 92.9731 80.1725 81.0956 80.1725 66.4957C80.1725 51.8959 67.9594 40.0173 52.9478 40.0173C37.9361 40.0173 25.723 51.8954 25.723 66.4957C25.723 81.0956 37.9361 92.9731 52.9478 92.9731ZM52.9478 48.2376C63.2994 48.2376 71.7209 56.4281 71.7209 66.4962C71.7209 76.5634 63.2994 84.7539 52.9478 84.7539C42.5961 84.7539 34.1746 76.5634 34.1746 66.4962C34.1746 56.4281 42.5967 48.2376 52.9478 48.2376ZM210.693 187.937L161.58 200.932C159.418 201.504 157.304 201.791 155.195 201.791C155.191 201.791 155.186 201.791 155.182 201.791C156.175 200.796 157.067 199.642 157.843 198.336C162.273 190.875 159.677 181.204 151.934 176.32C151.774 176.219 151.608 176.129 151.435 176.05C139.839 170.738 128.967 163.368 120.232 157.446C117.192 155.386 114.322 153.44 111.85 151.881C101.813 145.548 90.7254 147.243 81.2031 149.737L45.0085 159.216L43.521 153.626C42.8069 150.941 41.0548 148.684 38.5869 147.271C36.119 145.858 33.2413 145.463 30.4797 146.157L16.7522 149.612C11.0404 151.05 7.59536 156.739 9.07281 162.295L27.5258 231.647C28.24 234.332 29.9921 236.589 32.46 238.002C34.1329 238.96 35.9944 239.451 37.8807 239.451C38.7765 239.451 39.6777 239.34 40.5667 239.116L54.2942 235.662C57.0547 234.967 59.3747 233.263 60.8278 230.863C62.281 228.463 62.6877 225.663 61.9736 222.979L60.1512 216.13L68.0323 214.076L118.422 242.37C123.899 245.446 129.735 247 135.66 247C138.929 247 142.225 246.527 145.503 245.576L235.32 219.497C243.667 217.073 248.923 206.864 246.346 198.077C245.096 193.815 238.831 180.493 210.693 187.937ZM53.5452 226.692C53.3672 226.986 52.9525 227.508 52.1771 227.704L38.449 231.159C37.6736 231.352 37.0513 231.093 36.7481 230.92C36.446 230.746 35.9088 230.343 35.7081 229.589L17.2556 160.235C16.9502 159.087 17.6898 157.866 18.8703 157.569L32.5979 154.114C32.7928 154.064 32.9782 154.044 33.1515 154.044C33.6665 154.044 34.0727 154.224 34.2993 154.353C34.6014 154.526 35.1386 154.929 35.3394 155.683L53.7919 225.037C53.9921 225.792 53.7232 226.398 53.5452 226.692ZM232.902 211.62L143.085 237.699C136.05 239.74 129.174 238.916 122.648 235.251L70.7421 206.106C69.7712 205.561 68.6165 205.413 67.5358 205.695L58.034 208.171L47.1262 167.173L83.401 157.674C91.513 155.55 100.018 154.213 107.251 158.777C109.604 160.261 112.29 162.082 115.399 164.19C124.326 170.241 135.419 177.761 147.551 183.356C151.418 185.931 152.7 190.562 150.524 194.227C147.662 199.047 143.017 198.535 139.564 197.212C133.665 194.337 128.181 191.142 122.38 187.759C119.623 186.152 116.773 184.49 113.827 182.836C111.806 181.701 109.221 182.374 108.054 184.34C106.887 186.306 107.58 188.82 109.601 189.954C112.487 191.575 115.307 193.219 118.035 194.809C124.028 198.303 129.689 201.604 135.935 204.639C135.957 204.65 135.98 204.657 136.003 204.667C136.032 204.681 136.059 204.697 136.089 204.71L141.142 206.923C148.776 210.242 156.188 210.877 163.799 208.864L212.913 195.87C226.857 192.181 236.318 193.848 238.219 200.331C239.522 204.779 236.84 210.477 232.902 211.62ZM32.7706 166.342C32.4875 168.692 30.299 170.374 27.8819 170.099C25.4652 169.824 23.7358 167.695 24.019 165.344C24.3021 162.994 26.4905 161.312 28.9072 161.587C31.3243 161.862 33.0537 163.991 32.7706 166.342Z" fill="#8E0000"/>
</svg>
