<svg width="262" height="262" viewBox="0 0 262 262" fill="none" xmlns="http://www.w3.org/2000/svg">
<path fill-rule="evenodd" clip-rule="evenodd" d="M94.3589 106.262C94.3589 108.302 92.6937 109.971 90.6497 109.971C88.6105 109.971 86.9406 108.302 86.9406 106.262C86.9406 104.218 88.6105 102.553 90.6497 102.553C92.6937 102.553 94.3589 104.218 94.3589 106.262ZM90.6497 55.2582C92.7011 55.2582 94.3589 56.9213 94.3589 58.9668V95.9467C94.3589 97.9923 92.7011 99.6554 90.6497 99.6554C88.6057 99.6554 86.9406 97.9923 86.9406 95.9467V58.9668C86.9411 56.9213 88.6057 55.2582 90.6497 55.2582ZM254.584 117.881H177.581C175.535 117.881 173.872 119.544 173.872 121.59V125.298L154.986 110.951L173.872 96.6037V100.307C173.872 102.352 175.535 104.015 177.581 104.015H254.584V117.881ZM151.747 104.09C152.712 99.6877 153.203 95.1737 153.203 90.6492C153.203 56.153 125.146 28.0892 90.6503 28.0892C56.1594 28.0892 28.0972 56.153 28.0972 90.6492C28.0972 125.14 56.1594 153.203 90.6503 153.203C115.684 153.203 138.482 138.014 148.225 115.132L146.608 113.902C145.685 113.203 145.142 112.112 145.142 110.951C145.142 109.791 145.686 108.699 146.608 107.996L151.747 104.09ZM90.6497 173.881C122.132 173.881 151.022 155.942 165.078 127.932L154.302 119.746C149.163 130.994 141.168 140.647 130.951 147.858C119.121 156.208 105.189 160.621 90.6497 160.621C52.0682 160.621 20.6783 129.23 20.6783 90.6492C20.6783 52.064 52.0682 20.673 90.6497 20.673C129.236 20.673 160.621 52.064 160.621 90.6492C160.621 92.9804 160.499 95.3062 160.272 97.622L173.807 87.3379C173.161 70.6808 167.658 54.9032 157.809 41.4838H148.85C146.804 41.4838 145.141 39.825 145.141 37.7751V27.7396C130.021 14.6269 110.718 7.41569 90.6492 7.41569C44.7569 7.41569 7.41728 44.7522 7.41728 90.6487C7.41781 136.541 44.758 173.881 90.6497 173.881ZM175.445 163.509L163.51 175.444L148.48 160.408C152.807 156.833 156.808 152.843 160.432 148.488L175.445 163.509ZM191.812 168.154L252.139 228.489C255.043 231.386 255.043 236.107 252.147 239.011L239.013 252.139C237.619 253.538 235.748 254.306 233.751 254.306C231.754 254.306 229.887 253.538 228.491 252.139L168.162 191.81C165.258 188.907 165.258 184.186 168.162 181.283L181.29 168.154C184.189 165.256 188.908 165.256 191.812 168.154ZM152.558 20.2004H229.561C231.605 20.2004 233.27 18.5374 233.27 16.4918V12.7837L252.156 27.1303L233.27 41.4774V37.7746C233.27 35.729 231.605 34.066 229.561 34.066H152.558V20.2004ZM258.291 96.5995H181.29V89.1281C181.29 89.0545 181.278 88.9851 181.273 88.9109C180.956 71.8782 175.986 55.6232 166.82 41.4833H225.851V48.9535C225.851 50.3623 226.647 51.6497 227.908 52.2749C228.432 52.535 228.995 52.6621 229.556 52.6621C230.356 52.6621 231.144 52.4068 231.802 51.9035L260.532 30.0866C261.454 29.3867 262 28.29 262 27.1298C262 25.9748 261.454 24.8786 260.532 24.1793L231.802 2.3624C230.677 1.5073 229.174 1.36531 227.908 1.99101C226.647 2.61671 225.851 3.90255 225.851 5.31342V12.7826H148.851C146.804 12.7826 145.142 14.4409 145.142 16.4907V18.2073C129.49 6.42124 110.417 0 90.6497 0C40.67 0 0 40.6615 0 90.6492C0 140.631 40.67 181.299 90.6503 181.299C109.537 181.299 127.574 175.365 142.517 164.939L159.355 181.776C157.608 186.963 158.789 192.928 162.917 197.055L223.244 257.384C226.043 260.182 229.772 261.724 233.75 261.724C237.729 261.724 241.46 260.182 244.257 257.384L257.385 244.256C263.181 238.46 263.181 229.034 257.385 223.244L197.056 162.91C192.933 158.788 186.964 157.601 181.782 159.349L164.976 142.544C167.212 139.355 169.254 135.995 171.081 132.488L175.34 135.726C175.996 136.223 176.786 136.478 177.581 136.478C178.142 136.478 178.708 136.351 179.229 136.091C180.495 135.465 181.29 134.178 181.29 132.769V125.299H258.291C260.337 125.299 262 123.64 262 121.59V100.308C261.999 98.2572 260.337 96.5995 258.291 96.5995ZM128.506 112.339C128.675 112.043 129.015 111.258 128.496 110.353L92.3626 47.7715C91.854 46.8873 90.9941 46.7919 90.6503 46.7919C90.3064 46.7919 89.4487 46.8873 88.9401 47.7715L52.8068 110.353C52.286 111.253 52.6272 112.043 52.7967 112.339C52.971 112.631 53.4796 113.319 54.5165 113.319H126.784C127.823 113.32 128.334 112.631 128.506 112.339ZM90.6497 39.3746C87.2547 39.3746 84.2137 41.1283 82.5188 44.0634L46.3802 106.644C44.6801 109.596 44.6801 113.108 46.3755 116.048C48.0703 118.984 51.1167 120.737 54.5165 120.737H126.784C130.184 120.737 133.232 118.984 134.927 116.048C136.622 113.108 136.622 109.596 134.922 106.644L98.7886 44.0634C97.0932 41.1283 94.0527 39.3746 90.6497 39.3746Z" fill="#8E0000"/>
</svg>
