<svg width="28" height="30" viewBox="0 0 28 30" fill="none" xmlns="http://www.w3.org/2000/svg">
<path d="M7.16799 4.51142C7.19624 4.59858 7.17391 4.69414 7.11009 4.75981L5.97857 5.92315L6.21099 7.52827C6.22413 7.61895 6.18602 7.70945 6.11202 7.76333C6.03796 7.81729 5.94021 7.82568 5.85807 7.78525L4.40194 7.06907L2.94766 7.78525C2.91313 7.80222 2.87588 7.81062 2.83882 7.81062C2.78764 7.81062 2.73676 7.79469 2.69378 7.76346C2.61978 7.70963 2.58161 7.6192 2.59462 7.52852L2.82531 5.92315L1.69546 4.75969C1.6317 4.69407 1.60943 4.59846 1.63768 4.51136C1.66592 4.42426 1.73998 4.35994 1.83014 4.34432L3.4286 4.06654L4.18364 2.63074C4.22625 2.54969 4.31024 2.49889 4.40182 2.49883H4.40194C4.49339 2.49883 4.57738 2.54951 4.62012 2.63049L5.37708 4.06648L6.97566 4.34432C7.06581 4.36 7.13994 4.42432 7.16812 4.51148L7.16799 4.51142ZM12.4215 3.42247L12.1908 5.02982C12.1778 5.12049 12.216 5.21099 12.2901 5.26481C12.333 5.29593 12.3839 5.31185 12.435 5.31185C12.4722 5.31185 12.5095 5.30346 12.5441 5.28636L13.9981 4.56852L15.454 5.28642C15.5362 5.32691 15.6339 5.31852 15.708 5.26463C15.7821 5.21074 15.8202 5.12025 15.8071 5.02951L15.5747 3.42247L16.7062 2.25914C16.7701 2.19346 16.7924 2.09778 16.7641 2.01062C16.7358 1.92346 16.6616 1.85914 16.5714 1.84352L14.9729 1.56753L14.2161 0.131667C14.1734 0.050679 14.0894 0 13.9979 0H13.9978C13.9063 0 13.8223 0.0508025 13.7796 0.131914L13.0247 1.56759L11.4264 1.84358C11.3362 1.85914 11.262 1.9234 11.2337 2.01056C11.2055 2.09765 11.2276 2.19333 11.2915 2.25901L12.4214 3.42253L12.4215 3.42247ZM21.7909 7.3466C21.7779 7.43728 21.8161 7.52772 21.8901 7.58148C21.9641 7.63531 22.0618 7.64364 22.144 7.60327L23.5982 6.8871L25.0544 7.60327C25.0888 7.62025 25.1261 7.62858 25.1632 7.62858C25.2144 7.62858 25.2653 7.61259 25.3083 7.58136C25.3823 7.52741 25.4204 7.43698 25.4073 7.3463L25.1749 5.7392L26.3064 4.57586C26.3703 4.51019 26.3925 4.41451 26.3643 4.32735C26.336 4.24019 26.2618 4.17586 26.1716 4.16025L24.5732 3.88426L23.8164 2.4484C23.7737 2.36741 23.6897 2.31673 23.5982 2.31673H23.5981C23.5065 2.31673 23.4226 2.36753 23.3799 2.44864L22.6249 3.88432L21.0267 4.16025C20.9365 4.1758 20.8623 4.24006 20.834 4.32722C20.8057 4.41432 20.8279 4.51 20.8917 4.57568L22.0216 5.7392L21.7909 7.34654L21.7909 7.3466ZM15.9808 24.5449C15.9808 25.6465 15.0854 26.5428 13.9849 26.5428C12.8843 26.5428 11.9889 25.6465 11.9889 24.5449C11.9889 23.4432 12.8843 22.5469 13.9849 22.5469C15.0854 22.5469 15.9808 23.4432 15.9808 24.5449ZM15.1459 23.585C14.9445 23.4012 14.6324 23.4157 14.4489 23.6172L13.7067 24.432L13.5002 24.233C13.304 24.0438 12.9917 24.0496 12.8027 24.246C12.6136 24.4424 12.6195 24.7551 12.8157 24.9443L13.3873 25.4954C13.4794 25.5842 13.6021 25.6336 13.7296 25.6336C13.7349 25.6336 13.7402 25.6335 13.7456 25.6333C13.8787 25.629 14.0044 25.571 14.0941 25.4725L15.178 24.2827C15.3616 24.0811 15.3471 23.7688 15.1459 23.585ZM18.3307 23.0978L19.4345 23.608V25.4817L18.3307 25.992L18.0795 26.5978L18.4993 27.7401L17.1769 29.0639L16.0357 28.6436L15.4304 28.895L14.9207 30H13.0506L12.5409 28.8952L11.9341 28.6436L10.7928 29.064L9.47038 27.7402L9.89039 26.5975L9.64045 25.992L8.53527 25.482V23.6078L9.64045 23.0978L9.89039 22.4923L9.47038 21.3496L10.7928 20.0259L11.9341 20.4462L12.5409 20.1946L13.0506 19.0898H14.9207L15.4304 20.1948L16.0357 20.4461L17.1769 20.0259L18.4993 21.3496L18.0795 22.492L18.3307 23.0978V23.0978ZM16.9675 24.5449C16.9675 22.8986 15.6295 21.5593 13.9849 21.5593C12.3402 21.5593 11.0022 22.8986 11.0022 24.5449C11.0022 26.1912 12.3402 27.5305 13.9849 27.5305C15.6295 27.5305 16.9675 26.1912 16.9675 24.5449ZM2.3469 16.0539C1.05283 16.0539 0 17.0154 0 18.1972V21.8872H6.36725V17.6006C6.36725 17.0591 6.47443 16.541 6.6685 16.0627C6.599 16.057 6.52907 16.054 6.45877 16.054H2.34697L2.3469 16.0539ZM6.28573 12.4228C6.28573 11.3836 5.44109 10.538 4.40281 10.538C3.36453 10.538 2.51988 11.3835 2.51988 12.4228C2.51988 13.5299 3.10405 15.0888 4.40281 15.0888C5.70156 15.0888 6.28573 13.5298 6.28573 12.4228ZM14.001 13.3554C15.1321 13.3554 15.8239 12.6404 16.2052 12.0406C16.6872 11.2822 16.9749 10.2344 16.9749 9.23772C16.9749 7.59623 15.6409 6.26074 14.001 6.26074C12.3612 6.26074 11.027 7.59617 11.027 9.23772C11.027 10.2104 11.3061 11.2444 11.7736 12.0036C12.326 12.9006 13.0753 13.3554 14.001 13.3554H14.001ZM23.5992 10.538C22.5609 10.538 21.7162 11.3835 21.7162 12.4228C21.7162 13.4536 22.2275 15.0888 23.5992 15.0888C24.8979 15.0888 25.4821 13.5298 25.4821 12.4228C25.4821 11.3836 24.6374 10.538 23.5992 10.538ZM25.6551 16.0539H21.5413C21.4715 16.0539 21.4021 16.0569 21.3333 16.0624C21.5275 16.5409 21.6347 17.0591 21.6347 17.6005V21.8872H28V18.1971C28 17.0153 26.948 16.0538 25.6551 16.0538V16.0539ZM17.0004 14.2466H10.9996C8.98932 14.2466 7.35392 15.7512 7.35392 17.6006V21.8872H8.6166L8.32646 21.0978L9.64816 19.7748V18.3041C9.64816 18.0314 9.86905 17.8102 10.1415 17.8102C10.4139 17.8102 10.6348 18.0314 10.6348 18.3041V18.9152L11.8395 19.359L12.4194 18.1021H15.5519L16.1315 19.3585L17.3651 18.9041V18.3041C17.3651 18.0314 17.586 17.8102 17.8584 17.8102C18.1309 17.8102 18.3518 18.0314 18.3518 18.3041V19.8052L19.6432 21.0979L19.3531 21.8873H20.648V17.6006C20.648 15.7512 19.0117 14.2467 17.0004 14.2467L17.0004 14.2466Z" fill="white"/>
</svg>
