<svg width="24" height="24" viewBox="0 0 24 24" fill="none" xmlns="http://www.w3.org/2000/svg">
<path d="M22.6 24C19.8222 24 17.0778 23.3947 14.3667 22.184C11.6556 20.9733 9.18889 19.2564 6.96667 17.0333C4.74445 14.8102 3.028 12.3436 1.81733 9.63333C0.606667 6.92311 0.000888889 4.17867 0 1.4C0 1 0.133333 0.666667 0.4 0.4C0.666667 0.133333 1 0 1.4 0H6.8C7.11111 0 7.38889 0.105778 7.63333 0.317333C7.87778 0.528889 8.02222 0.778667 8.06667 1.06667L8.93333 5.73333C8.97778 6.08889 8.96667 6.38889 8.9 6.63333C8.83333 6.87778 8.71111 7.08889 8.53333 7.26667L5.3 10.5333C5.74444 11.3556 6.272 12.1498 6.88267 12.916C7.49333 13.6822 8.16578 14.4213 8.9 15.1333C9.58889 15.8222 10.3111 16.4613 11.0667 17.0507C11.8222 17.64 12.6222 18.1787 13.4667 18.6667L16.6 15.5333C16.8 15.3333 17.0613 15.1836 17.384 15.084C17.7067 14.9844 18.0231 14.9564 18.3333 15L22.9333 15.9333C23.2444 16.0222 23.5 16.1836 23.7 16.4173C23.9 16.6511 24 16.912 24 17.2V22.6C24 23 23.8667 23.3333 23.6 23.6C23.3333 23.8667 23 24 22.6 24Z" fill="white"/>
</svg>
