<svg width="65" height="45" viewBox="0 0 65 45" fill="none" xmlns="http://www.w3.org/2000/svg">
<path d="M34.1071 0H14.8214C12.1586 0 10 2.15862 10 4.82143V40.1786C10 42.8414 12.1586 45 14.8214 45H34.1071C36.77 45 38.9286 42.8414 38.9286 40.1786V4.82143C38.9286 2.15862 36.77 0 34.1071 0ZM37.3214 39.375C37.3214 41.5903 35.5197 43.3929 33.3036 43.3929H15.625C13.4097 43.3929 11.6071 41.5903 11.6071 39.375V5.625C11.6071 3.40969 13.4097 1.60714 15.625 1.60714H33.3036C35.5197 1.60714 37.3214 3.40969 37.3214 5.625V39.375Z" fill="#E41F26"/>
<path d="M33.3061 3.21338H27.6811C27.6811 4.98855 26.242 6.42766 24.4668 6.42766C22.6916 6.42766 21.2525 4.98855 21.2525 3.21338H15.6275C14.2982 3.21338 13.2168 4.29475 13.2168 5.62409V39.3741C13.2168 40.7034 14.2982 41.7848 15.6275 41.7848H33.3061C34.6354 41.7848 35.7168 40.7034 35.7168 39.3741V5.62409C35.7168 4.29475 34.6354 3.21338 33.3061 3.21338ZM22.585 27.5191C22.9193 27.8118 22.953 28.3195 22.6611 28.653C22.5018 28.8351 22.2797 28.9277 22.0561 28.9277C21.8677 28.9277 21.6794 28.8625 21.5272 28.7291L15.0986 23.1041C14.9236 22.9511 14.8239 22.7306 14.8239 22.4991C14.8239 22.2676 14.9236 22.0471 15.0986 21.8941L21.5272 16.2691C21.8615 15.9764 22.3684 16.0085 22.6611 16.3452C22.953 16.6787 22.9193 17.1864 22.585 17.4791L16.8478 22.4991L22.585 27.5191ZM33.835 23.1041L27.4064 28.7291C27.2542 28.8625 27.0658 28.9277 26.8775 28.9277C26.6539 28.9277 26.4318 28.8351 26.2725 28.653C25.9806 28.3195 26.0143 27.8118 26.3486 27.5191L32.0858 22.4991L26.3486 17.4791C26.0143 17.1864 25.9806 16.6787 26.2725 16.3452C26.5652 16.0085 27.0721 15.9764 27.4064 16.2691L33.835 21.8941C34.01 22.0471 34.1097 22.2676 34.1097 22.4991C34.1097 22.7306 34.01 22.9511 33.835 23.1041Z" fill="#E41F26"/>
<path d="M54.1817 25.5482L51.917 24.2707C52.0049 23.6727 52.0488 23.081 52.0488 22.4995C52.0488 21.918 52.0049 21.3263 51.917 20.7284L54.1817 19.4508C54.5584 19.2382 54.8331 18.8835 54.9445 18.4668C55.0559 18.0493 54.9963 17.6051 54.7766 17.2332L51.487 11.6662C51.0428 10.9144 50.0791 10.6539 49.3132 11.0839L47.0092 12.3843C46.0377 11.6372 44.9611 11.0267 43.8248 10.5762V8.03524C43.8248 7.14771 43.106 6.4281 42.2176 6.4281H40.5352V16.071C44.0856 16.071 46.9637 18.9491 46.9637 22.4995C46.9637 26.05 44.0856 28.9281 40.5352 28.9281V38.571H42.2176C43.106 38.571 43.8248 37.8514 43.8248 36.9638V34.4236C44.9611 33.9724 46.0377 33.3611 47.0092 32.6148L49.3132 33.9151C50.0791 34.3459 51.0428 34.0854 51.487 33.3328L54.7766 27.7659C54.9963 27.3939 55.0559 26.9498 54.9445 26.5323C54.8331 26.1156 54.5584 25.7609 54.1817 25.5482Z" fill="#E41F26"/>
</svg>
