<svg width="65" height="45" viewBox="0 0 65 45" fill="none" xmlns="http://www.w3.org/2000/svg">
<path d="M40.1705 22.6282C38.0432 18.0561 33.462 15.0834 28.3072 15.0834C23.1525 15.0834 18.5713 18.0561 16.4439 22.6282C9.91975 21.9253 4 27.184 4 33.7812C4 39.9676 9.03235 45 15.2187 45H41.3957C47.5821 45 52.6145 39.9676 52.6145 33.7812C52.6145 27.184 46.691 21.927 40.1705 22.6282Z" fill="#E41F26"/>
<path d="M47.6513 7.66949C45.524 3.09737 40.9428 0 35.788 0C30.6332 0 26.052 3.09737 23.9247 7.66949C17.4069 6.97294 11.2146 12.2676 11.5207 19.3239C12.4154 19.0847 13.3385 18.9235 14.2836 18.8589C17.3659 14.2266 22.6338 11.3434 28.3089 11.3434C33.9839 11.3434 39.2537 14.2266 42.3341 18.859C48.0508 19.251 52.9983 23.0101 55.1718 28.1007C58.1401 26.0803 60.0952 22.6764 60.0952 18.8225C60.0952 12.2253 54.1681 6.97381 47.6513 7.66949Z" fill="#E41F26"/>
</svg>
