<svg width="65" height="45" viewBox="0 0 65 45" fill="none" xmlns="http://www.w3.org/2000/svg">
<g clip-path="url(#clip0_3967_2659)">
<path d="M34.8275 12.4139C34.8275 5.56924 29.2584 0.00012207 22.4137 0.00012207C15.5691 0.00012207 10 5.56924 10 12.4139C10 19.2585 15.5691 24.8276 22.4137 24.8276C29.2584 24.8276 34.8275 19.2585 34.8275 12.4139ZM11.5517 12.4139C11.5517 6.42424 16.4241 1.55184 22.4137 1.55184C28.4034 1.55184 33.2758 6.42424 33.2758 12.4139C33.2758 18.4035 28.4034 23.2759 22.4137 23.2759C16.4241 23.2759 11.5517 18.4035 11.5517 12.4139Z" fill="#E41F26"/>
<path d="M22.4126 13.1881C22.8411 13.1881 23.1884 12.8407 23.1884 12.4122C23.1884 11.9837 22.8411 11.6364 22.4126 11.6364C21.9841 11.6364 21.6367 11.9837 21.6367 12.4122C21.6367 12.8407 21.9841 13.1881 22.4126 13.1881Z" fill="#E41F26"/>
<path d="M31.7222 12.4124C31.7222 7.2785 27.5457 3.10205 22.4119 3.10205C17.278 3.10205 13.1016 7.2785 13.1016 12.4124C13.1016 17.5462 17.278 21.7227 22.4119 21.7227C27.5457 21.7227 31.7222 17.5462 31.7222 12.4124ZM28.6187 10.0848C29.902 10.0848 30.9463 11.1291 30.9463 12.4124C30.9463 13.6956 29.902 14.7399 28.6187 14.7399C27.3355 14.7399 26.2912 13.6956 26.2912 12.4124C26.2912 11.1291 27.3355 10.0848 28.6187 10.0848ZM16.205 14.7399C14.9217 14.7399 13.8774 13.6956 13.8774 12.4124C13.8774 11.1291 14.9217 10.0848 16.205 10.0848C17.4883 10.0848 18.5326 11.1291 18.5326 12.4124C18.5326 13.6956 17.4883 14.7399 16.205 14.7399ZM20.0843 12.4124C20.0843 11.1291 21.1286 10.0848 22.4119 10.0848C23.6951 10.0848 24.7394 11.1291 24.7394 12.4124C24.7394 13.6956 23.6951 14.7399 22.4119 14.7399C21.1286 14.7399 20.0843 13.6956 20.0843 12.4124Z" fill="#E41F26"/>
<path d="M16.2075 13.1881C16.636 13.1881 16.9834 12.8407 16.9834 12.4122C16.9834 11.9837 16.636 11.6364 16.2075 11.6364C15.779 11.6364 15.4316 11.9837 15.4316 12.4122C15.4316 12.8407 15.779 13.1881 16.2075 13.1881Z" fill="#E41F26"/>
<path d="M28.6216 13.1881C29.0501 13.1881 29.3974 12.8407 29.3974 12.4122C29.3974 11.9837 29.0501 11.6364 28.6216 11.6364C28.1931 11.6364 27.8457 11.9837 27.8457 12.4122C27.8457 12.8407 28.1931 13.1881 28.6216 13.1881Z" fill="#E41F26"/>
<path d="M20.3535 26.2117C20.5855 26.761 20.736 27.3405 20.8082 27.9325H24.0163C24.0885 27.3405 24.239 26.761 24.471 26.2117C23.7968 26.3118 23.1132 26.3808 22.4119 26.3808C21.7105 26.3808 21.027 26.3118 20.3535 26.2117Z" fill="#E41F26"/>
<path d="M22.4126 41.8967C22.8411 41.8967 23.1884 41.5493 23.1884 41.1208C23.1884 40.6923 22.8411 40.345 22.4126 40.345C21.9841 40.345 21.6367 40.6923 21.6367 41.1208C21.6367 41.5493 21.9841 41.8967 22.4126 41.8967Z" fill="#E41F26"/>
<path d="M24.1186 29.4829H20.7211L18.6085 40.0447C18.558 40.2953 18.5332 40.5513 18.5332 40.8058V41.1208C18.5332 43.2598 20.2735 45.0001 22.4125 45.0001C24.5515 45.0001 26.2918 43.2598 26.2918 41.1208V40.8058C26.2918 40.5513 26.267 40.2953 26.2165 40.0447L24.1186 29.4829ZM22.4125 43.4484C21.1292 43.4484 20.0849 42.4041 20.0849 41.1208C20.0849 39.8375 21.1292 38.7932 22.4125 38.7932C23.6958 38.7932 24.7401 39.8375 24.7401 41.1208C24.7401 42.4041 23.6958 43.4484 22.4125 43.4484Z" fill="#E41F26"/>
<path d="M54.2238 34.1372H43.3618C42.9335 34.1372 42.5859 34.4848 42.5859 34.9131V44.2234C42.5859 44.6516 42.9335 44.9992 43.3618 44.9992H54.2238C54.6521 44.9992 54.9997 44.6516 54.9997 44.2234V34.9131C54.9997 34.4848 54.6521 34.1372 54.2238 34.1372ZM44.1377 38.7924H50.3445V40.3441H44.1377V38.7924ZM53.448 43.4475H44.1377V41.8958H53.448V43.4475ZM53.448 40.3441H51.8962V38.7924H53.448V40.3441ZM53.448 37.2406H44.1377V35.6889H53.448V37.2406Z" fill="#E41F26"/>
<path d="M54.2238 17.0686H43.3618C42.9335 17.0686 42.5859 17.417 42.5859 17.8445V27.1548C42.5859 27.583 42.9335 27.9306 43.3618 27.9306H54.2238C54.6521 27.9306 54.9997 27.583 54.9997 27.1548V17.8445C54.9997 17.417 54.6521 17.0686 54.2238 17.0686ZM50.3445 26.3789H44.1377V24.8272H50.3445V26.3789ZM53.448 26.3789H51.8962V24.8272H53.448V26.3789ZM53.448 23.2755H44.1377V21.7238H53.448V23.2755ZM53.448 20.172H44.1377V18.6203H53.448V20.172Z" fill="#E41F26"/>
<path d="M54.2238 0.00012207H43.3618C42.9335 0.00012207 42.5859 0.348483 42.5859 0.775981V10.0863C42.5859 10.5138 42.9335 10.8621 43.3618 10.8621H54.2238C54.6521 10.8621 54.9997 10.5138 54.9997 10.0863V0.775981C54.9997 0.348483 54.6521 0.00012207 54.2238 0.00012207ZM44.1377 4.65528H45.6894V6.20699H44.1377V4.65528ZM53.448 9.31043H44.1377V7.75871H53.448V9.31043ZM53.448 6.20699H47.2411V4.65528H53.448V6.20699ZM53.448 3.10356H44.1377V1.55184H53.448V3.10356Z" fill="#E41F26"/>
<path d="M34.7328 18.9802C34.4807 19.4504 34.1944 19.8981 33.8926 20.3341L36.8339 23.2754H41.0344V21.7237H37.4763L34.7328 18.9802Z" fill="#E41F26"/>
<path d="M29.0495 24.6801C28.5918 24.9283 28.1201 25.1541 27.6328 25.3504L37.5165 40.3454H41.0373V38.7937H38.3513L29.0495 24.6801Z" fill="#E41F26"/>
<path d="M35.2812 6.98477C35.5047 7.51158 35.6839 8.06089 35.8422 8.61795L38.2528 6.20736H41.035V4.65564H37.6104L35.2812 6.98477Z" fill="#E41F26"/>
</g>
<defs>
<clipPath id="clip0_3967_2659">
<rect width="65" height="45" fill="white"/>
</clipPath>
</defs>
</svg>
