<svg width="65" height="45" viewBox="0 0 65 45" fill="none" xmlns="http://www.w3.org/2000/svg">
<g clip-path="url(#clip0_3967_2675)">
<path d="M19.8379 8.29898C19.8379 7.26393 20.6754 6.41713 21.7198 6.41713H43.9913C45.0357 6.41713 45.8732 7.26393 45.8732 8.29898V11.9592H48.0655V4.96806C48.0655 4.40353 47.6045 3.94248 47.0399 3.94248H30.6397C29.52 3.94248 28.5132 3.32144 28.0051 2.33348L27.1112 0.58337C26.923 0.225813 26.5561 0 26.1515 0H18.7088C18.1349 0 17.6738 0.461045 17.6738 1.02558V11.9592H19.8379V8.29898Z" fill="#E41F26"/>
<path d="M21.7227 8.29944H43.9942V11.9596H21.7227V8.29944Z" fill="#E41F26"/>
<path d="M49.6384 13.8416H16.0758C15.4443 13.8416 14.9106 14.4009 15.0126 15.0742L17.4496 31.5592C17.5248 32.0955 17.9765 32.4907 18.5128 32.4907H21.6743V25.2173C21.6743 23.7024 22.8692 22.4604 24.4029 22.404C27.301 22.2628 29.5121 21.6042 31.1211 20.3809C31.648 19.9952 32.2408 19.7976 32.8618 19.7976C33.4734 19.7976 34.0662 19.9952 34.5743 20.3622C36.2021 21.6042 38.4132 22.2628 41.3395 22.4134C42.8356 22.4604 44.0305 23.7024 44.0305 25.2173V32.4907H47.2014C47.7283 32.4907 48.1894 32.0955 48.2647 31.5686L50.7016 15.0742C50.8024 14.4089 50.2791 13.8416 49.6384 13.8416Z" fill="#E41F26"/>
<path d="M41.244 24.2879C38.2048 24.1373 35.5326 23.4504 33.4531 21.8791C33.0956 21.6157 32.6157 21.6157 32.2582 21.8791C30.1787 23.4504 27.5065 24.1373 24.4674 24.2879C23.9593 24.3067 23.5547 24.7207 23.5547 25.2194V32.7092C23.5547 36.0589 24.8814 39.3239 27.356 41.5915C29.473 43.5392 31.656 44.5742 32.4934 44.9224C32.7286 45.0259 32.9827 45.0259 33.2179 44.9224C34.0271 44.5837 36.0689 43.6239 38.1201 41.8079C38.1389 41.7985 38.1484 41.7703 38.1671 41.7609C40.7452 39.4933 42.1473 36.1436 42.1473 32.6997V25.2194C42.1473 24.7207 41.752 24.3067 41.244 24.2879ZM34.3343 33.1942C34.1409 33.3554 34.0442 33.5971 34.0765 33.847C34.1812 34.54 34.3827 35.9099 34.5116 36.7883C34.576 37.2235 34.2376 37.6103 33.7944 37.6103H31.9168C31.4736 37.6103 31.1352 37.2235 31.1995 36.7802L31.6267 33.847C31.667 33.6052 31.5783 33.3554 31.3849 33.2023C30.8611 32.7752 30.5308 32.1224 30.5308 31.3972C30.5308 29.8661 32.0215 28.6654 33.6091 29.1892C34.2941 29.4148 34.842 29.9708 35.0596 30.6477C35.3819 31.655 35.0273 32.6221 34.3343 33.1942Z" fill="#E41F26"/>
</g>
<defs>
<clipPath id="clip0_3967_2675">
<rect width="65" height="45" fill="white"/>
</clipPath>
</defs>
</svg>
