<svg width="65" height="45" viewBox="0 0 65 45" fill="none" xmlns="http://www.w3.org/2000/svg">
<g clip-path="url(#clip0_3967_2681)">
<path d="M47.8074 0.000244141C48.4554 0.000244141 49.0757 0.118975 49.6479 0.335857L31.5324 13.8062C30.9194 14.2621 30.08 14.2621 29.4669 13.8062L11.3516 0.335857C11.9236 0.118975 12.5439 0.000244141 13.192 0.000244141H47.8074Z" fill="#E41F26"/>
<path d="M8 5.19246C8 4.26901 8.24108 3.40186 8.66372 2.65051L27.4018 16.5839C29.2409 17.9515 31.7591 17.9515 33.5983 16.5839L52.3363 2.65051C52.7589 3.40186 53 4.26901 53 5.19246V19.1603C50.9634 17.9822 48.5988 17.3078 46.0769 17.3078C38.4299 17.3078 32.2308 23.5069 32.2308 31.154C32.2308 31.7402 32.2671 32.3178 32.3379 32.8848H13.1923C10.3247 32.8848 8 30.5602 8 27.6925V5.19246Z" fill="#E41F26"/>
<path fill-rule="evenodd" clip-rule="evenodd" d="M52.9991 25.9618V27.988C55.0158 28.7007 56.4606 30.6241 56.4606 32.8849V39.8079C56.4606 42.6756 54.136 45.0002 51.2683 45.0002H40.8837C38.016 45.0002 35.6914 42.6756 35.6914 39.8079V32.8849C35.6914 30.6241 37.1363 28.7007 39.1529 27.988V25.9618C39.1529 22.1383 42.2526 19.0387 46.076 19.0387C49.8995 19.0387 52.9991 22.1383 52.9991 25.9618ZM49.5376 25.9618V27.6925H42.6145V25.9618C42.6145 24.05 44.1642 22.5002 46.076 22.5002C47.9878 22.5002 49.5376 24.05 49.5376 25.9618Z" fill="#E41F26"/>
</g>
<defs>
<clipPath id="clip0_3967_2681">
<rect width="65" height="45" fill="white"/>
</clipPath>
</defs>
</svg>
