<svg width="65" height="45" viewBox="0 0 65 45" fill="none" xmlns="http://www.w3.org/2000/svg">
<path fill-rule="evenodd" clip-rule="evenodd" d="M32.4995 21.0335H31.2321C31.1613 21.0335 31.101 20.9888 31.079 20.9198L30.5077 19.122C30.4982 19.092 30.4779 19.0701 30.4492 19.0588C29.8866 18.8377 29.3671 18.5279 28.9066 18.1467C28.8825 18.1268 28.8539 18.1198 28.8237 18.1263L27.0133 18.5198C26.944 18.5348 26.876 18.5039 26.8404 18.4411L25.573 16.1967C25.5375 16.1339 25.5453 16.0581 25.5928 16.0044L26.8304 14.5991C26.851 14.5757 26.8594 14.5469 26.8546 14.5157C26.7621 13.9124 26.7621 13.2965 26.8546 12.6932C26.8593 12.662 26.851 12.6332 26.8304 12.6098L25.5928 11.2045C25.5453 11.1506 25.5376 11.0749 25.573 11.0121L26.8404 8.76769C26.8759 8.70488 26.944 8.67395 27.0133 8.689L28.8237 9.08243C28.854 9.08902 28.8826 9.08196 28.9066 9.06209C29.3671 8.68089 29.8866 8.37108 30.4492 8.14996C30.4779 8.13867 30.4982 8.11679 30.5077 8.0868L31.079 6.289C31.101 6.22008 31.1611 6.17526 31.2321 6.17526H33.7669C33.8378 6.17526 33.8981 6.21996 33.9201 6.289L34.4914 8.0868C34.5009 8.11679 34.5212 8.13867 34.5499 8.14996C35.1125 8.37108 35.632 8.68089 36.0925 9.06209C36.1164 9.08196 36.1451 9.08902 36.1753 9.08243L37.9857 8.689C38.0551 8.67395 38.1231 8.70488 38.1585 8.76769L39.4259 11.0121C39.4614 11.0749 39.4537 11.1506 39.4062 11.2045L38.1685 12.6098C38.148 12.6332 38.1396 12.662 38.1444 12.6932C38.237 13.2971 38.2368 13.9116 38.1443 14.5155C38.1396 14.5466 38.1478 14.5754 38.1684 14.5989L39.4062 16.0044C39.4537 16.0583 39.4614 16.134 39.4259 16.1967L38.1585 18.4411C38.1231 18.5039 38.055 18.5348 37.9857 18.5198L36.1759 18.1265C36.1457 18.1199 36.117 18.1269 36.0931 18.1468C35.6325 18.5281 35.1126 18.8378 34.5498 19.0591C34.5209 19.0703 34.5008 19.0922 34.4912 19.1222L33.9201 20.9197C33.8981 20.9886 33.8379 21.0334 33.7669 21.0334H32.4995V21.0335ZM30.1451 16.0118C31.4455 17.3415 33.5535 17.3414 34.854 16.0118C36.1545 14.6822 36.1544 12.527 34.854 11.1973C33.5535 9.86777 31.4454 9.86777 30.1451 11.1973C28.8447 12.5269 28.8446 14.6822 30.1451 16.0118ZM9.69099 31.8531C8.7595 31.8531 8 32.6296 8 33.582V39.8188C8 40.7713 8.7595 41.5477 9.69099 41.5477H13.1244C13.1599 41.5477 13.1904 41.5652 13.209 41.5962C13.2275 41.6273 13.2286 41.6631 13.2124 41.6953C13.1172 41.8838 13.0144 42.0672 12.9036 42.2449C12.6337 42.6775 12.3123 43.0825 11.9291 43.454C11.91 43.4726 11.8874 43.4818 11.861 43.4818H10.7791C10.369 43.4818 10.0366 43.8217 10.0366 44.2409C10.0366 44.6601 10.369 45 10.7791 45H20.3488C20.7588 45 21.0912 44.6601 21.0912 44.2409C21.0912 43.8217 20.7588 43.4818 20.3488 43.4818H19.2668C19.2405 43.4818 19.2178 43.4725 19.1987 43.454C18.8155 43.0825 18.4941 42.6775 18.2242 42.2449C18.1134 42.0673 18.0105 41.8838 17.9153 41.6953C17.899 41.6631 17.9002 41.6272 17.9187 41.5962C17.9373 41.5652 17.9678 41.5477 18.0033 41.5477H21.4368C22.3684 41.5477 23.1278 40.7712 23.1278 39.8188V33.5821C23.1278 32.6296 22.3683 31.8532 21.4368 31.8532H16.4055C16.351 31.8532 16.3066 31.8078 16.3066 31.7521V14.7314C16.3066 14.6757 16.351 14.6303 16.4055 14.6303H21.7528C21.8074 14.6303 21.8518 14.6757 21.8518 14.7314V16.5066C21.8518 19.0888 22.8756 21.4144 24.8745 22.971L30.5777 27.4127C30.924 27.6824 31.2985 27.8725 31.685 27.9829C31.7284 27.9952 31.7574 28.0343 31.7574 28.0803V31.7518C31.7574 31.8076 31.713 31.853 31.6585 31.853H26.6271C25.6957 31.853 24.936 32.6294 24.936 33.5819V39.8187C24.936 40.7712 25.6955 41.5476 26.6271 41.5476H30.0605C30.0961 41.5476 30.1266 41.5651 30.1451 41.5961C30.1635 41.6272 30.1648 41.6629 30.1486 41.6952C30.0533 41.8837 29.9506 42.0671 29.8397 42.2448C29.5698 42.6774 29.2484 43.0824 28.8652 43.4539C28.8461 43.4725 28.8234 43.4817 28.797 43.4817H27.7151C27.3051 43.4817 26.9726 43.8216 26.9726 44.2408C26.9726 44.66 27.3051 44.9999 27.7151 44.9999H37.2848C37.6948 44.9999 38.0273 44.66 38.0273 44.2408C38.0273 43.8216 37.6948 43.4817 37.2848 43.4817H36.2028C36.1765 43.4817 36.1538 43.4724 36.1347 43.4539C35.7515 43.0824 35.4301 42.6774 35.1602 42.2448C35.0494 42.0672 34.9467 41.8837 34.8514 41.6952C34.8351 41.6629 34.8364 41.6271 34.8549 41.5961C34.8733 41.5651 34.9039 41.5476 34.9395 41.5476H38.3729C39.3045 41.5476 40.0638 40.771 40.0638 39.8187V33.5821C40.0638 32.6296 39.3043 31.8532 38.3729 31.8532H33.3415C33.287 31.8532 33.2426 31.8078 33.2426 31.7521V28.0805C33.2426 28.0345 33.2716 27.9955 33.315 27.9831C33.7015 27.8728 34.0759 27.6826 34.4223 27.4129L40.1256 22.9713C42.1245 21.4146 43.1483 19.089 43.1483 16.5067V14.7314C43.1483 14.6757 43.1927 14.6303 43.2473 14.6303H48.5946C48.6492 14.6303 48.6936 14.6757 48.6936 14.7314V31.7519C48.6936 31.8077 48.6492 31.8531 48.5946 31.8531H43.5633C42.6318 31.8531 41.8723 32.6296 41.8723 33.582V39.8188C41.8723 40.7713 42.6318 41.5477 43.5633 41.5477H46.9967C47.0322 41.5477 47.0627 41.5652 47.0813 41.5962C47.0997 41.6273 47.1009 41.6631 47.0847 41.6953C46.9895 41.8838 46.8867 42.0672 46.7758 42.2449C46.5059 42.6775 46.1845 43.0825 45.8013 43.454C45.7822 43.4726 45.7595 43.4818 45.7332 43.4818H44.6512C44.2412 43.4818 43.9088 43.8217 43.9088 44.2409C43.9088 44.6601 44.2412 45 44.6512 45H54.2209C54.631 45 54.9634 44.6601 54.9634 44.2409C54.9634 43.8217 54.631 43.4818 54.2209 43.4818H53.139C53.1126 43.4818 53.09 43.4725 53.0709 43.454C52.6877 43.0825 52.3663 42.6775 52.0964 42.2449C51.9856 42.0673 51.8827 41.8838 51.7875 41.6953C51.7711 41.6631 51.7724 41.6272 51.7909 41.5962C51.8095 41.5652 51.8399 41.5477 51.8755 41.5477H55.309C56.2406 41.5477 57 40.7712 57 39.8188V33.5821C57 32.6296 56.2405 31.8532 55.309 31.8532H50.2777C50.2231 31.8532 50.1787 31.8078 50.1787 31.7521V13.8711C50.1787 13.452 49.8463 13.112 49.4363 13.112H43.2475C43.193 13.112 43.1486 13.0666 43.1486 13.0109V4.75267C43.1486 4.33348 42.8161 3.99356 42.4061 3.99356C38.8818 3.99356 35.5774 2.59555 32.999 0.19708C32.721 -0.062504 32.2902 -0.0682672 32.0053 0.195315C29.4118 2.59685 26.1337 3.99356 22.5948 3.99356C22.1848 3.99356 21.8524 4.33348 21.8524 4.75267V13.0109C21.8524 13.0666 21.8079 13.112 21.7534 13.112H15.5647C15.1546 13.112 14.8222 13.452 14.8222 13.8711V31.7519C14.8222 31.8077 14.7778 31.8531 14.7232 31.8531H9.69099ZM16.157 41.5478C16.1981 41.5478 16.2332 41.5719 16.2486 41.6107C16.4888 42.2121 16.7862 42.7872 17.1497 43.3231C17.1712 43.3549 17.1736 43.3935 17.156 43.4277C17.1385 43.4619 17.1061 43.4819 17.0684 43.4819H14.0589C14.0211 43.4819 13.9887 43.4619 13.9712 43.4277C13.9537 43.3935 13.956 43.3548 13.9775 43.3231C14.3411 42.7872 14.6383 42.2122 14.8787 41.6107C14.8942 41.5719 14.9293 41.5478 14.9702 41.5478H16.157ZM33.0928 41.5478C33.1339 41.5478 33.169 41.5719 33.1844 41.6107C33.4247 42.2122 33.722 42.7872 34.0855 43.3231C34.107 43.3549 34.1094 43.3935 34.0918 43.4277C34.0743 43.4619 34.0419 43.4819 34.0042 43.4819H30.9947C30.957 43.4819 30.9245 43.4619 30.907 43.4277C30.8895 43.3935 30.8918 43.3548 30.9133 43.3231C31.2769 42.7872 31.5741 42.2122 31.8145 41.6107C31.83 41.5719 31.8651 41.5478 31.906 41.5478H33.0928ZM50.0286 41.5478C50.0697 41.5478 50.1047 41.5719 50.1202 41.6107C50.3604 42.2121 50.6578 42.7872 51.0213 43.3231C51.0428 43.3549 51.0452 43.3935 51.0276 43.4277C51.0101 43.4619 50.9777 43.4819 50.94 43.4819H47.9305C47.8928 43.4819 47.8603 43.4619 47.8428 43.4277C47.8253 43.3935 47.8276 43.3548 47.8492 43.3231C48.2127 42.7872 48.51 42.2122 48.7503 41.6107C48.7658 41.5719 48.8009 41.5478 48.8418 41.5478H50.0286Z" fill="#E41F26"/>
</svg>
