<svg width="65" height="45" viewBox="0 0 65 45" fill="none" xmlns="http://www.w3.org/2000/svg">
<g clip-path="url(#clip0_3967_2636)">
<path d="M35.5868 17.0735L35.3398 18.3115C35.3102 18.4595 35.2382 18.5957 35.1324 18.7034C35.0266 18.811 34.8917 18.8855 34.7443 18.9177C33.2465 19.2432 31.82 19.8433 30.5407 20.6876C30.4134 20.7722 30.264 20.8174 30.1111 20.8174C29.9582 20.8174 29.8088 20.7722 29.6815 20.6876L28.5995 19.9663L26.2053 22.3606L26.9145 23.4198C26.9987 23.5459 27.0442 23.6938 27.0453 23.8455C27.0464 23.9971 27.003 24.1457 26.9205 24.273C26.0845 25.5605 25.4934 26.992 25.1794 28.4947C25.1479 28.6432 25.0736 28.7792 24.9656 28.8859C24.8576 28.9926 24.7206 29.0652 24.5718 29.0948L23.3125 29.3479V32.7271L24.5551 32.9787C24.7034 33.008 24.8399 33.0799 24.9478 33.1857C25.0558 33.2915 25.1305 33.4266 25.1627 33.5742C25.4883 35.072 26.0884 36.4925 26.9327 37.7718C27.0164 37.8997 27.0605 38.0494 27.0594 38.2023C27.0583 38.3551 27.0121 38.5043 26.9266 38.631L26.2053 39.7145L28.5995 42.1087L29.6588 41.4041C29.7848 41.3198 29.9328 41.2743 30.0844 41.2733C30.236 41.2722 30.3847 41.3156 30.5119 41.398C31.7994 42.2341 33.2295 42.8252 34.7321 43.1392C34.8809 43.1704 35.0172 43.2446 35.1242 43.3526C35.2311 43.4607 35.304 43.5977 35.3337 43.7468L35.5868 45H38.9706L39.2176 43.7635C39.2465 43.6127 39.3196 43.4739 39.4275 43.3646C39.5354 43.2554 39.6733 43.1806 39.8237 43.1498C41.3383 42.8422 42.7815 42.2583 44.0803 41.4207C44.2076 41.3383 44.3562 41.2949 44.5078 41.296C44.6594 41.2971 44.8074 41.3426 44.9334 41.4268L45.9578 42.1087L48.3521 39.7145L47.6656 38.6886C47.5826 38.5631 47.5379 38.4163 47.5368 38.2659C47.5357 38.1155 47.5784 37.9681 47.6596 37.8415C48.4971 36.5426 49.0871 35.1009 49.3946 33.5863C49.4248 33.4365 49.4985 33.2988 49.6066 33.1907C49.7148 33.0826 49.8524 33.0088 50.0023 32.9787L51.2449 32.7271V29.3479L50.0356 29.1009C49.8876 29.0713 49.7514 28.9992 49.6438 28.8935C49.5361 28.7877 49.4616 28.6528 49.4295 28.5053C49.1021 26.9964 48.4949 25.5657 47.6414 24.279C47.5567 24.1517 47.5116 24.0023 47.5116 23.8494C47.5116 23.6966 47.5567 23.5471 47.6414 23.4198L48.3521 22.3606L45.9578 19.9663L44.9107 20.6649C44.7851 20.7482 44.638 20.7931 44.4873 20.7942C44.3366 20.7953 44.1889 20.7525 44.0621 20.6709C42.7701 19.8343 41.3311 19.2412 39.8237 18.9298C39.6752 18.8983 39.5392 18.824 39.4325 18.716C39.3259 18.6079 39.2532 18.471 39.2236 18.3221L38.9706 17.0735H35.5868ZM37.2749 20.9513C42.8361 20.9513 47.361 25.4762 47.361 31.0375C47.361 36.5988 42.8361 41.1222 37.2749 41.1222C31.7137 41.1222 27.1903 36.5988 27.1903 31.0375C27.1903 25.4762 31.7137 20.9513 37.2749 20.9513ZM37.2749 22.503C32.5523 22.503 28.742 26.3149 28.742 31.0375C28.742 33.4284 29.7195 35.5849 31.2969 37.1323C32.0285 34.509 34.44 32.5892 37.2749 32.5892C40.1109 32.5892 42.5238 34.5108 43.2544 37.1353C44.835 35.5877 45.8154 33.43 45.8154 31.0375C45.8154 26.3149 41.9975 22.503 37.2749 22.503ZM37.1764 24.0563C37.2095 24.0554 37.2416 24.0563 37.2749 24.0563C39.4082 24.0563 41.1587 25.7992 41.1587 27.9325C41.1587 30.0658 39.4082 31.8164 37.2749 31.8164C35.1416 31.8164 33.3986 30.0658 33.3986 27.9325C33.3986 25.8326 35.0887 24.1096 37.1764 24.0563ZM37.2158 25.608C35.9497 25.6395 34.9504 26.6581 34.9504 27.9325C34.9504 29.2272 35.9802 30.2647 37.2749 30.2647C38.5696 30.2647 39.607 29.2272 39.607 27.9325C39.607 26.6379 38.5696 25.608 37.2749 25.608C37.2547 25.608 37.2359 25.6075 37.2158 25.608ZM37.2749 34.141C34.8996 34.141 32.9427 35.9066 32.6576 38.2203C33.9876 39.0756 35.5718 39.5705 37.2749 39.5705C38.9795 39.5705 40.5665 39.0739 41.8982 38.2173C41.6128 35.9039 39.6506 34.141 37.2749 34.141Z" fill="#E41F26"/>
<path d="M17.8838 10.8589H34.9512C36.9158 10.8589 37.841 11.7819 38.3304 12.7607C38.8198 13.7394 38.8289 14.7427 38.8289 14.7427V15.5216H34.9512C34.7715 15.5214 34.5973 15.5834 34.4582 15.6973C34.3192 15.8112 34.2241 15.9697 34.1889 16.146L33.8919 17.6234C32.5956 17.9611 31.3617 18.4796 30.2142 19.1706L28.9322 18.322C28.7828 18.2222 28.6034 18.1773 28.4246 18.1949C28.2458 18.2126 28.0787 18.2918 27.9518 18.419L24.6589 21.7134C24.5336 21.8398 24.4556 22.0055 24.438 22.1826C24.4203 22.3598 24.4641 22.5376 24.562 22.6863L25.4045 23.947C24.7182 25.1043 24.2087 26.3473 23.8801 27.6521L22.3859 27.9506C22.21 27.9857 22.0516 28.0806 21.9377 28.2193C21.8239 28.358 21.7617 28.5319 21.7616 28.7113V33.362H17.8838C15.9219 33.362 14.994 32.4389 14.5046 31.4602C14.0152 30.4814 14 29.4796 14 29.4796V14.7427C14 14.7427 14.0152 13.7394 14.5046 12.7607C14.994 11.7819 15.9331 10.8589 17.8838 10.8589Z" fill="#E41F26"/>
<path d="M26.4187 0C30.2527 1.47414e-06 33.4013 3.14804 33.3999 6.98277V9.30733H30.2964L30.301 6.98277C30.3018 4.81075 28.6856 3.09891 26.4187 3.09891C24.1538 3.09891 22.5417 4.80978 22.5409 6.98277V9.30733H19.4375L19.4421 6.98277C19.4435 3.1496 22.5849 0 26.4187 0Z" fill="#E41F26"/>
</g>
<defs>
<clipPath id="clip0_3967_2636">
<rect width="65" height="45" fill="white"/>
</clipPath>
</defs>
</svg>
