<svg width="65" height="45" viewBox="0 0 65 45" fill="none" xmlns="http://www.w3.org/2000/svg">
<path fill-rule="evenodd" clip-rule="evenodd" d="M35.2018 3.56007C35.511 4.43018 36.0772 5.11573 36.7469 5.0825C36.7694 5.08154 36.792 5.08145 36.8149 5.0825C37.4845 5.11581 38.0508 4.42974 38.36 3.56007C38.5001 3.16619 38.5815 2.75385 38.6017 2.33629C38.6242 1.94867 38.5771 1.56015 38.4629 1.18906C38.2418 0.51108 37.7128 0.00246092 36.7811 0C35.8493 0.00246092 35.3202 0.51108 35.0991 1.18906C34.9849 1.56015 34.9379 1.94867 34.9603 2.33629C34.9805 2.75385 35.0619 3.16619 35.202 3.56007H35.2018ZM35.0611 5.90814C34.7879 6.12787 34.5248 6.32067 34.2718 6.48655C33.8787 6.74999 33.4568 6.9675 33.0142 7.13482C32.9333 7.16043 32.8592 7.20403 32.7976 7.26234C32.736 7.32066 32.6884 7.39218 32.6584 7.47153C32.5028 7.83794 32.4006 8.2248 32.355 8.62025C32.3076 9.03702 32.3088 9.45787 32.3586 9.87435C33.0852 10.0157 33.8042 10.121 34.5154 10.1902C35.2714 10.2639 36.0265 10.3002 36.7806 10.299C37.5337 10.3002 38.2888 10.2639 39.0459 10.1902C39.7563 10.1211 40.4753 10.0158 41.2027 9.87435C41.2524 9.45787 41.2536 9.03702 41.2063 8.62025C41.1607 8.22479 41.0585 7.83794 40.9028 7.47153C40.8729 7.39218 40.8253 7.32065 40.7637 7.26233C40.7021 7.20401 40.6281 7.16042 40.5472 7.13482C40.1047 6.9674 39.6829 6.7498 39.29 6.48628C39.0369 6.32035 38.7737 6.12754 38.5006 5.90788C38.0175 6.30946 37.4091 6.52932 36.7809 6.52932C36.1527 6.52932 35.5443 6.30946 35.0612 5.90788L35.0611 5.90814ZM14.0202 5.3235C14.4892 6.64185 15.3746 7.68053 16.4473 7.62727C16.4697 7.62622 16.4924 7.62622 16.5153 7.62727C17.5878 7.68053 18.4734 6.64185 18.9423 5.3235C19.1462 4.74973 19.2647 4.14912 19.294 3.54091C19.3268 2.96851 19.257 2.39484 19.0878 1.84701C18.744 0.793735 17.9237 0.00386716 16.4812 0C15.0389 0.00377927 14.2186 0.793647 13.8752 1.84692C13.706 2.39474 13.6361 2.96841 13.669 3.54082C13.6982 4.14903 13.8167 4.74964 14.0206 5.32341L14.0202 5.3235ZM14.0993 8.12227C13.6968 8.45778 13.2762 8.77091 12.8393 9.06023C12.3114 9.41462 11.7446 9.7073 11.15 9.93254C11.0023 9.98387 10.8667 10.065 10.7516 10.1709C10.6397 10.2799 10.5515 10.4107 10.4923 10.5552C10.2655 11.0892 10.1165 11.6529 10.0498 12.2291C9.9776 12.8694 9.98391 13.5162 10.0687 14.1549C10.0709 14.1809 10.0811 14.2055 10.098 14.2253C10.1165 14.2435 10.1402 14.2555 10.1658 14.2596C11.2192 14.4684 12.2662 14.6234 13.3067 14.7247C14.3652 14.8278 15.4235 14.8786 16.4814 14.8771C17.538 14.8786 18.5963 14.8278 19.6562 14.7247C20.6954 14.6234 21.7424 14.4684 22.7971 14.2596C22.8231 14.2565 22.8471 14.2442 22.8648 14.225C22.8825 14.2058 22.8928 14.1809 22.8938 14.1548C22.9786 13.516 22.9849 12.8692 22.9126 12.2289C22.8459 11.6526 22.6967 11.0889 22.4697 10.5551C22.4125 10.4094 22.3239 10.278 22.2103 10.1704C22.0966 10.0628 21.9606 9.98153 21.812 9.93236C21.2174 9.70711 20.6507 9.41443 20.1228 9.06005C19.686 8.77076 19.2654 8.45769 18.863 8.12227C18.2037 8.74136 17.3957 9.10971 16.4812 9.07429C15.5671 9.10945 14.7592 8.74136 14.0996 8.12227H14.0993ZM44.3467 20.0753C44.9092 21.658 45.9831 22.9046 47.2934 22.8395C47.3159 22.8386 47.3386 22.8385 47.3615 22.8395C48.6717 22.9046 49.7454 21.658 50.3083 20.0753C50.5497 19.3955 50.6898 18.6839 50.7242 17.9633C50.7631 17.282 50.6797 16.5992 50.478 15.9473C50.0625 14.6729 49.0706 13.7171 47.3272 13.7124C45.5837 13.7171 44.5919 14.6728 44.1763 15.9473C43.9747 16.5992 43.8913 17.282 43.9302 17.9633C43.9646 18.6839 44.1047 19.3955 44.3461 20.0753H44.3467ZM44.5576 23.1367C44.0668 23.5501 43.5526 23.9351 43.0177 24.2897C42.4103 24.6976 41.7582 25.0345 41.074 25.294C40.8855 25.357 40.7131 25.4605 40.5687 25.5971C40.4243 25.7337 40.3115 25.9002 40.2382 26.085C39.7038 27.3307 39.5362 28.7495 39.7351 30.3412C39.7396 30.3968 39.7627 30.4493 39.8007 30.4901C39.8386 30.531 39.8893 30.5579 39.9444 30.5665C41.1736 30.81 42.3976 30.9911 43.6163 31.1097C44.8531 31.2302 46.09 31.2896 47.3271 31.2878C48.5627 31.2895 49.7996 31.2302 51.0379 31.1097C52.255 30.9912 53.479 30.8101 54.7098 30.5665C54.7649 30.5579 54.8156 30.5311 54.8536 30.4902C54.8916 30.4493 54.9147 30.3968 54.9192 30.3412C55.0191 29.5873 55.0264 28.824 54.941 28.0684C54.8618 27.3855 54.6851 26.7176 54.416 26.085C54.3427 25.9002 54.2299 25.7337 54.0855 25.5971C53.9411 25.4605 53.7686 25.357 53.5801 25.294C52.896 25.0345 52.2439 24.6976 51.6365 24.2897C51.1016 23.9351 50.5875 23.5501 50.0966 23.1367C49.335 23.8821 48.3946 24.3293 47.3271 24.2866C46.2596 24.3293 45.3193 23.8823 44.5576 23.1367ZM16.5353 29.2336C17.3564 31.5422 18.9465 33.3592 20.9086 33.2618C20.9311 33.2607 20.9538 33.2607 20.9767 33.2618C22.9388 33.3592 24.5289 31.5422 25.3501 29.2336C25.6946 28.2628 25.8945 27.2466 25.9434 26.2177C25.9991 25.2375 25.879 24.2552 25.5885 23.3173C24.9751 21.4358 23.5125 20.0249 20.9427 20.0181C18.3729 20.0249 16.9103 21.4358 16.2968 23.3173C16.0064 24.2552 15.8862 25.2375 15.942 26.2177C15.9908 27.2466 16.1907 28.2628 16.5353 29.2336ZM17.1132 33.0097C18.1526 34.105 19.4562 34.7715 20.9427 34.7087C22.4292 34.7715 23.7327 34.105 24.7722 33.0097C25.5063 33.6395 26.2784 34.2236 27.0841 34.7587C27.9096 35.3136 28.796 35.7722 29.7259 36.1253C30.0241 36.2266 30.2969 36.3911 30.5256 36.6076C30.7543 36.8241 30.9335 37.0874 31.0509 37.3796C31.4354 38.2831 31.6881 39.2371 31.8013 40.2124C31.9228 41.2847 31.9126 42.3677 31.7709 43.4375C31.7572 43.5739 31.6993 43.7021 31.6059 43.8024C31.5125 43.9028 31.3889 43.9698 31.2538 43.9933C29.5419 44.3327 27.8322 44.5854 26.1249 44.7515C24.3988 44.9196 22.6714 45.0024 20.9427 44.9999C19.2161 45.0025 17.4887 44.9196 15.7604 44.7515C14.0551 44.5854 12.3455 44.3327 10.6315 43.9933C10.4971 43.9684 10.374 43.9016 10.2799 43.8025C10.1877 43.7013 10.1299 43.5736 10.1147 43.4375C9.97309 42.3678 9.96291 41.2847 10.0844 40.2125C10.1975 39.2372 10.4501 38.2832 10.8344 37.3796C10.9546 37.0892 11.1333 36.8266 11.3593 36.6082C11.59 36.3942 11.8623 36.23 12.1592 36.1258C13.0891 35.7726 13.9755 35.3141 14.8011 34.7592C15.6067 34.224 16.3788 33.6399 17.1129 33.0102L17.1132 33.0097ZM30.3601 34.8189C30.9995 35.1901 31.4504 35.5031 31.7128 35.758L39.3598 31.8991C39.4092 31.9186 39.4597 31.9359 39.5113 31.9512C39.0655 31.7285 38.6786 31.3403 38.3505 30.7866L30.3601 34.8189ZM23.2726 15.6306C23.7268 15.4446 24.0686 15.0761 24.298 14.5251L41.7115 23.3932C41.1891 23.71 40.6363 23.9738 40.0614 24.1806L23.2726 15.6306ZM24.2214 11.288L30.9042 9.91531C30.9077 9.95152 30.9114 9.98788 30.9155 10.0244C30.9278 9.41214 30.9282 8.88266 30.9166 8.43595L23.7652 9.9052C23.8915 10.3742 24.0438 10.8359 24.2214 11.288Z" fill="#E41F26"/>
</svg>
