<svg width="65" height="45" viewBox="0 0 65 45" fill="none" xmlns="http://www.w3.org/2000/svg">
<path d="M36.4551 34.4531V31.8164H31.1816V45H36.4551V42.3633H33.8184V39.7266H36.4551V37.0898H33.8184V34.4531H36.4551Z" fill="#E41F26"/>
<path d="M49.6387 45V31.8164H46.187L44.3652 35.4599L42.5434 31.8164H39.0918V45H41.7285V36.0831L44.3652 41.3565L47.002 36.0831V45H49.6387Z" fill="#E41F26"/>
<path d="M20.2473 34.8381L21.1781 35.7715L23.0449 33.9098L22.1141 32.9764C21.3687 32.2284 20.3747 31.8164 19.3164 31.8164C17.1355 31.8164 15.3613 33.5906 15.3613 35.7715C15.3613 37.9524 17.1355 39.7266 19.3164 39.7266C20.0438 39.7266 20.6348 40.3175 20.6348 41.0449C20.6361 42.1276 19.1439 42.7418 18.3856 41.9783L17.4547 41.0449L15.5879 42.9066L16.5188 43.84C17.2642 44.5881 18.2581 45 19.3164 45C21.4973 45 23.2715 43.2258 23.2715 41.0449C23.2715 38.864 21.4973 37.0898 19.3164 37.0898C18.589 37.0898 17.998 36.4989 17.998 35.7715C17.998 34.6926 19.4903 34.0798 20.2473 34.8381Z" fill="#E41F26"/>
<path d="M25.9082 31.8164H28.5449V45H25.9082V31.8164Z" fill="#E41F26"/>
<path d="M48.7515 8.29644L46.8873 10.1607L49.9103 13.1836H44.27C44.3194 12.6464 44.3652 12.1068 44.3652 11.5408V2.63672H40.4102C39.6828 2.63672 39.0918 2.04574 39.0918 1.31836V0H25.9082V1.31836C25.9082 2.04574 25.3172 2.63672 24.5898 2.63672H20.6348V11.5408C20.6348 12.1068 20.6806 12.6464 20.73 13.1836H19.2285C17.0476 13.1836 15.2734 11.4094 15.2734 9.22852V7.66731C16.8047 7.12125 17.9102 5.67158 17.9102 3.95508C17.9102 1.77416 16.136 0 13.9551 0C11.7742 0 10 1.77416 10 3.95508C10 5.67158 11.1055 7.12125 12.6367 7.66731V9.22852C12.6367 11.3924 13.6989 13.2994 15.3141 14.502C13.6989 15.7045 12.6367 17.6115 12.6367 19.7754V21.3366C11.1055 21.8827 10 23.3323 10 25.0488C10 27.2297 11.7742 29.0039 13.9551 29.0039C16.136 29.0039 17.9102 27.2297 17.9102 25.0488C17.9102 23.3323 16.8047 21.8827 15.2734 21.3366V19.7754C15.2734 17.5945 17.0476 15.8203 19.2285 15.8203H21.1673C23.3346 24.465 31.5106 28.665 31.9103 28.8649L32.5 29.1596L33.0897 28.8649C33.4894 28.665 41.6654 24.465 43.8327 15.8203H49.9103L46.8873 18.8433L48.7515 20.7076L55 14.502L48.7515 8.29644ZM31.1816 17.6846L27.6128 14.1158L29.4771 12.2515L31.1816 13.9561L35.523 9.61471L37.3872 11.479L31.1816 17.6846Z" fill="#E41F26"/>
</svg>
