<svg width="65" height="45" viewBox="0 0 65 45" fill="none" xmlns="http://www.w3.org/2000/svg">
<path d="M44.7737 35.3104C45.2133 34.1467 45.0623 32.8374 44.3692 31.8045C43.6599 30.9536 42.6405 30.4196 41.5374 30.3212L18.0745 30.0515C17.9396 30.0515 17.8048 29.9166 17.6699 29.9166C17.6065 29.8694 17.5688 29.7939 17.5688 29.7144C17.5688 29.6348 17.6065 29.5593 17.6699 29.5121C17.8048 29.2424 17.9396 29.1076 18.2093 29.1076L41.8071 28.8379C44.8533 28.4994 47.4895 26.5361 48.6842 23.7138L50.0326 20.2079C50.0326 20.073 50.1675 19.9382 50.0326 19.8033C48.463 12.813 42.2036 7.80225 35.0379 7.80225C28.4885 7.80225 22.6255 11.9891 20.5017 18.1852C19.0925 17.1793 17.3733 16.7019 15.6473 16.8368C12.3961 17.1995 9.80713 19.7885 9.4444 23.0396C9.35406 23.85 9.3999 24.6712 9.57925 25.4668C4.28255 25.6138 0.00392955 30.011 0.005278 35.3104C-0.0162971 35.808 0.0281995 36.3082 0.140121 36.7937C0.152257 37.0108 0.327559 37.1861 0.544659 37.1982H43.8298C44.0995 37.1982 44.3692 37.0634 44.3692 36.7937L44.7737 35.3104Z" fill="white"/>
<path d="M52.1893 20.208H51.5151C51.3803 20.208 51.2454 20.3429 51.1106 20.4777L50.1667 23.7139C49.7271 24.8777 49.8781 26.187 50.5712 27.2199C51.2805 28.0708 52.2999 28.6047 53.4029 28.7032L58.3922 28.9729C58.5271 28.9729 58.6619 29.1077 58.7967 29.1077C58.8601 29.1549 58.8979 29.2304 58.8979 29.31C58.8979 29.3895 58.8601 29.465 58.7967 29.5122C58.6619 29.7819 58.527 29.9168 58.2574 29.9168L53.1333 30.1865C50.0871 30.5249 47.4509 32.4882 46.2562 35.3105L45.9865 36.5241C45.8516 36.659 45.9865 36.9286 46.2562 36.9286H64.0557C64.0719 36.9313 64.0894 36.9327 64.1056 36.9327C64.3024 36.9327 64.4643 36.7709 64.4643 36.574C64.4643 36.5578 64.4629 36.5403 64.4602 36.5241C64.7811 35.382 64.9618 34.2048 64.9996 33.0182C64.9551 26.0076 59.1999 20.2525 52.1893 20.208Z" fill="white"/>
</svg>
