<svg width="65" height="45" viewBox="0 0 65 45" fill="none" xmlns="http://www.w3.org/2000/svg">
<g clip-path="url(#clip0_3860_3063)">
<path d="M58.2977 36.1499C57.0599 36.0278 54.8713 35.7196 52.1249 37.1061C49.3837 38.4873 48.3053 38.5511 46.956 38.4023C47.3491 39.1248 48.1513 40.1182 50.6746 40.2988C53.1926 40.4741 54.3985 40.5538 53.0758 43.6933C53.1076 42.7424 52.8845 40.9097 50.3824 41.2338C47.8804 41.5578 47.296 43.8102 49.9787 44.9311C49.1075 45.1064 47.2588 45.2126 45.9361 41.7544C45.0224 42.1528 43.6093 42.9496 41.0488 40.9735C41.9413 41.2975 43.0409 41.3188 43.0409 41.3188C40.7673 40.2351 38.5998 38.2164 37.208 36.3146C38.3077 37.1327 39.5242 37.9508 40.7566 38.1048C39.3064 36.3306 35.9437 32.7873 31.832 29.1431C34.4775 30.8696 37.6649 33.6001 42.8868 32.9838C48.1088 32.3676 51.6149 31.1724 58.2924 36.1499" fill="white"/>
<path d="M35.9551 34.9173C32.6828 33.4989 31.9816 33.212 27.7689 32.1443C23.5616 31.0765 19.4181 28.8507 16.6504 25.3765C18.6 26.8055 22.5895 29.6847 26.6799 29.3713C26.0584 28.4629 24.911 27.751 23.5404 27.0339C25.0916 27.4057 29.7717 28.601 35.9551 34.9173Z" fill="white"/>
<path d="M28.8264 22.8002C27.9817 20.3778 26.4571 17.2808 19.2377 12.6697C15.721 10.3483 10.5575 7.43185 3.75781 0C4.24123 2.00272 6.39269 7.21405 17.2191 13.9766C20.773 16.4043 25.3628 17.9023 28.8317 22.7949" fill="white"/>
<path d="M29.2735 26.3114C28.3863 24.2609 26.6014 21.6313 19.6052 17.8809C16.3806 16.0747 10.8665 13.2911 5.91016 8.00537C6.3617 9.91247 8.66191 14.1038 18.564 19.3417C21.3051 20.8504 25.9427 22.2688 29.2788 26.3114" fill="white"/>
<path d="M55.7437 31.7197C58.3307 32.1128 58.1979 32.66 58.2245 33.6055C57.1249 32.405 55.7437 31.7197 55.7437 31.7197ZM36.0618 15.7192C22.4252 11.8147 17.0014 6.89019 12.8047 1.7373C14.7224 7.6711 19.291 9.796 24.1729 13.7802C29.0549 17.7644 29.3311 19.9052 30.7707 22.2586C33.974 27.5018 34.484 28.3677 37.6607 30.6572C41.4059 33.1434 45.9372 31.4594 50.9095 32.2403C55.8818 33.0212 59.9882 36.8088 60.8806 38.2644C61.9218 36.4051 59.4357 33.7277 58.761 33.0531C59.1223 30.6201 53.3638 29.547 51.1804 28.713C50.7501 28.5483 49.693 28.3039 50.612 26.1206C51.8498 23.1032 53.1407 20.479 36.0618 15.7139" fill="white"/>
</g>
<defs>
<clipPath id="clip0_3860_3063">
<rect width="65" height="45" fill="white"/>
</clipPath>
</defs>
</svg>
