<svg width="65" height="45" viewBox="0 0 65 45" fill="none" xmlns="http://www.w3.org/2000/svg">
<g clip-path="url(#clip0_3825_5255)">
<path d="M19.8379 8.29898C19.8379 7.26393 20.6754 6.41713 21.7198 6.41713H43.9913C45.0357 6.41713 45.8732 7.26393 45.8732 8.29898V11.9592H48.0655V4.96806C48.0655 4.40353 47.6045 3.94248 47.0399 3.94248H30.6397C29.52 3.94248 28.5132 3.32144 28.0051 2.33348L27.1112 0.58337C26.923 0.225813 26.5561 0 26.1515 0H18.7088C18.1349 0 17.6738 0.461045 17.6738 1.02558V11.9592H19.8379V8.29898Z" fill="white"/>
<path d="M21.7227 8.29932H43.9942V11.9595H21.7227V8.29932Z" fill="white"/>
<path d="M49.6384 13.8418H16.0758C15.4443 13.8418 14.9106 14.4011 15.0126 15.0744L17.4496 31.5594C17.5248 32.0957 17.9765 32.4909 18.5128 32.4909H21.6743V25.2176C21.6743 23.7027 22.8692 22.4607 24.4029 22.4042C27.301 22.263 29.5121 21.6044 31.1211 20.3812C31.648 19.9954 32.2408 19.7978 32.8618 19.7978C33.4734 19.7978 34.0662 19.9954 34.5743 20.3624C36.2021 21.6044 38.4132 22.263 41.3395 22.4136C42.8356 22.4607 44.0305 23.7027 44.0305 25.2176V32.4909H47.2014C47.7283 32.4909 48.1894 32.0957 48.2647 31.5688L50.7016 15.0744C50.8024 14.4091 50.2791 13.8418 49.6384 13.8418Z" fill="white"/>
<path d="M41.244 24.288C38.2048 24.1375 35.5326 23.4505 33.4531 21.8792C33.0956 21.6158 32.6157 21.6158 32.2582 21.8792C30.1787 23.4505 27.5065 24.1375 24.4674 24.288C23.9593 24.3068 23.5547 24.7208 23.5547 25.2195V32.7093C23.5547 36.059 24.8814 39.324 27.356 41.5916C29.473 43.5394 31.656 44.5744 32.4934 44.9225C32.7286 45.026 32.9827 45.026 33.2179 44.9225C34.0271 44.5838 36.0689 43.624 38.1201 41.808C38.1389 41.7986 38.1484 41.7704 38.1671 41.761C40.7452 39.4934 42.1473 36.1437 42.1473 32.6999V25.2195C42.1473 24.7208 41.752 24.3068 41.244 24.288ZM34.3343 33.1943C34.1409 33.3555 34.0442 33.5973 34.0765 33.8471C34.1812 34.5401 34.3827 35.9101 34.5116 36.7885C34.576 37.2236 34.2376 37.6104 33.7944 37.6104H31.9168C31.4736 37.6104 31.1352 37.2236 31.1995 36.7804L31.6267 33.8471C31.667 33.6054 31.5783 33.3555 31.3849 33.2024C30.8611 32.7753 30.5308 32.1225 30.5308 31.3973C30.5308 29.8662 32.0215 28.6655 33.6091 29.1893C34.2941 29.4149 34.842 29.9709 35.0596 30.6479C35.3819 31.6552 35.0273 32.6222 34.3343 33.1943Z" fill="white"/>
</g>
<defs>
<clipPath id="clip0_3825_5255">
<rect width="65" height="45" fill="white"/>
</clipPath>
</defs>
</svg>
