<svg width="65" height="45" viewBox="0 0 65 45" fill="none" xmlns="http://www.w3.org/2000/svg">
<path d="M34.8275 12.4137C34.8275 5.56912 29.2584 0 22.4137 0C15.5691 0 10 5.56912 10 12.4137C10 19.2584 15.5691 24.8275 22.4137 24.8275C29.2584 24.8275 34.8275 19.2584 34.8275 12.4137ZM11.5517 12.4137C11.5517 6.42411 16.4241 1.55172 22.4137 1.55172C28.4034 1.55172 33.2758 6.42411 33.2758 12.4137C33.2758 18.4034 28.4034 23.2758 22.4137 23.2758C16.4241 23.2758 11.5517 18.4034 11.5517 12.4137Z" fill="white"/>
<path d="M22.4126 13.1879C22.8411 13.1879 23.1884 12.8406 23.1884 12.4121C23.1884 11.9836 22.8411 11.6362 22.4126 11.6362C21.9841 11.6362 21.6367 11.9836 21.6367 12.4121C21.6367 12.8406 21.9841 13.1879 22.4126 13.1879Z" fill="white"/>
<path d="M31.7222 12.4124C31.7222 7.2785 27.5457 3.10205 22.4119 3.10205C17.278 3.10205 13.1016 7.2785 13.1016 12.4124C13.1016 17.5462 17.278 21.7227 22.4119 21.7227C27.5457 21.7227 31.7222 17.5462 31.7222 12.4124ZM28.6187 10.0848C29.902 10.0848 30.9463 11.1291 30.9463 12.4124C30.9463 13.6956 29.902 14.7399 28.6187 14.7399C27.3355 14.7399 26.2912 13.6956 26.2912 12.4124C26.2912 11.1291 27.3355 10.0848 28.6187 10.0848ZM16.205 14.7399C14.9217 14.7399 13.8774 13.6956 13.8774 12.4124C13.8774 11.1291 14.9217 10.0848 16.205 10.0848C17.4883 10.0848 18.5326 11.1291 18.5326 12.4124C18.5326 13.6956 17.4883 14.7399 16.205 14.7399ZM20.0843 12.4124C20.0843 11.1291 21.1286 10.0848 22.4119 10.0848C23.6951 10.0848 24.7394 11.1291 24.7394 12.4124C24.7394 13.6956 23.6951 14.7399 22.4119 14.7399C21.1286 14.7399 20.0843 13.6956 20.0843 12.4124Z" fill="white"/>
<path d="M16.2075 13.1879C16.636 13.1879 16.9834 12.8406 16.9834 12.4121C16.9834 11.9836 16.636 11.6362 16.2075 11.6362C15.779 11.6362 15.4316 11.9836 15.4316 12.4121C15.4316 12.8406 15.779 13.1879 16.2075 13.1879Z" fill="white"/>
<path d="M28.6216 13.1879C29.0501 13.1879 29.3974 12.8406 29.3974 12.4121C29.3974 11.9836 29.0501 11.6362 28.6216 11.6362C28.1931 11.6362 27.8457 11.9836 27.8457 12.4121C27.8457 12.8406 28.1931 13.1879 28.6216 13.1879Z" fill="white"/>
<path d="M20.3535 26.2114C20.5855 26.7607 20.736 27.3403 20.8082 27.9323H24.0163C24.0885 27.3403 24.239 26.7607 24.471 26.2114C23.7968 26.3115 23.1132 26.3806 22.4119 26.3806C21.7105 26.3806 21.027 26.3115 20.3535 26.2114Z" fill="white"/>
<path d="M22.4126 41.8964C22.8411 41.8964 23.1884 41.5491 23.1884 41.1206C23.1884 40.6921 22.8411 40.3447 22.4126 40.3447C21.9841 40.3447 21.6367 40.6921 21.6367 41.1206C21.6367 41.5491 21.9841 41.8964 22.4126 41.8964Z" fill="white"/>
<path d="M24.1186 29.4829H20.7211L18.6085 40.0447C18.558 40.2953 18.5332 40.5513 18.5332 40.8058V41.1208C18.5332 43.2598 20.2735 45.0001 22.4125 45.0001C24.5515 45.0001 26.2918 43.2598 26.2918 41.1208V40.8058C26.2918 40.5513 26.267 40.2953 26.2165 40.0447L24.1186 29.4829ZM22.4125 43.4484C21.1292 43.4484 20.0849 42.4041 20.0849 41.1208C20.0849 39.8375 21.1292 38.7932 22.4125 38.7932C23.6958 38.7932 24.7401 39.8375 24.7401 41.1208C24.7401 42.4041 23.6958 43.4484 22.4125 43.4484Z" fill="white"/>
<path d="M54.2238 34.1372H43.3618C42.9335 34.1372 42.5859 34.4848 42.5859 34.9131V44.2234C42.5859 44.6516 42.9335 44.9992 43.3618 44.9992H54.2238C54.6521 44.9992 54.9997 44.6516 54.9997 44.2234V34.9131C54.9997 34.4848 54.6521 34.1372 54.2238 34.1372ZM44.1377 38.7924H50.3445V40.3441H44.1377V38.7924ZM53.448 43.4475H44.1377V41.8958H53.448V43.4475ZM53.448 40.3441H51.8962V38.7924H53.448V40.3441ZM53.448 37.2406H44.1377V35.6889H53.448V37.2406Z" fill="white"/>
<path d="M54.2238 17.0684H43.3618C42.9335 17.0684 42.5859 17.4167 42.5859 17.8442V27.1545C42.5859 27.5828 42.9335 27.9304 43.3618 27.9304H54.2238C54.6521 27.9304 54.9997 27.5828 54.9997 27.1545V17.8442C54.9997 17.4167 54.6521 17.0684 54.2238 17.0684ZM50.3445 26.3787H44.1377V24.827H50.3445V26.3787ZM53.448 26.3787H51.8962V24.827H53.448V26.3787ZM53.448 23.2752H44.1377V21.7235H53.448V23.2752ZM53.448 20.1718H44.1377V18.6201H53.448V20.1718Z" fill="white"/>
<path d="M54.2238 0H43.3618C42.9335 0 42.5859 0.348361 42.5859 0.775859V10.0862C42.5859 10.5137 42.9335 10.862 43.3618 10.862H54.2238C54.6521 10.862 54.9997 10.5137 54.9997 10.0862V0.775859C54.9997 0.348361 54.6521 0 54.2238 0ZM44.1377 4.65515H45.6894V6.20687H44.1377V4.65515ZM53.448 9.31031H44.1377V7.75859H53.448V9.31031ZM53.448 6.20687H47.2411V4.65515H53.448V6.20687ZM53.448 3.10344H44.1377V1.55172H53.448V3.10344Z" fill="white"/>
<path d="M34.7328 18.98C34.4807 19.4502 34.1944 19.8978 33.8926 20.3339L36.8339 23.2751H41.0344V21.7234H37.4763L34.7328 18.98Z" fill="white"/>
<path d="M29.0495 24.6802C28.5918 24.9285 28.1201 25.1542 27.6328 25.3505L37.5165 40.3455H41.0373V38.7938H38.3513L29.0495 24.6802Z" fill="white"/>
<path d="M35.2812 6.98489C35.5047 7.5117 35.6839 8.06101 35.8422 8.61807L38.2528 6.20748H41.035V4.65576H37.6104L35.2812 6.98489Z" fill="white"/>
</svg>
