<svg width="65" height="45" viewBox="0 0 65 45" fill="none" xmlns="http://www.w3.org/2000/svg">
<path d="M47.8074 0C48.4554 0 49.0757 0.118731 49.6479 0.335613L31.5324 13.806C30.9194 14.2619 30.08 14.2619 29.4669 13.806L11.3516 0.335613C11.9236 0.118731 12.5439 0 13.192 0H47.8074Z" fill="white"/>
<path d="M8 5.19234C8 4.26888 8.24108 3.40173 8.66372 2.65039L27.4018 16.5837C29.2409 17.9514 31.7591 17.9514 33.5983 16.5837L52.3363 2.65039C52.7589 3.40173 53 4.26888 53 5.19234V19.1602C50.9634 17.982 48.5988 17.3077 46.0769 17.3077C38.4299 17.3077 32.2308 23.5068 32.2308 31.1539C32.2308 31.7401 32.2671 32.3176 32.3379 32.8846H13.1923C10.3247 32.8846 8 30.56 8 27.6923V5.19234Z" fill="white"/>
<path fill-rule="evenodd" clip-rule="evenodd" d="M52.9991 25.9617V27.9879C55.0158 28.7006 56.4606 30.624 56.4606 32.8847V39.8078C56.4606 42.6755 54.136 45.0001 51.2683 45.0001H40.8837C38.016 45.0001 35.6914 42.6755 35.6914 39.8078V32.8847C35.6914 30.624 37.1363 28.7006 39.1529 27.9879V25.9617C39.1529 22.1382 42.2526 19.0386 46.076 19.0386C49.8995 19.0386 52.9991 22.1382 52.9991 25.9617ZM49.5376 25.9617V27.6924H42.6145V25.9617C42.6145 24.0498 44.1642 22.5001 46.076 22.5001C47.9878 22.5001 49.5376 24.0498 49.5376 25.9617Z" fill="white"/>
</svg>
