<svg width="65" height="45" viewBox="0 0 65 45" fill="none" xmlns="http://www.w3.org/2000/svg">
<path d="M57.1249 44.9922C60.6158 43.8053 63.3319 39.7808 63.9851 34.721V33.2586H46.0878V44.9937H57.1218L57.1249 44.9922ZM63.9875 11.7422V10.4195C63.3014 5.13911 60.3829 0.97884 56.6615 0.00156905H46.0902V11.7414L63.9875 11.7422ZM1 33.2586V34.71C1.64767 39.7745 4.36461 43.8061 7.86487 44.9937H18.844V33.2586H1ZM8.32279 0.0102048C4.6069 0.988261 1.68061 5.15089 1 10.4384V11.7524H18.844V0.0117739H8.32279V0.0102048ZM64 16.6379H46.1027V28.3778H64V16.6379ZM23.7282 45H41.2358V33.2649H23.7282V45ZM41.2358 0H23.7282V11.7398H41.2358V0ZM1.0149 28.3621H18.8589V16.6222H1.0149V28.3621Z" fill="white"/>
</svg>
