<svg width="65" height="45" viewBox="0 0 65 45" fill="none" xmlns="http://www.w3.org/2000/svg">
<path d="M35.5868 17.0732L35.3398 18.3113C35.3102 18.4593 35.2382 18.5955 35.1324 18.7031C35.0266 18.8108 34.8917 18.8853 34.7443 18.9174C33.2465 19.243 31.82 19.8431 30.5407 20.6874C30.4134 20.772 30.264 20.8172 30.1111 20.8172C29.9582 20.8172 29.8088 20.772 29.6815 20.6874L28.5995 19.9661L26.2053 22.3603L26.9145 23.4196C26.9987 23.5456 27.0442 23.6936 27.0453 23.8452C27.0464 23.9968 27.003 24.1455 26.9205 24.2727C26.0845 25.5602 25.4934 26.9918 25.1794 28.4945C25.1479 28.643 25.0736 28.779 24.9656 28.8857C24.8576 28.9923 24.7206 29.065 24.5718 29.0946L23.3125 29.3476V32.7269L24.5551 32.9784C24.7034 33.0077 24.8399 33.0797 24.9478 33.1855C25.0558 33.2913 25.1305 33.4263 25.1627 33.574C25.4883 35.0718 26.0884 36.4922 26.9327 37.7715C27.0164 37.8994 27.0605 38.0492 27.0594 38.202C27.0583 38.3549 27.0121 38.504 26.9266 38.6307L26.2053 39.7142L28.5995 42.1085L29.6588 41.4038C29.7848 41.3196 29.9328 41.2741 30.0844 41.273C30.236 41.2719 30.3847 41.3153 30.5119 41.3978C31.7994 42.2338 33.2295 42.8249 34.7321 43.1389C34.8809 43.1701 35.0172 43.2444 35.1242 43.3524C35.2311 43.4604 35.304 43.5975 35.3337 43.7466L35.5868 44.9998H38.9706L39.2176 43.7632C39.2465 43.6125 39.3196 43.4736 39.4275 43.3644C39.5354 43.2551 39.6733 43.1804 39.8237 43.1495C41.3383 42.842 42.7815 42.2581 44.0803 41.4205C44.2076 41.338 44.3562 41.2947 44.5078 41.2958C44.6594 41.2968 44.8074 41.3423 44.9334 41.4266L45.9578 42.1085L48.3521 39.7142L47.6656 38.6883C47.5826 38.5629 47.5379 38.4161 47.5368 38.2657C47.5357 38.1153 47.5784 37.9678 47.6596 37.8412C48.4971 36.5424 49.0871 35.1007 49.3946 33.5861C49.4248 33.4362 49.4985 33.2986 49.6066 33.1905C49.7148 33.0824 49.8524 33.0086 50.0023 32.9784L51.2449 32.7269V29.3476L50.0356 29.1006C49.8876 29.0711 49.7514 28.999 49.6438 28.8932C49.5361 28.7874 49.4616 28.6526 49.4295 28.5051C49.1021 26.9962 48.4949 25.5654 47.6414 24.2788C47.5567 24.1515 47.5116 24.002 47.5116 23.8492C47.5116 23.6963 47.5567 23.5469 47.6414 23.4196L48.3521 22.3603L45.9578 19.9661L44.9107 20.6646C44.7851 20.7479 44.638 20.7929 44.4873 20.794C44.3366 20.795 44.1889 20.7522 44.0621 20.6707C42.7701 19.834 41.3311 19.241 39.8237 18.9296C39.6752 18.8981 39.5392 18.8237 39.4325 18.7157C39.3259 18.6077 39.2532 18.4708 39.2236 18.3219L38.9706 17.0732H35.5868ZM37.2749 20.951C42.8361 20.951 47.361 25.476 47.361 31.0373C47.361 36.5985 42.8361 41.122 37.2749 41.122C31.7137 41.122 27.1903 36.5985 27.1903 31.0373C27.1903 25.476 31.7137 20.951 37.2749 20.951ZM37.2749 22.5028C32.5523 22.5028 28.742 26.3146 28.742 31.0373C28.742 33.4282 29.7195 35.5846 31.2969 37.132C32.0285 34.5088 34.44 32.589 37.2749 32.589C40.1109 32.589 42.5238 34.5105 43.2544 37.1351C44.835 35.5875 45.8154 33.4297 45.8154 31.0373C45.8154 26.3146 41.9975 22.5028 37.2749 22.5028ZM37.1764 24.056C37.2095 24.0552 37.2416 24.056 37.2749 24.056C39.4082 24.056 41.1587 25.799 41.1587 27.9323C41.1587 30.0656 39.4082 31.8162 37.2749 31.8162C35.1416 31.8162 33.3986 30.0656 33.3986 27.9323C33.3986 25.8323 35.0887 24.1093 37.1764 24.056ZM37.2158 25.6077C35.9497 25.6393 34.9504 26.6578 34.9504 27.9323C34.9504 29.227 35.9802 30.2644 37.2749 30.2644C38.5696 30.2644 39.607 29.227 39.607 27.9323C39.607 26.6376 38.5696 25.6077 37.2749 25.6077C37.2547 25.6077 37.2359 25.6072 37.2158 25.6077ZM37.2749 34.1407C34.8996 34.1407 32.9427 35.9064 32.6576 38.2201C33.9876 39.0753 35.5718 39.5702 37.2749 39.5702C38.9795 39.5702 40.5665 39.0737 41.8982 38.217C41.6128 35.9037 39.6506 34.1407 37.2749 34.1407Z" fill="white"/>
<path d="M17.8838 10.8589H34.9512C36.9158 10.8589 37.841 11.7819 38.3304 12.7607C38.8198 13.7394 38.8289 14.7427 38.8289 14.7427V15.5216H34.9512C34.7715 15.5214 34.5973 15.5834 34.4583 15.6973C34.3192 15.8112 34.2241 15.9697 34.1889 16.146L33.8919 17.6234C32.5956 17.9611 31.3617 18.4796 30.2142 19.1706L28.9322 18.322C28.7828 18.2222 28.6034 18.1773 28.4246 18.1949C28.2458 18.2126 28.0787 18.2918 27.9518 18.419L24.6589 21.7134C24.5336 21.8398 24.4556 22.0055 24.438 22.1826C24.4203 22.3598 24.4641 22.5376 24.562 22.6863L25.4045 23.947C24.7182 25.1043 24.2087 26.3473 23.8801 27.6521L22.3859 27.9506C22.21 27.9857 22.0516 28.0806 21.9377 28.2193C21.8239 28.358 21.7617 28.5319 21.7616 28.7113V33.362H17.8838C15.9219 33.362 14.994 32.4389 14.5046 31.4602C14.0152 30.4814 14 29.4796 14 29.4796V14.7427C14 14.7427 14.0152 13.7394 14.5046 12.7607C14.994 11.7819 15.9331 10.8589 17.8838 10.8589Z" fill="white"/>
<path d="M26.4187 0C30.2527 1.47414e-06 33.4013 3.14804 33.3999 6.98277V9.30733H30.2964L30.301 6.98277C30.3018 4.81075 28.6856 3.09891 26.4187 3.09891C24.1538 3.09891 22.5417 4.80978 22.5409 6.98277V9.30733H19.4375L19.4421 6.98277C19.4435 3.1496 22.5849 0 26.4187 0Z" fill="white"/>
</svg>
