<svg width="65" height="45" viewBox="0 0 65 45" fill="none" xmlns="http://www.w3.org/2000/svg">
<g clip-path="url(#clip0_3860_3037)">
<path d="M15.5603 17.7075C15.1782 18.5749 14.6263 19.4423 13.8196 20.1857C12.1214 21.8379 9.99867 22.4988 7.79102 22.5814L16.0697 30.6356C16.1971 28.4878 16.834 26.4227 18.5321 24.7706C19.2962 24.027 20.1879 23.4901 21.0794 23.077C18.5321 22.1683 16.4943 20.1857 15.5603 17.7075Z" fill="white"/>
<path d="M13.7322 35.9262C16.8739 32.8698 16.8739 27.9132 13.7322 24.8568C10.5906 21.8003 5.49596 21.8003 2.3543 24.8568C-0.787371 27.9132 -0.787371 32.8698 2.3543 35.9262C5.49596 38.9828 10.5906 38.9828 13.7322 35.9262Z" fill="white"/>
<path d="M30.033 9.03407C33.1746 12.0905 33.1746 17.047 30.033 20.1035C26.8914 23.16 21.7967 23.16 18.6551 20.1035C15.5134 17.047 15.5134 12.0905 18.6551 9.03407C21.7967 5.97758 26.8914 5.97758 30.033 9.03407Z" fill="white"/>
<path d="M62.6367 9.03407C59.4949 5.97758 54.4005 5.97758 51.2586 9.03407C49.7304 10.521 48.9662 12.421 48.9238 14.3209C48.7964 16.4687 48.1595 18.5339 46.4614 20.1861C45.6971 20.9295 44.8056 21.5078 43.9141 21.8796C46.5038 22.7882 48.5415 24.7709 49.4757 27.2903C49.8577 26.3817 50.4096 25.5556 51.2162 24.8121C52.9145 23.16 55.0372 22.4991 57.2449 22.4165C59.2402 22.3752 61.1932 21.5904 62.6792 20.1448C65.7784 17.047 65.7783 12.0905 62.6367 9.03407ZM59.8347 17.3774C59.0704 18.1209 58.0091 18.5339 56.9476 18.5339C55.8438 18.5339 54.825 18.1209 54.0607 17.3774C52.4475 15.8079 52.4475 13.2884 54.0607 11.7188C54.825 10.9753 55.8863 10.5623 56.9476 10.5623C58.0515 10.5623 59.0704 10.9753 59.8347 11.7188C60.5988 12.4623 61.0234 13.4949 61.0234 14.5275C61.0658 15.6427 60.6413 16.634 59.8347 17.3774Z" fill="white"/>
<path d="M46.3415 24.8964C49.4834 27.9528 49.4834 32.9092 46.3415 35.9658C43.1999 39.0222 38.1053 39.0222 34.9637 35.9658C31.822 32.9092 31.822 27.9528 34.9637 24.8964C38.1053 21.8399 43.1999 21.8399 46.3415 24.8964Z" fill="white"/>
<path d="M34.8754 20.184C33.1771 18.5318 32.4979 16.4666 32.413 14.3188L24.0918 22.3731C26.2995 22.497 28.4221 23.1165 30.1204 24.7687C31.8186 26.4209 32.4979 28.4861 32.5828 30.6339L40.8615 22.5796C38.6962 22.497 36.5734 21.8361 34.8754 20.184Z" fill="white"/>
</g>
<defs>
<clipPath id="clip0_3860_3037">
<rect width="65" height="45" fill="white"/>
</clipPath>
</defs>
</svg>
