<svg width="65" height="45" viewBox="0 0 65 45" fill="none" xmlns="http://www.w3.org/2000/svg">
<g clip-path="url(#clip0_3860_3183)">
<path fill-rule="evenodd" clip-rule="evenodd" d="M34.754 0.130098L33.8311 11.528C33.3944 11.4751 32.9519 11.4468 32.5 11.4468C31.9385 11.4468 31.3864 11.4883 30.8474 11.5715L30.3218 6.04463C30.3047 5.87257 30.4427 5.7213 30.6167 5.72319H31.5602L31.1046 0.130098C31.0895 -0.0419679 31.2256 -0.189453 31.3977 -0.189453H34.4571C34.6291 -0.189453 34.7634 -0.0419679 34.7501 0.130098H34.754ZM27.0317 0.695457C26.9863 0.529064 26.8086 0.438304 26.6459 0.49692L23.77 1.54445C23.6074 1.60306 23.5317 1.78836 23.6036 1.9453L25.9425 7.04488L25.0539 7.36632C24.8912 7.42494 24.8119 7.61213 24.8875 7.77096L27.2699 12.7855C28.134 12.3089 29.07 11.9516 30.059 11.7247L27.0317 0.695457ZM19.9713 3.87017L26.5892 13.1939C25.7497 13.7403 24.9914 14.3983 24.3335 15.149L20.3759 11.2501C20.2511 11.1272 20.2606 10.9249 20.3929 10.8133L21.1171 10.2082L17.1766 6.2167C17.0556 6.09378 17.0651 5.89525 17.1974 5.78369L19.5402 3.81534C19.6725 3.70377 19.8711 3.73025 19.9713 3.87017ZM14.4198 9.2685C14.278 9.17207 14.0832 9.21555 13.9962 9.36304L12.4665 12.014C12.3795 12.1633 12.44 12.3544 12.5951 12.4281L17.6645 14.8313L17.1899 15.6482C17.1029 15.7995 17.1634 15.9923 17.3222 16.0641L22.3726 18.3729C22.7395 17.4331 23.2273 16.5576 23.8249 15.7673L14.4198 9.2685ZM10.6853 16.4726C10.7156 16.3024 10.882 16.1947 11.0503 16.2381L22.1117 19.1273C21.8262 20.0614 21.6655 21.0503 21.6428 22.0733L16.1045 21.6288C15.9305 21.6156 15.8076 21.4549 15.8379 21.2828L16.0043 20.3545L10.4206 19.8307C10.2486 19.8137 10.1275 19.6549 10.1578 19.4847L10.6872 16.4707L10.6853 16.4726ZM10.2675 23.9433C10.0954 23.9603 9.97439 24.1191 10.0046 24.2893L10.536 27.3033C10.5662 27.4735 10.7345 27.5813 10.9009 27.5377L16.3276 26.1196L16.4902 27.048C16.5205 27.2201 16.6926 27.3279 16.859 27.2806L22.2119 25.802C21.8962 24.8735 21.7014 23.8922 21.6504 22.8712L10.2675 23.9433ZM12.0373 31.864C11.9503 31.7146 12.0108 31.5236 12.1659 31.4499L22.4937 26.5526C22.8869 27.4792 23.407 28.3394 24.0291 29.1109L19.5024 32.331C19.3605 32.4332 19.162 32.3877 19.0769 32.2383L18.6061 31.4196L13.9924 34.6095C13.8506 34.7078 13.6559 34.6642 13.5689 34.5149L12.0373 31.864ZM24.551 29.716L16.5167 37.8541C16.3957 37.977 16.4051 38.1756 16.5375 38.2871L18.8822 40.2536C19.0145 40.3651 19.2131 40.3387 19.3133 40.1988L22.558 35.6229L23.2802 36.2318C23.4127 36.3434 23.615 36.3169 23.7133 36.1732L26.8634 31.603C26.0087 31.0812 25.2316 30.4439 24.551 29.716ZM22.9645 42.7817C22.8019 42.723 22.7262 42.5378 22.7981 42.3808L27.5631 31.985C28.4404 32.4332 29.3858 32.7678 30.3804 32.9644L28.983 38.3382C28.9395 38.5064 28.76 38.601 28.5973 38.5405L27.7105 38.2153L26.2243 43.6249C26.1789 43.7914 26.0011 43.8821 25.8386 43.8235L22.9626 42.7779L22.9645 42.7817ZM31.1708 33.0911L30.2481 44.491C30.2348 44.663 30.369 44.8105 30.5411 44.8105H33.6005C33.7725 44.8105 33.9087 44.663 33.8936 44.491L33.4379 38.8997H34.3814C34.5554 38.9016 34.6915 38.7523 34.6764 38.5783L34.1508 33.0514C33.6118 33.1328 33.0597 33.1762 32.4982 33.1762C32.0481 33.1762 31.6057 33.146 31.1689 33.093L31.1708 33.0911ZM42.2038 2.23838C42.2757 2.08144 42.1981 1.89803 42.0374 1.83752L39.1615 0.79189C39.0008 0.733275 38.8211 0.824037 38.7758 0.990423L37.2895 6.4001L36.4028 6.07488C36.2401 6.01438 36.0605 6.10891 36.017 6.2772L34.6197 11.6509C35.6142 11.8476 36.5596 12.1823 37.437 12.6304L42.2038 2.23649V2.23838ZM48.4834 6.76882L40.4491 14.907C39.7703 14.1771 38.9932 13.5399 38.1367 13.018L41.2868 8.44788C41.3851 8.30606 41.5874 8.27771 41.7197 8.39115L42.4421 9L45.6868 4.42418C45.787 4.28426 45.9855 4.25779 46.1179 4.36935L48.4626 6.33582C48.5949 6.44737 48.6043 6.64781 48.4834 6.76882ZM52.8342 13.1731C52.9911 13.0993 53.0497 12.9084 52.9628 12.7589L51.4312 10.108C51.3442 9.95866 51.1494 9.91517 51.0076 10.0135L46.394 13.2034L45.9232 12.3846C45.8362 12.2333 45.6376 12.1899 45.4977 12.292L40.971 15.512C41.5931 16.2853 42.1131 17.1439 42.5064 18.0703L52.8342 13.1731ZM54.4641 17.3216L54.9954 20.3356C55.0257 20.5076 54.9027 20.6664 54.7326 20.6816L43.3497 21.7499C43.2986 20.7288 43.1039 19.7475 42.7881 18.8191L48.1411 17.3423C48.3075 17.2951 48.4796 17.4048 48.5098 17.575L48.6705 18.5033L54.0972 17.0852C54.2636 17.0417 54.4319 17.1495 54.4621 17.3197L54.4641 17.3216ZM53.9498 28.3849C54.1162 28.4283 54.2845 28.3205 54.3147 28.1504L54.8441 25.1364C54.8744 24.9662 54.7515 24.8074 54.5813 24.7903L48.9976 24.2666L49.164 23.3382C49.1942 23.1661 49.0714 23.0073 48.8975 22.9922L43.3591 22.5479C43.3364 23.5726 43.1757 24.5596 42.8902 25.4956L53.9517 28.3829L53.9498 28.3849ZM51.0038 35.2618C50.9169 35.4093 50.7221 35.4528 50.5802 35.3563L41.1714 28.8575C41.7689 28.0671 42.2587 27.1917 42.6236 26.252L47.6741 28.5626C47.8329 28.6345 47.8952 28.8292 47.8064 28.9785L47.3318 29.7954L52.4011 32.1987C52.5562 32.2724 52.6167 32.4633 52.5297 32.6127L51 35.2637L51.0038 35.2618ZM38.4109 31.429L45.0287 40.7546C45.1289 40.8946 45.3256 40.9211 45.4599 40.8095L47.8027 38.8412C47.935 38.7296 47.9444 38.5291 47.8235 38.4081L43.883 34.4166L44.6071 33.8115C44.7395 33.7 44.7489 33.4977 44.6242 33.3767L40.6665 29.4777C40.0086 30.2266 39.2503 30.8845 38.4109 31.431V31.429ZM38.3541 44.1261C38.1934 44.1846 38.0138 44.0939 37.9684 43.9275L34.9392 32.9001C35.9281 32.6732 36.8641 32.314 37.7282 31.8394L40.1107 36.8539C40.1863 37.0109 40.1087 37.2 39.9443 37.2585L39.0555 37.58L41.3946 42.6796C41.4665 42.8365 41.3889 43.0199 41.2282 43.0804L38.3521 44.1279L38.3541 44.1261Z" fill="white"/>
</g>
<defs>
<clipPath id="clip0_3860_3183">
<rect width="65" height="45" fill="white"/>
</clipPath>
</defs>
</svg>
