<svg width="65" height="45" viewBox="0 0 65 45" fill="none" xmlns="http://www.w3.org/2000/svg">
<path d="M32.8945 0C45.2009 0 51.3887 6.58496 51.3887 6.58496C51.396 6.63611 52.0938 11.5098 51.6445 21.2715C50.9623 36.0961 32.8975 45 32.8975 45C32.8162 44.9599 14.8311 36.0626 14.1504 21.2715C13.701 11.5072 14.4002 6.63353 14.4072 6.58496C14.4133 6.57849 20.5945 0.000172733 32.8945 0ZM32.8984 5.41504C25.2833 5.41509 19.0879 11.6104 19.0879 19.2256C19.0879 23.8252 21.0034 27.9112 24.626 31.042C28.0132 33.9691 32.9681 35.9225 38.6094 36.8477C39.8317 36.1721 41.9219 34.178 42.7061 33.0107C37.9942 32.405 33.5349 31.2564 30.5459 29.6885C25.9779 27.2922 23.6613 23.8597 23.6611 19.4873C23.6611 14.2458 27.8051 9.9815 32.8984 9.98145C37.9962 9.98145 42.1435 14.1282 42.1436 19.2256C42.1436 23.2953 38.6454 26.6433 35.9492 28.3643C36.9956 28.9608 39.3039 29.5873 41.5137 29.79C44.7411 27.2921 46.709 23.4312 46.709 19.2256C46.7089 11.6104 40.5136 5.41504 32.8984 5.41504Z" fill="white"/>
</svg>
