<svg width="65" height="45" viewBox="0 0 65 45" fill="none" xmlns="http://www.w3.org/2000/svg">
<path d="M19.5341 24.9459C19.5847 25.047 19.7363 25.047 19.7363 24.9459L23.2755 15.744C23.4272 15.289 23.8822 15.0362 24.3373 15.0362H27.6237C28.2304 15.0362 28.7865 15.5418 28.7865 16.1485C28.7865 16.3002 28.7865 16.4013 28.736 16.553L20.7475 38.0409C20.7475 38.0914 20.4947 38.2937 20.2925 38.4454C20.2419 38.4959 20.1408 38.4959 20.0397 38.4959C19.7363 38.3948 19.433 38.142 19.3319 37.8386L15.0848 27.575C14.9332 27.2716 14.5792 27.12 14.2759 27.2716C14.1748 27.3222 14.0231 27.4233 13.9725 27.575L8.61317 38.2431C8.56261 38.2937 8.51205 38.3442 8.46149 38.2937C8.41093 38.2937 8.41094 38.2431 8.41094 38.2431L0.068566 16.5024C-0.133673 15.8957 0.119126 15.2384 0.725844 15.0362C0.877523 14.9856 0.978643 14.935 1.13032 14.935H4.72007C5.17511 14.935 5.63015 15.2384 5.78182 15.6429L9.32101 24.8953C9.37157 24.9964 9.52325 24.9964 9.52325 24.8953L13.9725 15.2384C14.1242 14.935 14.4781 14.7834 14.7815 14.935C14.9332 14.9856 15.0343 15.0867 15.0848 15.2384L19.5341 24.9459ZM60.1336 6.23876C60.0831 6.08708 59.8303 6.08708 59.7797 6.23876C59.5775 7.24996 59.1224 8.76675 58.3135 9.57571C57.5045 10.3847 55.9877 10.8397 54.9765 11.0419C54.8248 11.0925 54.8248 11.3453 54.9765 11.3959C55.9877 11.5981 57.5045 12.0531 58.3135 12.8621C59.3752 13.9239 59.7291 15.3901 59.8808 16.2496C59.8808 16.3002 60.0831 16.3002 60.0831 16.2496C60.2853 15.3395 60.6898 13.7216 61.5493 12.8621C62.3583 12.0531 63.875 11.5981 64.8862 11.3959C65.0379 11.3453 65.0379 11.0925 64.8862 11.0419C63.875 10.8397 62.3583 10.3847 61.5493 9.57571C60.7909 8.76675 60.3359 7.24996 60.1336 6.23876ZM30.0505 16.2496C30.0505 15.6429 30.5561 15.0867 31.2134 15.0867H34.6515C35.2582 15.0867 35.8144 15.5923 35.8144 16.2496V37.333C35.8144 37.9398 35.3088 38.4959 34.6515 38.4959H31.2134C30.6067 38.4959 30.0505 37.9903 30.0505 37.333V16.2496ZM45.7241 21.1033C45.7746 20.9517 45.7241 20.7494 45.5724 20.6989C45.5218 20.6989 45.4713 20.6483 45.4207 20.6483H38.6457C38.039 20.6483 37.4828 20.1427 37.4828 19.4854V16.2496C37.4828 15.6429 37.9884 15.0867 38.6457 15.0867H54.3698C54.8754 15.0867 55.5327 15.4912 55.2799 15.8957L46.1791 32.8838C46.078 33.0355 46.1791 33.2377 46.3308 33.2883C46.3814 33.2883 46.4319 33.3388 46.4825 33.3388H54.7743C55.381 33.3388 55.9372 33.8444 55.9372 34.5017V37.333C55.9372 37.9398 55.4316 38.4959 54.7743 38.4959H38.0895C37.5334 38.4959 37.4323 37.687 37.6851 37.1814L45.7241 21.1033Z" fill="white"/>
</svg>
