<svg width="65" height="45" viewBox="0 0 65 45" fill="none" xmlns="http://www.w3.org/2000/svg">
<path fill-rule="evenodd" clip-rule="evenodd" d="M31.7003 0.143252C32.216 -0.0477506 32.784 -0.0477506 33.2997 0.143252L51.5219 6.89325C52.411 7.22256 53 8.06211 53 9V22.6253C53 30.2956 48.613 37.3073 41.6678 40.7376L33.5186 44.7624C32.8774 45.0792 32.1226 45.0792 31.4814 44.7624L23.3321 40.7376C16.387 37.3073 12 30.2956 12 22.6253V9C12 8.06211 12.589 7.22256 13.478 6.89325L31.7003 0.143252ZM41.112 19.4056C41.8979 18.4351 41.7387 17.0193 40.7563 16.243C39.7739 15.4668 38.3404 15.6241 37.5546 16.5944L30.3177 25.5303L27.5152 21.6853C26.7801 20.6768 25.3566 20.448 24.3358 21.1741C23.3149 21.9001 23.0831 23.3062 23.8182 24.3146L28.3738 30.5647C28.79 31.1357 29.4526 31.4815 30.1644 31.4993C30.8764 31.5171 31.5559 31.205 32.0009 30.6556L41.112 19.4056Z" fill="white"/>
</svg>
