<svg width="65" height="45" viewBox="0 0 65 45" fill="none" xmlns="http://www.w3.org/2000/svg">
<g clip-path="url(#clip0_3860_3026)">
<path d="M64.8687 22.8525C65.9254 29.2512 60.3265 32.8559 54.6559 33.2715C51.0455 40.6372 38.3322 45.608 27.2962 40.2525C22.5758 40.9602 19.9914 39.7895 17.9947 37.5572C22.029 32.4053 34.2385 23.1344 49.1553 27.92C57.1175 30.4733 59.1817 24.4717 57.1851 22.2208C49.6714 13.7503 32.7128 21.3752 32.0985 22.011C38.7623 11.8924 62.5956 9.05307 64.8687 22.8545M42.0266 11.2258C42.0676 11.2114 36.61 9.29997 28.9754 12.5713C28.6683 12.4561 28.3693 12.3286 28.0744 12.1845C35.416 7.34538 41.8525 5.29203 47.3552 6.08827C44.0213 2.28402 28.0109 -0.514133 18.8384 8.6066C7.49723 6.39072 -0.434228 15.9291 0.0163068 24.6384C0.466841 33.3476 10.0407 38.7711 15.4983 37.3021C15.6294 37.2835 15.7604 37.2835 15.8915 37.3021C17.0998 31.5453 22.0352 18.1532 42.0266 11.2258Z" fill="white"/>
</g>
<defs>
<clipPath id="clip0_3860_3026">
<rect width="65" height="45" fill="white"/>
</clipPath>
</defs>
</svg>
